<?xml version="1.0" encoding="UTF-8"?>
<svg id="Layer_2" xmlns="http://www.w3.org/2000/svg" viewBox="0 0 526.94 312.7">
  <defs>
    <style>
      .cls-1 {
        fill: #fff;
      }
    </style>
  </defs>
  <g id="Layer_1-2" data-name="Layer_1">
    <g>
      <path d="M192.48,31.29c1.65.86,3.52,1.29,5.63,1.29s4-.43,5.68-1.29c1.68-.86,3-2.17,3.98-3.94.98-1.77,1.47-4,1.47-6.7V.89h-4.72v20.03c0,2.37-.56,4.21-1.69,5.5-1.13,1.29-2.67,1.94-4.63,1.94s-3.5-.65-4.63-1.94c-1.13-1.29-1.69-3.12-1.69-5.5V.89h-4.72v19.76c0,2.7.47,4.93,1.42,6.7.95,1.77,2.25,3.08,3.89,3.94Z"/>
      <path d="M219.34,29.38c.53.83,1.35,1.57,2.45,2.23,1.1.65,2.46.98,4.09.98,1.84,0,3.5-.44,4.99-1.31,1.48-.87,2.66-2.17,3.54-3.89.87-1.72,1.31-3.84,1.31-6.37s-.42-4.68-1.27-6.39c-.85-1.71-1.98-3-3.41-3.87-1.42-.87-3-1.31-4.72-1.31s-3.09.38-4.3,1.13c-1.2.76-2.1,1.68-2.69,2.78h-.27l-.36-3.38h-4.1v31.87h4.72v-12.46ZM220.88,15.69c1.11-1.17,2.51-1.76,4.21-1.76s3.05.58,4.16,1.74c1.11,1.16,1.67,2.92,1.67,5.3s-.56,4.15-1.67,5.34c-1.11,1.19-2.5,1.78-4.16,1.78s-3.09-.59-4.21-1.78c-1.11-1.19-1.67-2.95-1.67-5.3s.56-4.15,1.67-5.32Z"/>
      <path d="M246.05,29.38c.53.83,1.35,1.57,2.45,2.23,1.1.65,2.46.98,4.09.98,1.84,0,3.5-.44,4.99-1.31,1.48-.87,2.66-2.17,3.54-3.89.87-1.72,1.31-3.84,1.31-6.37s-.42-4.68-1.27-6.39c-.85-1.71-1.98-3-3.41-3.87-1.42-.87-3-1.31-4.72-1.31s-3.09.38-4.3,1.13c-1.2.76-2.1,1.68-2.69,2.78h-.27l-.36-3.38h-4.1v31.87h4.72v-12.46ZM247.58,15.69c1.11-1.17,2.51-1.76,4.21-1.76s3.05.58,4.16,1.74c1.11,1.16,1.67,2.92,1.67,5.3s-.56,4.15-1.67,5.34c-1.11,1.19-2.5,1.78-4.16,1.78s-3.09-.59-4.21-1.78c-1.11-1.19-1.67-2.95-1.67-5.3s.56-4.15,1.67-5.32Z"/>
      <path d="M281.77,27.75c-.76.58-1.83.87-3.23.87s-2.62-.33-3.49-.98c-.88-.65-1.4-1.5-1.58-2.54h-4.85c.24,2.26,1.22,4.07,2.94,5.43,1.72,1.37,4.04,2.05,6.94,2.05,1.84,0,3.45-.31,4.83-.93,1.38-.62,2.46-1.47,3.25-2.54.79-1.07,1.16-2.27,1.13-3.61,0-1.63-.37-2.9-1.11-3.81-.74-.9-1.75-1.57-3.03-2-1.28-.43-2.73-.73-4.36-.91-3.44-.36-5.16-1.34-5.16-2.94,0-.74.36-1.34,1.07-1.8.71-.46,1.68-.69,2.89-.69s2.18.26,2.98.78c.8.52,1.26,1.22,1.38,2.11h4.54c-.24-2.11-1.1-3.77-2.58-4.99-1.48-1.22-3.58-1.82-6.28-1.82s-4.81.59-6.32,1.78c-1.51,1.19-2.27,2.75-2.27,4.67,0,1.37.36,2.5,1.07,3.41.71.91,1.68,1.62,2.92,2.14,1.23.52,2.6.87,4.12,1.05,1.75.21,3.08.52,3.98.93.9.42,1.36,1.19,1.36,2.31,0,.77-.38,1.45-1.14,2.03Z"/>
      <path d="M304.18,18.96c-2.91,0-5.16.61-6.74,1.82-1.59,1.22-2.38,2.91-2.38,5.07,0,1.22.3,2.34.89,3.36.59,1.02,1.48,1.84,2.67,2.45,1.19.61,2.66.91,4.41.91,1.96,0,3.43-.37,4.41-1.11.98-.74,1.8-1.63,2.45-2.67h.31l.4,3.25h4.01v-13.58c0-2.82-.74-5.03-2.23-6.63-1.48-1.6-3.86-2.4-7.12-2.4-2.7,0-4.93.68-6.7,2.03-1.77,1.35-2.77,3.18-3,5.5h4.72c.3-1.22.88-2.1,1.76-2.65.87-.55,1.95-.82,3.23-.82,3.09,0,4.63,1.66,4.63,4.99v.49h-5.7ZM308.25,26.86c-.96,1.17-2.41,1.76-4.34,1.76-1.19,0-2.13-.27-2.83-.82-.7-.55-1.05-1.31-1.05-2.29s.35-1.74,1.05-2.29c.7-.55,1.89-.82,3.58-.82h5.16c-.09,1.81-.62,3.3-1.58,4.47Z"/>
      <path d="M340.94,27.95h-7.43V5.3c0-1.72-.45-3.03-1.36-3.94-.91-.9-2.22-1.36-3.94-1.36h-6.19v4.1h5.34c.95,0,1.42.49,1.42,1.47v22.39h-7.39v4.09h19.54v-4.09Z"/>
      <path d="M357.59,18.96c-2.91,0-5.16.61-6.74,1.82-1.59,1.22-2.38,2.91-2.38,5.07,0,1.22.3,2.34.89,3.36.59,1.02,1.48,1.84,2.67,2.45,1.19.61,2.66.91,4.41.91,1.96,0,3.43-.37,4.41-1.11.98-.74,1.8-1.63,2.45-2.67h.31l.4,3.25h4.01v-13.58c0-2.82-.74-5.03-2.23-6.63-1.48-1.6-3.86-2.4-7.12-2.4-2.7,0-4.93.68-6.7,2.03-1.77,1.35-2.77,3.18-3,5.5h4.72c.3-1.22.88-2.1,1.76-2.65.87-.55,1.95-.82,3.23-.82,3.09,0,4.63,1.66,4.63,4.99v.49h-5.7ZM361.66,26.86c-.96,1.17-2.41,1.76-4.34,1.76-1.19,0-2.13-.27-2.83-.82-.7-.55-1.05-1.31-1.05-2.29s.35-1.74,1.05-2.29c.7-.55,1.89-.82,3.58-.82h5.16c-.09,1.81-.62,3.3-1.58,4.47Z"/>
      <path d="M83.76,135.56c.8-1.28,1.73-2.46,2.57-3.71,1.42-2.1,2.96-4.11,4.61-6.04,1.65-1.94,3.5-3.6,5.74-4.81,1.7-.91,3.46-1.32,5.39-.99,1.25.21,2.07.92,2.55,2.05.63,1.49.62,3.08.69,4.64.04,1.09-.02,2.19-.07,3.28-.13,2.32-.3,4.64-.42,6.96-.09,1.62-.07,3.25-.19,4.87-.13,1.77-.11,3.55-.1,5.32,0,2.09.18,4.17.36,6.24.06.71.1,1.44.22,2.14.4,2.18.73,4.38,1.38,6.51.55,1.78,1.13,3.54,1.86,5.25.73,1.7,1.7,3.27,2.81,4.75,1.78,2.39,3.6,4.73,6.31,6.2,2.7,1.47,5.51,2.5,8.62,2.54,1.96.02,3.88-.33,5.83-.46.87-.06,1.71-.33,2.58-.45,1.46-.21,2.89-.48,4.28-1.02,2.52-.98,4.8-2.31,6.37-4.56,1.1-1.56,1.96-3.27,2.69-5.05.38-.94.7-1.9.96-2.86.34-1.24.61-2.51.88-3.77.55-2.63.89-5.29,1.05-7.96.16-2.71.19-5.43.14-8.15-.06-2.84-.25-5.67-.39-8.5-.13-2.55-.48-5.07-.77-7.6-.43-3.78-1.06-7.53-1.68-11.28-.14-.84-.3-1.68-.48-2.52-.64-2.96-1.3-5.91-1.94-8.86-.36-1.67-.72-3.34-1.21-4.98-.52-1.75-.92-3.53-1.45-5.28-.52-1.72-.95-3.46-1.47-5.18-.4-1.31-.76-2.62-1.26-3.9-.55-1.39-.94-2.85-1.42-4.27-.4-1.18-.9-2.33-1.31-3.5-.66-1.89-1.45-3.73-2.2-5.57-.97-2.38-2-4.75-3.25-7.01-.72-1.3-1.4-2.63-2.19-3.88-1.05-1.66-2.16-3.28-3.41-4.8-.88-1.07-1.78-2.13-2.8-3.06-1.62-1.46-3.35-2.79-5.18-3.99-1.34-.88-2.75-1.6-4.23-2.16-1.43-.53-2.93-.8-4.42-1.12-1.18-.26-2.39-.41-3.59-.36-1.81.08-3.59.29-5.35.82-2.03.61-3.98,1.28-5.78,2.45-1.77,1.15-3.47,2.35-4.99,3.82-1.89,1.84-3.49,3.91-4.86,6.14-.84,1.36-1.44,2.87-2.11,4.33-1.18,2.56-1.84,5.25-2.32,8-.42,2.38-.52,4.8-1.06,7.16-.35,1.54-.84,3-1.74,4.35-1.38,2.06-3.26,3.34-5.56,4.12-1.54.52-3.12.78-4.72.97-1.14.14-2.29.04-3.41-.03-.57-.04-1.23-.22-1.77-.59-.45-.31-.93-.57-1.41-.84-.91-.52-1.74-1.15-2.5-1.88-2.31-2.22-4.03-4.88-5.61-7.63-.74-1.29-1.44-2.6-2.18-3.9-.49-.86-1.08-1.66-1.6-2.51-1.14-1.88-2.52-3.57-4.16-5.05-1.13-1.02-2.37-1.91-3.67-2.7-1.46-.88-3-1.6-4.58-2.26-1.7-.72-3.45-1.2-5.27-1.5-1.15-.19-2.3-.19-3.46-.21-1.25-.02-2.5,0-3.71.25-1.57.31-3.12.68-4.65,1.21-2.2.76-4.14,1.92-6.01,3.25-.78.55-1.43,1.26-2.17,1.87-1.02.83-1.83,1.86-2.62,2.86-.78.99-1.56,2.01-2.17,3.15-.8,1.52-1.7,3-2.33,4.6-.82,2.09-1.58,4.21-2.13,6.4-.4,1.58-.83,3.14-1.07,4.75-.14.91-.31,1.82-.44,2.73-.11.74-.18,1.49-.25,2.23-.12,1.1-.28,2.21-.32,3.31-.06,1.52-.15,3.04-.18,4.56-.05,2.02,0,4.03.01,6.04.02,2.15.18,4.3.28,6.45.18,3.95.45,7.89.85,11.82.39,3.88.93,7.74,1.41,11.6.06.51.18,1.01.26,1.51.19,1.2.32,2.41.58,3.59.22.99.4,1.98.55,2.97.34,2.11.77,4.2,1.24,6.29.58,2.59,1.3,5.13,1.99,7.69.62,2.28,1.37,4.52,2.22,6.71.81,2.1,1.68,4.19,2.65,6.23,1.07,2.26,2.27,4.43,3.7,6.48,1.53,2.19,3.14,4.3,5,6.22,1.64,1.69,3.42,3.2,5.5,4.33,1.52.82,3.08,1.57,4.75,2.04,1.14.32,2.29.64,3.48.8,2.09.29,4.17.39,6.28.17,1.1-.11,2.14-.5,3.21-.63,1.81-.22,3.5-.73,5.15-1.47,2.1-.95,4.04-2.13,5.87-3.53,1.92-1.47,3.27-3.39,4.55-5.37,1.17-1.81,1.64-3.87,1.97-5.99.36-2.35.15-4.62-.38-6.9-.15-.63-.26-1.27-.42-1.89-.06-.21.15-.45.09-.48-.52-.29-.4-.85-.54-1.28-.58-1.7-1.11-3.41-1.68-5.12-.39-1.17-.85-2.33-1.21-3.51-.17-.56-.49-1.04-.59-1.63-.23-1.29-.81-2.49-1.05-3.79-.13-.72-.42-1.44-.6-2.17-.42-1.67-.84-3.34-1.23-5.03-.23-.98-.6-1.93-.77-2.91-.38-2.2-.91-4.38-1.17-6.61-.29-1.74-.45-3.5-.2-5.26.17-1.23.38-2.45,1.68-3.09.59-.29,1.23-.28,1.84-.39,1.04-.19,2.06-.4,3.14-.24,1.12.16,2.19.48,3.27.8,1.02.31,1.99.75,2.91,1.27,3.09,1.76,5.79,4.06,8.47,6.38,1.51,1.31,3.05,2.6,4.84,3.53,1.35.71,2.64.66,3.57-.28.84-.85,1.66-1.75,2.29-2.76Z"/>
      <path d="M157.36,197.84c-.31-.01-.41-.14-.44-.43-.06-.58-.15-1.15-.32-1.71-.22-.72-.57-1.35-1.26-1.74-.22-.12-.35-.3-.46-.52-.65-1.33-1.34-2.65-1.97-4-.35-.74-.8-1.37-1.42-1.91-.31-.28-.69-.35-1.03-.54-1.27-.71-2.65-1.09-4.1-1.18-1.51-.09-3.03-.22-4.55-.12-.67.04-1.33-.01-1.99,0-2.06.04-4.13.1-6.19.14-2.13.04-4.27.06-6.4.11-.58.01-1.16,0-1.74.02-1.64.04-3.27.08-4.91.11-1.16.02-2.32.03-3.48.05-1.42.02-2.83.05-4.25.08-1.01.02-2.01.04-3.02.06-1.31.03-2.63.06-3.94.08-.67.01-1.33,0-2,.02-1.6.04-3.21.1-4.81.11-1.91.02-3.82.08-5.73.24-.84.07-1.68.2-2.43.57-1.23.61-2.21,1.53-2.95,2.7-.91,1.44-1.32,3.03-1.4,4.71-.02.43.02.85,0,1.28-.09,2.06-.17,4.13-.21,6.19-.04,1.86-.11,3.72-.17,5.58,0,.05,0,.1,0,.15,0,.44.04.49.44.64.85.32,1.7.63,2.54.95,2.43.91,4.86,1.82,7.29,2.74.43.16.45.19.44.63-.04,1.28-.12,2.56-.11,3.84,0,1.24-.1,2.49-.1,3.74-.01,1.55-.06,3.11-.12,4.66-.06,1.52-.14,3.04-.02,4.55.13,1.65.29,3.3.78,4.89.3.97.77,1.85,1.48,2.6.26.28.57.48.85.73.85.78,1.86,1.25,2.96,1.56,1.09.3,2.21.41,3.33.5,1.17.09,2.35.07,3.52.24.21.03.41-.03.6-.1.23-.07.46-.14.69-.21.2-.06.29.02.29.23,0,.09,0,.17,0,.26-.18,3.7-.35,7.4-.5,11.1-.2,5.12-.56,10.23-.71,15.35-.07,2.34-.22,4.67-.34,7.01-.03.52-.07.58-.58.51-1.15-.15-2.3-.33-3.44-.49-.17-.03-.28-.09-.26-.3.11-1.14.09-2.28.12-3.43.07-2.42.12-4.85.18-7.27.05-1.86.1-3.72.15-5.58.04-1.11.06-2.22.08-3.33,0-.43-.05-.5-.51-.5-.36,0-.72.05-1.07.04-2.17-.1-4.33-.24-6.5-.24-.92,0-1.85-.01-2.76-.1-.93-.09-1.84-.08-2.75,0-1.02.08-2.04.2-3.06.27-2.16.15-4.32.4-6.48.51-.51.03-.58.11-.61.62-.1,1.56-.18,3.13-.3,4.69-.03.39.05.79-.03,1.17-.14.64-.12,1.29-.17,1.93-.21,3.36-.35,6.72-.62,10.07-.26,3.34-.31,6.69-.64,10.02-.07.66.06,1.33-.05,1.99-.1.58-.12,1.15-.15,1.73-.05.87-.07,1.74-.07,2.61,0,.94.15,1.83.45,2.71.19.55.47,1.06.68,1.6.53,1.36,1.42,2.45,2.52,3.36.99.83,2.09,1.54,3.28,2.07.26.12.48.31.77.4.72.22,1.39.58,2.04.94.13.07.24.15.27.29.06.29.26.37.52.41.98.14,1.96.29,2.94.42,1.32.19,2.64.36,3.95.55,1.44.2,2.87.42,4.31.6,1.28.17,2.56.39,3.85.46,1.29.08,2.56.4,3.84.6,1.3.2,2.6.41,3.9.56,1.34.16,2.67.38,4,.57,1.42.19,2.84.4,4.26.6.93.13,1.86.26,2.79.39,1.33.19,2.67.39,4,.58.98.14,1.96.27,2.94.41,1.33.19,2.67.39,4,.57,1.15.16,2.3.31,3.45.46.83.11,1.67.16,2.49-.1,1.54-.48,2.76-1.4,3.68-2.72,1.26-1.82,2.53-3.65,3.79-5.48,1-1.45,2-2.9,2.96-4.37.58-.89,1.02-1.85,1.19-2.92.12-.78.23-1.55.29-2.33.09-1.11.11-2.22.19-3.32.15-2.2.18-4.4.42-6.59.05-.45-.06-.58-.53-.63-1.59-.19-3.18-.38-4.78-.57-1.25-.15-2.51-.28-3.76-.42-.37-.04-.43-.11-.43-.49,0-.09,0-.17.01-.26.13-2.49.28-4.98.39-7.47.16-3.62.48-7.23.47-10.85,0-1.38-.22-2.71-.84-3.97-1.1-2.24-2.86-3.52-5.33-3.81-1.07-.12-2.14-.19-3.21-.26-1.29-.09-2.58-.35-3.88-.09-.17.03-.25-.08-.25-.24,0-.17,0-.34.02-.51.09-1.23.18-2.45.26-3.68.32-5.13.57-10.26.91-15.39.23-3.48.39-6.96.58-10.44.11-1.93.21-3.85.32-5.78.03-.45.07-.5.47-.48,1.47.07,2.93.15,4.4.23.38.02.42.08.42.48,0,.1,0,.2-.02.31-.16,3.14-.33,6.28-.49,9.41,0,0-.01,0-.02,0-.12,2.37-.25,4.74-.37,7.11-.05.89-.1,1.77-.13,2.66-.02.44.04.49.48.53.15.01.31.02.46.03,2.58.13,5.15.26,7.73.4,2.52.13,5.05.27,7.57.41.57.03.62-.01.66-.57.05-.66.13-1.32.19-1.99.16-1.8.32-3.6.49-5.4.18-1.94.33-3.88.52-5.81.16-1.61.3-3.23.44-4.84.17-1.87.34-3.74.51-5.61.17-1.95.32-3.91.52-5.86.03-.31.12-.55.35-.76.78-.76,1.19-1.69,1.2-2.79,0-.44.04-.89.05-1.33.02-.72-.18-1.37-.49-2.02-.27-.56-.67-.85-1.27-.88Z"/>
      <path d="M221.14,233.19c1.14-.42,2.24-.91,3.41-1.24,2.33-.65,4.31-1.83,5.77-3.79.4-.54.87-1.02,1.37-1.46.34-.3.61-.66.81-1.06.2-.41.47-.76.78-1.08.37-.37.7-.78.88-1.28.12-.34.3-.64.55-.89.56-.58.91-1.26,1.07-2.05.13-.65.14-1.3.01-1.94-.13-.68.07-1.33.16-1.99,0-.07.03-.17.08-.2.42-.27.52-.76.81-1.12.35-.43.43-.85.14-1.33-.16-.26-.08-.44.17-.61.72-.5,1.43-1.01,2.14-1.53.15-.11.32-.21.44-.35.86-1.03,1.81-1.98,2.54-3.12.41-.64.9-1.24,1.17-1.96.53-1.45,1.02-2.92,1.53-4.38.05-.14.07-.29.1-.43.24-1.24.15-2.48,0-3.72-.13-1.09-.44-2.16-.57-3.24-.25-2.12-1.05-4.06-1.81-6.02-.61-1.57-1.5-2.99-2.32-4.45-.48-.86-1.1-1.59-1.91-2.16-.45-.32-.91-.64-1.36-.98-.59-.44-1.28-.67-1.98-.87-1.02-.28-2.07-.23-3.1-.3-.46-.03-.93-.08-1.39-.03-.51.06-1,.06-1.42-.33-.07-.07-.2-.08-.31-.11-.1-.03-.16-.08-.21-.17-.27-.55-.82-.78-1.32-.95-.4-.13-.64-.32-.82-.66-.11-.21-.27-.4-.4-.6-.54-.8-1.14-1.56-1.68-2.37-1.47-2.22-2.99-4.41-4.78-6.39-.68-.75-1.48-1.32-2.34-1.79-1.53-.82-3.16-1.44-4.89-1.67-3.3-.44-6.59-1-9.91-1.27-2.65-.22-5.29-.6-7.96-.4-2.04.15-3.97.61-5.69,1.76-.59.39-1.12.85-1.55,1.43-1.05,1.41-1.76,2.99-2.29,4.64-.59,1.82-1.06,3.69-1.41,5.57-.16.85-.5,1.05-1.33.78-.12-.04-.24-.11-.35-.17-.3-.18-.6-.37-.9-.56-.3-.2-.6-.28-.95-.13-.2.09-.4.09-.6,0-.53-.22-1.09-.21-1.65-.23-.61-.03-1.2.09-1.71.42-.71.47-1.42.95-1.94,1.66-.75,1.02-1.5,2.05-2.61,2.73-.42.25-.66.64-.84,1.08-.39.97-.8,1.93-1.19,2.89-.1.25-.24.44-.48.59-.48.3-.85.72-1.06,1.26-.47,1.23-.95,2.47-1.41,3.71-.31.82-.66,1.63-.9,2.47-.57,1.98-.76,4.02-.82,6.07-.05,1.73-.06,3.46-.12,5.19-.08,2.31-.12,4.62.3,6.9.07.4.03.83.12,1.22.4,1.6.91,3.15,1.86,4.52.08.12.17.24.28.35.55.53,1.09,1.07,1.7,1.53.8.6,1.6,1.22,2.37,1.87.72.61,1.58,1.08,2.06,1.94.11.19.31.26.51.32,1.26.41,2.5.85,3.77,1.23.7.21,1.43.44,2.18.11.18-.08.49-.22.57.08.08.29-.27.31-.46.37-1.26.4-2.5.85-3.73,1.35-1.53.62-3,1.32-4.12,2.59-.19.21-.35.42-.48.67-.69,1.28-1.02,2.68-1.24,4.1-.13.84-.25,1.7-.16,2.56.14,1.33.31,2.66.49,3.99.29,2.23.51,4.48.69,6.72.06.69.14,1.37.17,2.06.1,2.02.45,4.01.96,5.95.58,2.24,1.54,4.34,2.72,6.35.5.86,1.06,1.67,1.71,2.41.6.69,1.35,1.21,2.27,1.32.73.09,1.44.33,2.23.28-.08.18-.21.25-.33.33-.59.37-1.04.87-1.51,1.39-.93,1.03-1.32,2.25-1.39,3.57-.1,1.89-.13,3.8-.13,5.69,0,1.75.09,3.5.16,5.25.08,2.17.1,4.35.5,6.5.21,1.14.56,2.19,1.06,3.21.51,1.02,1.31,1.75,2.26,2.33.92.56,1.94.95,2.9,1.43.18.09.39.13.54.34-.59.38-.48.88-.27,1.42.26.64.45,1.3.91,1.84.14.16.18.32-.02.48-.16.12-.17.32-.22.5-.17.74-.18,1.47.16,2.18.14.29.11.57-.08.84-.19.29-.24.63-.24.96,0,.34.25.56.54.43.29-.13.46-.11.68.11.16.16.39.21.62.19.19-.01.37-.03.56-.02.24,0,.55-.06.48.38-.02.12.12.17.24.19.19.03.38.02.55-.03.45-.13.9-.22,1.37-.27.19-.02.35-.11.52-.18.53-.21,1.06-.3,1.57.07.34.25.66.25.97,0,.2-.17.4-.24.65-.23.2,0,.41-.04.61-.07.17-.03.33-.02.48.09.32.26.65.24.99.05.15-.09.29-.13.47-.05.44.2.84.07,1.21-.17.19-.12.36-.27.57-.34.4-.14.73-.36.91-.77.05-.12.14-.23.26-.28.53-.22.98-.61,1.58-.65.21-.02.42-.1.5-.31.11-.27.32-.32.57-.37.4-.09.56-.29.47-.67-.07-.28.03-.41.23-.56.35-.26.46-.62.43-1.04-.02-.25-.13-.44-.41-.43-.32,0-.57-.14-.83-.29-.47-.27-.95-.5-1.47-.68-.18-.06-.47-.06-.46-.32,0-.19.27-.22.44-.29.66-.28,1.26-.64,1.75-1.17,1.42-1.5,2.49-3.25,3.41-5.09.8-1.6,1.35-3.31,2.02-4.97.28-.69.41-1.43.5-2.17.09-.78.03-1.57-.11-2.33-.14-.79-.38-1.55-.62-2.32-.69-2.25-1.59-4.41-2.64-6.51-.86-1.7-1.91-3.28-2.89-4.91-.11-.19-.26-.37-.25-.61.04-.82-.35-1.42-.96-1.92-.28-.22-.53-.47-.72-.77-.25-.42-.61-.69-1.07-.85-.38-.14-.76-.28-1.14-.42,0-.03,0-.07,0-.1.17-.06.34-.15.52-.19,1.21-.28,2.24-.9,3.15-1.72.47-.42.89-.91,1.07-1.54.22-.77.58-1.45,1.1-2.05.17-.2.31-.42.47-.62.65-.83.99-1.78,1.06-2.83.08-1.16.03-2.31-.11-3.45-.31-2.4-.72-4.79-1.23-7.15-.33-1.55-.63-3.1-.95-4.65-.13-.66-.24-1.32-.43-1.96-.7-2.49-1.43-4.98-2.63-7.29-.06-.11-.1-.24-.13-.37-.02-.09.01-.19.1-.24.1-.06.18-.02.24.06.11.13.22.25.32.39.37.52.8.98,1.23,1.44.41.43.8.9,1.34,1.17.75.38,1.35.91,1.91,1.51,1.1,1.17,2.46,1.83,4.03,2.12,1.09.2,2.17.27,3.28.22,1.38-.06,2.74-.26,4.07-.6,1.47-.37,2.85-.98,4.26-1.5ZM213.91,202.01c-.82.24-1.67.36-2.49.62-.92.3-1.83.62-2.69,1.07-.55.29-1.16.41-1.74.58-.32.1-.64.2-.93.37-1.33.78-2.73,1.44-3.98,2.37-.2.15-.42.26-.65.31-.51.11-.92.39-1.3.73-.27.25-.57.42-.94.44-.34.02-.62.23-.96.32-.08-.25-.04-.47-.03-.69.07-1,.15-2,.2-3.01.03-.5-.02-1-.13-1.5-.09-.4-.11-.81-.11-1.22.01-1.4-.12-2.79-.27-4.17-.06-.56.08-1.07.15-1.6.03-.22.18-.25.37-.2.43.12.86.22,1.3.34.34.09.69.14,1.04.17,1.97.17,3.94.22,5.91.08,1.89-.14,3.78-.34,5.61-.91.22-.07.41-.17.59-.3.99-.73,1.98-1.46,2.87-2.31,1.04-.99,1.91-2.13,2.55-3.43.34-.68.69-1.36,1.04-2.04.05-.1.1-.2.16-.29.05-.08.13-.14.23-.11.12.03.2.11.19.24-.01.36-.1.68-.32.99-.45.64-.88,1.29-1.29,1.95-.26.41-.49.84-.63,1.31-.19.65-.22,1.32-.02,1.98.09.29.11.58.09.88-.04.67-.02,1.34.08,2,.2,1.31.38,2.62.58,3.92.02.11.04.22.05.33.04.44-.02.5-.44.48-.58-.03-1.15-.06-1.73-.05-.81,0-1.59.12-2.36.34Z"/>
      <path d="M165.58,148.12c.42.2.83.41,1.25.62.53.26,1.07.51,1.6.78.33.16.66.34.99.51.53.26,1.06.52,1.6.78.12.06.26.1.38.17.54.32,1.13.54,1.72.74.68.23,1.35.49,2.01.77.73.31,1.44.67,2.16,1,.59.28,1.17.6,1.77.86.56.25,1.11.51,1.68.74.45.18.91.35,1.35.55.39.18.8.28,1.19.43.4.15.83.26,1.25.37.43.11.86.21,1.29.32.03,0,.06.02.09.02.28,0,.54.09.81.17.41.12.82.21,1.23.29.15.03.28.11.43.12.29.03.56.12.83.19.36.09.72.2,1.08.26.28.05.56.11.84.19.19.05.39.1.58.16.49.13.98.25,1.48.35.44.08.88.15,1.32.2.63.08,1.26.14,1.89.21.05,0,.1.02.16.02.51.06,1.03.13,1.54.18.38.03.76.03,1.14.05.16,0,.32.01.48,0,.58-.03,1.16-.07,1.74-.1.46-.02.93-.07,1.39-.08.52-.01,1.03-.07,1.55-.11.17-.01.34,0,.51-.01.44-.02.89-.05,1.33-.07.61-.03,1.23-.06,1.84-.13.38-.04.76-.09,1.13-.14.2-.03.39-.08.56-.21.06-.05.14-.09.22-.12.29-.1.58-.2.88-.28.64-.17,1.24-.43,1.86-.64.56-.19,1.1-.44,1.66-.64.97-.35,1.9-.77,2.81-1.24.3-.16.6-.32.9-.46.53-.24,1.05-.51,1.55-.8.2-.12.4-.23.6-.35.1-.06.21-.09.33-.07.04,0,.08.01.13.01.09,0,.13-.07.07-.15-.05-.06-.07-.1,0-.15.08-.06.16-.14.25-.19.34-.2.65-.44.97-.67.27-.19.54-.37.81-.55.26-.18.52-.36.78-.54.08-.05.15-.11.23-.17.11-.08.22-.17.33-.25.38-.28.78-.55,1.15-.84.36-.29.75-.55,1.13-.82.56-.4,1.1-.82,1.66-1.23.59-.43,1.13-.92,1.73-1.34.16-.11.32-.21.46-.34.54-.46,1.13-.85,1.71-1.26.16-.12.33-.22.5-.33.05-.03.11-.06.17-.09.08-.04.16-.03.24.03.04.03.08.07.12.11.16.17.3.36.48.5.24.19.42.42.62.64.54.61,1.11,1.19,1.68,1.77.41.42.82.85,1.22,1.29.18.19.33.42.52.6.4.37.77.78,1.14,1.19.14.15.25.31.39.46.3.32.6.66.87,1,.33.41.64.84,1.01,1.22.11.11.2.25.3.37.35.39.76.74,1.08,1.15.18.23.41.43.61.64.23.26.46.52.69.79.26.31.51.62.77.93.29.35.61.68.9,1.03.46.55.92,1.11,1.43,1.62.13.14.26.28.39.42.13.13.27.17.46.08.29-.14.57-.27.82-.47.38-.31.81-.54,1.17-.87.05-.05.13-.06.2-.08.27-.07.54-.11.82-.08.2.02.4.05.6.01.31-.06.63-.07.95-.09.2-.01.4-.05.59-.1.38-.11.75-.23,1.12-.35.24-.08.48-.18.72-.25.57-.17,1.12-.39,1.65-.65.77-.37.76-.39,1.03-1.04.13-.31.24-.64.23-.98,0-.24.04-.46.11-.69.07-.24.15-.29.39-.26.07,0,.14.04.21.06.06.02.12.05.18.07.1.03.17-.01.17-.12,0-.15.09-.23.21-.29.1-.06.21-.11.3-.18.17-.11.18-.21.05-.36-.35-.42-.73-.82-1.13-1.2-.49-.47-.94-.97-1.33-1.53-.3-.43-.62-.86-.94-1.28-.32-.43-.64-.87-.97-1.29-.32-.41-.65-.8-.97-1.21-.33-.42-.64-.84-1.01-1.22-.02-.02-.04-.05-.06-.07-.19-.24-.37-.49-.56-.73-.18-.22-.37-.44-.54-.66-.33-.43-.67-.85-1.04-1.24-.05-.05-.1-.11-.14-.17-.19-.24-.37-.49-.56-.73-.43-.51-.86-1.02-1.29-1.53-.41-.48-.82-.97-1.23-1.45-.32-.38-.63-.77-.97-1.13-.42-.45-.79-.94-1.2-1.4-.21-.24-.4-.5-.6-.74-.26-.31-.52-.61-.78-.92-.3-.36-.59-.72-.88-1.08-.1-.13-.1-.18,0-.31.19-.24.39-.47.59-.71.35-.42.66-.88.96-1.34.29-.47.56-.95.82-1.43.22-.41.42-.83.61-1.26.16-.37.31-.74.47-1.11.23-.53.48-1.06.71-1.59.13-.29.23-.59.32-.9.21-.75.35-1.53.66-2.25.08-.38.29-.73.33-1.12,0-.01,0-.02.01-.03.11-.21.1-.43.09-.65-.01-.33-.01-.66-.02-.98-.02-.58.07-1.14.21-1.69.13-.51.31-1.01.37-1.54,0-.06.03-.12.05-.18.15-.49.29-.97.44-1.46.07-.24.14-.49.23-.73.27-.78.51-1.57.58-2.4.05-.56.23-1.1.28-1.66.14-.43.15-.88.19-1.32.08-.89.11-1.77.03-2.66-.05-.59-.08-1.18-.12-1.77-.07-.9-.14-1.79-.21-2.69-.03-.37-.03-.74-.07-1.11-.09-.79-.15-1.58-.19-2.37-.04-.74-.1-1.48-.36-2.18-.14-.37-.21-.75-.39-1.11-.09-.19-.17-.39-.22-.59-.05-.2-.12-.38-.23-.55-.08-.14-.15-.28-.18-.44-.04-.17-.1-.35-.23-.48-.07-.07-.1-.16-.13-.25-.18-.49-.41-.95-.68-1.39-.12-.19-.23-.38-.33-.58-.32-.68-.73-1.31-1.06-1.98-.18-.35-.4-.67-.54-1.04-.02-.05-.05-.09-.08-.14-.21-.27-.31-.6-.5-.88-.1-.38-.42-.66-.53-1.04-.31-.46-.5-.98-.8-1.44-.05-.08-.1-.16-.13-.25-.14-.38-.34-.73-.54-1.08-.09-.17-.18-.34-.25-.51-.07-.19-.15-.37-.26-.54-.13-.21-.22-.44-.3-.66-.02-.06-.04-.12-.07-.18-.15-.23-.24-.49-.34-.75-.07-.19-.17-.37-.25-.55-.03-.06-.06-.11-.08-.17-.07-.27-.2-.51-.31-.76-.26-.59-.52-1.18-.78-1.77-.05-.11-.1-.21-.17-.3-.1-.13-.17-.27-.22-.42-.02-.06-.05-.12-.08-.17-.18-.32-.33-.66-.48-1-.06-.13-.13-.26-.2-.4-.18-.37-.43-.67-.79-.88-.14-.08-.23-.22-.38-.28-.18-.07-.33-.19-.47-.32-.44-.38-.88-.76-1.33-1.13-.07-.06-.14-.12-.22-.18-.46-.34-.91-.69-1.37-1.03-.18-.13-.36-.26-.52-.42-.14-.14-.3-.28-.5-.33-.14-.03-.26-.09-.36-.18-.08-.07-.17-.13-.27-.17-.35-.15-.63-.43-1-.54-.27-.21-.59-.33-.89-.48-.27-.13-.51-.31-.77-.44-.61-.3-1.18-.66-1.78-.97-.27-.14-.55-.28-.81-.44-.36-.22-.77-.35-1.09-.64,0,0-.02-.01-.03-.01-.33-.12-.6-.36-.93-.48-.58-.36-1.17-.68-1.77-1-.48-.26-.95-.56-1.44-.8-.73-.35-1.43-.77-2.18-1.1-.4-.17-.78-.38-1.16-.59-.5-.27-1-.55-1.52-.79-.38-.17-.75-.35-1.1-.56-.36-.2-.76-.32-1.11-.55-.02-.01-.04-.02-.06-.02-.21-.02-.37-.14-.55-.24-.22-.13-.45-.24-.69-.33-.09-.03-.18-.07-.26-.11-.36-.16-.73-.28-1.1-.4-.25-.08-.52-.1-.77-.16-.46-.12-.92-.22-1.37-.39-.36-.13-.72-.23-1.08-.38-.17-.07-.35-.09-.52-.15-.4-.16-.81-.3-1.24-.38-.4-.08-.8-.21-1.21-.27-.4-.05-.79-.17-1.19-.22-.63-.08-1.25-.23-1.88-.32-.27-.04-.54-.12-.81-.13-.67-.04-1.31-.24-1.96-.36-.56-.11-1.1-.29-1.67-.38-.34-.05-.67-.09-1.01-.07-.48.03-.95-.02-1.42-.11-.45-.08-.88-.24-1.31-.37-.05-.02-.1-.03-.15-.06-.23-.12-.48-.18-.72-.24-.63-.16-1.25-.31-1.86-.53-.04-.01-.08-.02-.12-.03-.43-.07-.85-.18-1.26-.33-.06-.02-.12-.03-.19-.04-.14-.03-.29-.05-.43-.09-.46-.15-.95-.19-1.41-.35-.04-.01-.08,0-.13-.02-.29-.07-.59-.03-.88-.06-.28-.03-.4.1-.38.4.02.42.04.84.06,1.27.02.32.04.63.07.95.04.38.06.76.06,1.14,0,.21.01.42.02.63.01.18.04.36.04.54,0,.29.02.57.04.85.03.68.05,1.35.05,2.03,0,.66,0,1.31-.01,1.97,0,.63,0,1.27,0,1.9,0,.1,0,.19-.01.29,0,.09-.01.19,0,.28.01.16,0,.32,0,.48,0,.17-.02.34,0,.51.02.25.01.51.01.76,0,.23,0,.47,0,.7,0,.14.01.27.02.41,0,.12.06.2.18.23.15.05.31.08.47.07.14,0,.27.02.41.03.38.04.75.15,1.13.18.26.02.53.05.79.1.46.07.92.16,1.38.14.08,0,.17.01.25.02.33.04.65.08.98.07.09,0,.19,0,.28.02.23.02.46.05.7.05.62-.01,1.22.09,1.83.17.34.04.67.09,1,.15.3.06.61.06.91.16.08.03.17.03.25.04.57.07,1.13.16,1.7.16.25,0,.51,0,.76.01.44.01.89.03,1.33.05.3.01.59.04.89.06.4.03.8.08,1.2.1.35.02.7.06,1.04.12.58.1,1.16.13,1.73.19.34.03.66.12,1,.14.14,0,.27.07.4.09.7.07,1.37.28,2.06.37.3.04.6.12.9.18.11.02.23.02.34.06.22.08.45.12.68.14.08,0,.16.03.25.05.23.04.46.12.69.1.28-.02.52.05.78.13.1.03.2.05.31.06.29.01.59.04.88.07.13.01.25.01.38-.03.07-.02.14-.04.21-.06.11-.03.21-.03.31.03.06.04.13.06.2.09.75.35,1.5.7,2.24,1.06.16.08.31.1.49.07.38-.07.77-.14,1.16-.2.37-.06.73-.12,1.1-.18.12-.02.23-.02.34.03.22.09.43.17.65.26.45.18.91.35,1.36.52.5.19,1.01.38,1.51.57.65.25,1.3.51,1.95.76.17.07.33.13.5.2.52.2,1.05.4,1.57.6.45.17.91.35,1.36.52.44.17.89.34,1.33.51.5.19,1.01.39,1.51.58.38.15.77.3,1.16.44.12.04.2.11.26.22.04.06.07.13.11.19.54.96,1.1,1.91,1.62,2.88.65,1.2,1.36,2.37,2,3.57.41.77.87,1.5,1.27,2.27.43.83.88,1.64,1.31,2.46.22.43.47.85.69,1.28.34.66.71,1.3,1.06,1.95.08.15.15.3.23.45.18.36.39.7.64,1.02.85,1.07,1.69,2.15,2.53,3.22.33.42.3.36.17.83-.15.54-.31,1.08-.48,1.61-.19.59-.34,1.2-.5,1.8-.03.12-.07.25-.08.37-.05.44-.09.88-.14,1.33-.06.56-.1,1.12-.17,1.67-.1.81-.14,1.62-.13,2.44.01,1.12.01,2.24.02,3.37,0,.9,0,1.8,0,2.7,0,.21-.04.39-.14.57-.35.59-.69,1.19-1.03,1.79-.21.37-.44.72-.57,1.13-.08.24-.18.48-.27.71-.17.43-.34.86-.51,1.3-.18.45-.34.91-.52,1.36-.18.46-.37.92-.54,1.39-.07.19-.11.39-.14.59-.08.6-.15,1.2-.26,1.79-.1.53-.16,1.07-.25,1.6-.03.16-.09.27-.21.37-.46.35-.92.71-1.39,1.06-.34.26-.69.53-1.03.79-.15.11-.19.11-.32-.04-.19-.21-.39-.42-.58-.63-.65-.72-1.3-1.45-1.95-2.17-.97-1.08-1.93-2.16-2.9-3.24-.94-1.05-1.88-2.1-2.81-3.15-.97-1.09-1.95-2.18-2.92-3.27-.94-1.05-1.87-2.1-2.81-3.15-1.38-1.54-2.75-3.08-4.13-4.62-.87-.97-1.74-1.94-2.61-2.91-.99-1.1-1.98-2.21-2.96-3.31-.43-.48-.88-.94-1.36-1.37-.62-.55-1.22-1.11-1.84-1.66-1.28-1.15-2.57-2.31-3.85-3.46-.11-.1-.23-.19-.36-.26-.57-.3-1.14-.6-1.71-.91-1.16-.62-2.33-1.21-3.47-1.86-.1-.06-.21-.11-.32-.15-.34-.11-.69-.22-1.02-.34-.39-.15-.78-.26-1.17-.4-.25-.09-.49-.19-.74-.28-.29-.11-.57-.22-.86-.33-.11-.04-.22-.06-.34-.07-.6-.05-1.2-.1-1.8-.15-.73-.06-1.46-.11-2.18-.17-.78-.07-1.56-.1-2.35-.08-.34,0-.67.05-1.01.12-.42.09-.85.15-1.28.23-.05,0-.12.02-.16,0-.14-.09-.26-.11-.37.06-.04.06-.13.06-.21.06-.26.02-.53.04-.79.07-.33.04-.67.1-1,.14-.6.07-1.2.15-1.8.2-.81.07-1.62.11-2.43.21-.51.06-1,.16-1.49.29-.67.17-1.3.44-1.95.68-.79.29-1.6.55-2.39.85-.56.21-1.16.34-1.71.59-.02,0-.04.01-.06.02-.51.18-1.02.36-1.53.54-.5.17-1,.33-1.52.45-.12.03-.26.04-.36.12-.15.12-.33.18-.52.24-.1.03-.2.07-.27.16-.09.11-.2.19-.31.27-.23.16-.42.35-.59.57-.13.17-.27.32-.44.46-.11.09-.21.17-.33.25-.24.16-.48.31-.71.48-.31.23-.63.47-.94.7-.62.48-1.27.91-1.86,1.44-.02.01-.03.03-.05.04-.27.15-.49.37-.72.58-.43.39-.82.82-1.09,1.35-.15.29-.32.57-.49.85-.2.33-.4.65-.6.97-.3.48-.59.96-.89,1.43-.48.75-.98,1.48-1.38,2.28-.3.59-.63,1.18-.93,1.77-.26.52-.54,1.03-.81,1.55-.22.41-.43.82-.59,1.26-.12.33-.25.65-.4.97-.23.49-.43.99-.6,1.5-.15.46-.3.93-.43,1.39-.02.07-.05.14-.08.21-.15.4-.26.81-.33,1.22-.09.54-.1,1.09-.06,1.64.05.72.13,1.43.23,2.15.03.22.04.44.08.66.1.45.12.9.18,1.35.09.57.13,1.16.21,1.73.15,1.14.31,2.28.5,3.42.1.62.19,1.23.29,1.85.1.61.19,1.23.27,1.85.07.6.17,1.19.25,1.79.05.38.08.76.14,1.13.09.64.19,1.28.3,1.91.1.56.14,1.13.27,1.69.01.06.02.13.02.19.07.95.19,1.89.35,2.83.1.61.27,1.2.6,1.73.02.04.04.07.06.11.26.57.59,1.1.9,1.64.09.16.21.29.35.4.13.1.25.19.38.28.63.42,1.31.73,1.99,1.06.5.24,1.01.49,1.52.72.24.11.48.23.72.34ZM163.79,129.66c-.13-.99-.26-1.97-.39-2.96-.02-.17-.02-.34-.01-.51.09-1.26.17-2.51.26-3.77.02-.31.07-.6.18-.9.12-.29.18-.61.27-.91.09-.31.16-.64.3-.94.03-.07.04-.14.06-.21.08-.31.14-.62.26-.92.2-.51.23-1.05.26-1.59.05-.93.12-1.86.16-2.79.01-.3.11-.55.28-.79.83-1.11,1.64-2.24,2.46-3.35.12-.16.2-.32.24-.51.09-.48.17-.96.26-1.43.03-.19.06-.38.11-.56.02-.08.06-.16.11-.23.78-1.32,1.57-2.64,2.35-3.96.32-.55.65-1.09.97-1.64.07-.12.16-.22.27-.3.27-.18.54-.37.81-.55.59-.39,1.19-.77,1.78-1.16.12-.08.24-.12.38-.16,1.38-.37,2.76-.74,4.14-1.11.22-.06.45-.12.68-.17.32-.08.61-.23.91-.37.82-.36,1.64-.73,2.46-1.1.13-.06.26-.08.4-.09.46-.03.93-.06,1.39-.08.17,0,.33-.05.49-.1.54-.2,1.08-.38,1.61-.58.18-.07.34-.07.52,0,.41.16.84.29,1.26.43.26.09.52.17.78.27.37.14.76.19,1.15.24.63.08,1.26.17,1.89.25.55.07,1.09.14,1.64.21.59.08,1.17.16,1.76.24.58.08,1.15.15,1.73.23.06,0,.13.02.19.03.22.03.39.12.52.32.3.45.62.88.94,1.32.33.47.66.93,1,1.39.37.51.75,1.03,1.12,1.54.1.14.2.28.29.41.14.19.23.4.32.62.54,1.28,1.08,2.55,1.62,3.83.34.8.67,1.6,1.01,2.4.51,1.21,1.02,2.42,1.53,3.63.1.23.19.47.29.71.09.24.22.45.39.65,1.27,1.47,2.54,2.95,3.81,4.43.92,1.08,1.85,2.15,2.77,3.23,1.08,1.26,2.17,2.52,3.25,3.78.98,1.14,1.96,2.28,2.94,3.42,1.08,1.25,2.15,2.5,3.23,3.76.98,1.14,1.96,2.28,2.94,3.42.93,1.08,1.86,2.17,2.79,3.25.16.19.23.25-.08.37-.11.04-.19.12-.27.22-.32.41-.63.82-.95,1.23-.83,1.09-1.65,2.18-2.5,3.25-.69.87-1.36,1.75-2.05,2.63-.05.06-.09.11-.14.17-.07.09-.15.14-.26.17-.16.04-.33.09-.49.12-.91.21-1.82.41-2.72.62-.24.05-.47.11-.71.17-.08.02-.16.05-.23.1-.4.27-.79.54-1.18.8-.22.15-.44.29-.66.44-.69.47-1.38.94-2.08,1.4-.51.34-1.03.67-1.54,1.01-.15.1-.3.2-.44.31-.14.1-.3.16-.47.19-.3.05-.6.1-.91.15-1.16.19-2.32.38-3.48.57-.8.13-1.61.23-2.41.41-.97.22-1.94.45-2.91.67-.47.11-.95.22-1.42.33-.26.06-.52.12-.77.18-.17.04-.32.04-.49-.03-.36-.14-.74-.26-1.11-.39-.38-.13-.75-.27-1.13-.41-.42-.15-.84-.29-1.26-.44-.11-.04-.23-.05-.34-.05-1.24.02-2.48-.03-3.71.08-.51.04-1.02.02-1.52.08-.11.01-.21,0-.31-.04-.76-.21-1.51-.4-2.27-.62-.4-.12-.79-.28-1.15-.53-.87-.6-1.76-1.17-2.65-1.76-.2-.13-.4-.23-.62-.32-.76-.31-1.53-.62-2.29-.93-.57-.23-1.14-.45-1.71-.68-.51-.21-1.02-.42-1.53-.63-.44-.18-.88-.35-1.33-.53-.37-.15-.75-.3-1.12-.45-.42-.17-.84-.34-1.26-.52-.58-.24-1.15-.48-1.73-.71-.43-.17-.86-.35-1.29-.54-.11-.05-.22-.08-.33-.11-.31-.08-.61-.17-.92-.25,0,0,0,0,0,0-.34-.09-.67-.19-1.01-.27-.19-.05-.32-.14-.4-.32-.15-.31-.3-.61-.46-.91-.19-.39-.39-.78-.58-1.16-.18-.36-.36-.72-.54-1.08-.23-.46-.5-.91-.77-1.35-.11-.18-.23-.35-.35-.53-.27-.41-.53-.81-.8-1.22-.1-.16-.2-.33-.3-.49-.06-.1-.09-.21-.1-.33-.18-1.37-.36-2.75-.54-4.12-.19-1.42-.38-2.83-.57-4.25Z"/>
      <path d="M259.65,61.51c-.29.63-.61,1.25-.91,1.88-.09.19-.1.39-.08.59.07,1.01.15,2.02.22,3.04.14,2.1.28,4.19.43,6.29.13,1.82.26,3.64.38,5.46.12,1.7.22,3.41.33,5.11.11,1.73.23,3.47.34,5.2.13,1.94.24,3.88.37,5.81.14,2.07.29,4.13.43,6.2.13,1.95.24,3.9.37,5.86.11,1.6.23,3.21.33,4.81.15,2.31.29,4.63.44,6.94.16,2.46.33,4.91.49,7.37.16,2.51.32,5.03.48,7.54.17,2.65.34,5.29.52,7.94.17,2.66.35,5.32.53,7.98.17,2.62.34,5.23.52,7.85.08,1.16.15,2.31.23,3.47.21,3.22.41,6.45.61,9.67.05.75.43,1.11,1.18,1.11.09,0,.17.01.26,0,.27-.02.43.11.53.35l23.83-1.47c.82.08,1.65.14,2.47.24,1.32.17,2.64.34,3.96.55.57.09,1.09-.03,1.62-.16.07-.02.15-.04.19-.09.3-.37.7-.7.84-1.15.18-.59.32-1.21.27-1.84-.15-1.66-.33-3.32-.49-4.97-.15-1.57-.37-3.14-.4-4.72-.09-4.56-.19-9.13-.29-13.69-.07-3.3-.15-6.61-.23-9.91-.08-3.68-.15-7.36-.25-11.04,0-.38.13-.59.45-.73.28-.13.27-.14.45.11,1.14,1.59,2.29,3.17,3.43,4.76.82,1.14,1.63,2.29,2.47,3.42,1.43,1.92,2.88,3.82,4.32,5.73,1.75,2.33,3.5,4.66,5.25,6.98.64.85,1.25,1.71,1.92,2.53,1.75,2.16,3.53,4.3,5.29,6.46,1.17,1.44,2.33,2.88,3.51,4.32,1.47,1.79,2.95,3.58,4.42,5.37.73.89,1.44,1.77,2.35,2.49.54.42,1.12.68,1.8.65,1.98-.08,3.97-.19,5.95-.29.14,0,.29-.03.43-.07.42-.12.44-.17.28-.57-.22-.55-.44-1.1-.66-1.66-.41-1.04-.81-2.08-1.22-3.11-.42-1.05-.82-2.11-1.24-3.15-.34-.86-.61-1.76-1.26-2.46-.3-.33-.59-.68-.87-1.02-1.05-1.28-2.12-2.53-3.19-3.79-1.43-1.69-2.88-3.37-4.29-5.08-1.39-1.69-2.75-3.4-4.13-5.1-1.33-1.64-2.71-3.25-3.98-4.93-.04-.06-.09-.11-.14-.16-.54-.6-1.05-1.24-1.54-1.88-.85-1.1-1.73-2.18-2.59-3.27-.85-1.08-1.76-2.12-2.51-3.28-.47-.73-.97-1.44-1.47-2.16-.99-1.43-1.99-2.85-2.97-4.29-.52-.77-1-1.56-1.51-2.33-.7-1.06-1.41-2.12-2.13-3.17-.18-.27-.18-.5-.03-.76.19-.34.38-.68.57-1.03,1.19-2.16,2.37-4.32,3.56-6.47,1.45-2.64,2.91-5.27,4.37-7.91.99-1.79,1.98-3.58,2.96-5.36,1.24-2.24,2.48-4.49,3.72-6.73,1.48-2.67,2.96-5.35,4.44-8.02,1.14-2.05,2.28-4.1,3.41-6.16,1.68-3.03,3.35-6.06,5.04-9.08.31-.55.54-1.12.72-1.72.06-.21.07-.4-.16-.52-.63-.33-1.17-.8-1.78-1.16-.1-.06-.2-.15-.31-.05-.11.1-.14.22-.05.35.03.05.06.1.08.15.02.08-.03.16-.11.13-.31-.09-.63-.02-.95-.05-.04,0-.09,0-.13-.03-.45-.27-.93-.11-1.4-.07-.19.01-.37.05-.56.07-.21.02-.36-.07-.44-.28-.03-.08.02-.18-.1-.23-.08.02-.18.15-.27.06-.2-.22-.42-.11-.6-.04-.22.09-.42.07-.62.02-.17-.17-.31-.39-.35-.62.03.01.06.04.09.08.06.07.09.08.17.03.16-.11.39-.11.48-.33.03-.07.11-.08.19-.1.21-.05.37,0,.53.18.22.25.49.16.56-.16.03-.12.1-.12.18-.14.22-.05.28-.18.19-.39-.03-.06-.08-.13,0-.19.14-.02.18.14.29.17.06.02.12,0,.15-.05.08-.17-.14-.7-.33-.76-.16-.05-.33-.1-.36-.27-.05-.28-.25-.27-.46-.28-.58-.02-1.16-.05-1.74-.07-.68-.02-1.36-.05-2.04-.06-.43,0-.62.28-.46.63-.18.05-.35.12-.5.25-.25.22-.37.55-.59.8-.19.21-.44.35-.62.55-.19.21-.29.54-.13.76.22.3.68.19,1.04.08.36-.11.87-.11.96.26.06.23-.12.45-.2.68-.13.38.05.84.4,1.03.45-.46,1.4-.08,1.42.56.01.38-.23.71-.43,1.03-.44.69-.75,1.46-.93,2.26-.15.3-.31.6-.5.89-.39.58-.66,1.23-1.08,1.78-.06.08-.09.18-.11.28-.06.28-.19.52-.33.75-.23.36-.38.75-.57,1.12-.3.57-.66,1.11-.92,1.71-.05.12-.16.22-.31.18-.23-.06-.35.02-.43.24-.04.11-.12.2-.23.25-.14.05-.07-.24-.26-.15-.03.06-.07.14-.1.22-.08.19-.18.28-.41.36-.26.09-.57.25-.68.59-.07.24-.16.5-.35.64-.35.25-.54.65-.91.86-.04.03-.1.06-.06.12-.32.19-.56.56-.67.93-.15.52-.16,1.08-.39,1.57-.05.12-.12.23-.21.33,0,0,0,0,0,0-.06-.02-.14,0-.12.07,0,.02,0,.03.01.05-.19.17-.41.29-.65.31-.03-.13.09-.21.17-.31.06-.06.15-.11.07-.25-.06.02-.11.05-.15.08.08-.16.12-.35.1-.53-1.2.17-.9,2.53-2.1,2.71-.13.02-.27,0-.38-.07-.03-.02-.06-.05-.08-.08.02-.03.04-.05.06-.08.08-.1.16-.21.18-.34.06-.36.27-.63.5-.9.06-.08.17-.13.15-.25-.08-.34.14-.58.26-.85.09-.19.21-.37.27-.55-.06-.08-.1-.07-.14-.05-.22.1-.39.23-.43.5-.03.16-.11.38-.28.32-.2-.08-.37.05-.54,0-.05-.09-.03-.17,0-.22.41-.69.74-1.43,1.13-2.14.19-.34.4-.74.46-1.23-.09.15-.17.26-.24.39-.96,1.74-1.89,3.49-2.87,5.21-1.2,2.1-2.34,4.24-3.49,6.36-.69,1.27-1.37,2.55-2.03,3.84-.5.97-1.09,1.87-1.56,2.85-.19.39-.37.79-.62,1.14-.46.64-.83,1.33-1.21,2.01-1.22,2.19-2.42,4.39-3.62,6.59-.05.08-.08.19-.21.21-.1-.12-.07-.27-.08-.41-.08-1.61-.16-3.21-.24-4.82-.15-2.88-.3-5.76-.45-8.64-.15-2.87-.3-5.73-.46-8.6-.17-3.21-.35-6.42-.51-9.64-.07-1.53-.21-3.06-.27-4.6-.08-2.07-.11-4.14-.35-6.2-.01-.11,0-.23-.03-.35-.03-.14-.12-.25-.28-.18-.17.08-.33.08-.49-.02-.13-.08-.26-.02-.36.07-.19.19-.42.17-.65.13-.13-.02-.24-.08-.38-.05-.48.12-.97.06-1.46.14-.24.04-.47.05-.67.2-.06.04-.14.11-.19.04-.2-.27-.39-.15-.59-.02-.05.03-.1.07-.16.06-.56-.11-1.1.04-1.64.18v-.4c.07-.11.08-.27.05-.53-.03-.24-.1-.49.05-.72.03-.05.03-.1,0-.16-.13-.28-.09-.58-.05-.86.05-.35.07-.35-.21-.52q-.3-.18-.11-.47c.15-.23.09-.36-.18-.36-.64,0-1.27.01-1.91.05-.68.04-1.36.06-2.04.11-.21.02-.43-.02-.65,0-.54.07-1.09.17-1.64.15-1.48-.05-2.95.17-4.42.15-.94,0-1.88.1-2.82.08-1.28-.03-2.55.04-3.82.06-.19,0-.37.03-.55.11-1.66.68-3.32,1.37-4.98,2.05-1.02.42-2.04.82-3.06,1.24-1.01.41-2.01.84-3.01,1.25-.24.1-.41.25-.52.49ZM315.28,77.93s-.04.1-.06.15c0,.01,0,.03-.01.04-.05,0-.09-.02-.14-.04.08-.04.15-.09.21-.16Z"/>
      <path d="M393.8,157.78s.07,0,.11,0h2.72v2.72c0,.49.19.95.54,1.3.35.35.81.54,1.3.54h0c.49,0,.95-.19,1.3-.54.35-.35.54-.81.54-1.3v-2.72h2.72s.07,0,.1,0c.03,0,.07,0,.1,0h2.72v2.72c0,.49.19.95.54,1.3.35.35.81.54,1.3.54h0c.49,0,.95-.19,1.3-.54.35-.35.54-.81.54-1.3v-2.72h2.72s.07,0,.09,0c.04,0,.07,0,.11,0h2.72v2.72c0,1.01.82,1.84,1.84,1.84.49,0,.95-.19,1.3-.54.35-.35.54-.81.54-1.3v-2.72h2.72c.49,0,.95-.19,1.3-.54.02-.02.03-.03.05-.05.02-.01.04-.03.05-.05.35-.35.54-.81.54-1.3v-2.72h2.72c.49,0,.95-.19,1.3-.54.02-.02.03-.03.05-.05.02-.01.04-.03.05-.05.35-.35.54-.81.54-1.3v-2.72h2.72c.49,0,.95-.19,1.3-.54.02-.02.03-.03.05-.06.02-.01.04-.03.05-.05.35-.35.54-.81.54-1.3v-2.72h2.72c.49,0,.95-.19,1.3-.54.02-.02.03-.03.05-.05.02-.01.04-.03.05-.05.35-.35.54-.81.54-1.3v-2.72h2.72c.49,0,.95-.19,1.3-.54.35-.35.54-.81.54-1.3,0-1.01-.83-1.84-1.84-1.84h-2.72v-2.72s0-.07,0-.1c0-.03,0-.07,0-.11v-2.72h2.72c.49,0,.95-.19,1.3-.54.35-.35.54-.81.54-1.3,0-.49-.19-.95-.54-1.3-.35-.35-.81-.54-1.3-.54h-2.72v-2.72s0-.07,0-.1c0-.04,0-.07,0-.11v-2.72h2.72c.49,0,.95-.19,1.3-.54.35-.35.54-.81.54-1.3,0-.49-.19-.95-.54-1.3-.35-.35-.81-.54-1.3-.54h-2.73v-2.72s0-.07,0-.1c0-.03,0-.07,0-.1v-2.72h2.72s0,0,0,0c.49,0,.95-.19,1.3-.54.35-.35.54-.81.54-1.3,0-.49-.19-.95-.54-1.3-.35-.35-.81-.54-1.3-.54h-2.73v-2.73s0-.07,0-.09c0-.04,0-.07,0-.11v-2.72h2.72c.49,0,.95-.19,1.3-.54.35-.35.54-.81.54-1.3,0-.49-.19-.95-.54-1.3-.35-.35-.81-.54-1.3-.54h-2.73v-2.72c0-.49-.19-.95-.54-1.3-.02-.02-.04-.04-.04-.04-.02-.02-.03-.04-.06-.07-.35-.35-.81-.54-1.3-.54h-2.73v-2.72c0-.49-.19-.95-.54-1.3-.35-.35-.81-.54-1.3-.54h0c-.98,0-1.84.86-1.84,1.84v2.72h-2.72c-.41,0-.82.16-1.13.42-.51.34-.81.91-.81,1.52v2.72h-2.72c-.51,0-1.01.22-1.33.58-.39.35-.61.84-.61,1.36v2.72h-2.72s0,0,0,0c-.61,0-1.18.3-1.5.78-.28.34-.44.75-.44,1.16v2.72h-2.72c-.5,0-.99.22-1.32.59-.39.36-.62.85-.62,1.35v2.72h-2.72c-.98,0-1.84.86-1.84,1.84,0,.49.19.95.54,1.3.35.35.81.54,1.3.54h2.73v2.72c0,.49.19.95.54,1.3.02.02.03.03.06.05.01.02.03.04.05.05.35.35.81.54,1.3.54h2.73v2.72s0,.07,0,.1c0,.03,0,.07,0,.1v2.72h-2.72s0,0,0,0c-.5,0-.99.22-1.32.59-.39.36-.62.85-.62,1.35v2.72h-2.73c-.5,0-.99.22-1.32.59-.39.36-.62.85-.62,1.35v2.72h-2.72s-.07,0-.09,0c-.04,0-.07,0-.11,0h-2.72v-2.72c0-.49-.19-.95-.54-1.3-.35-.35-.81-.54-1.3-.54h0c-1.01,0-1.84.82-1.84,1.84v2.72h-2.72s-.07,0-.09,0c-.04,0-.07,0-.11,0h-2.72s0-2.72,0-2.72c0-.49-.19-.95-.54-1.3-.02-.02-.04-.04-.06-.05-.35-.37-.83-.59-1.34-.59h-2.72v-2.72s0-.07,0-.09c0-.04,0-.07,0-.11v-2.72h2.72c.49,0,.95-.19,1.3-.54.02-.02.03-.04.05-.06.02-.01.04-.03.05-.05.35-.35.54-.81.54-1.3v-2.72h2.72c.49,0,.95-.19,1.3-.54.02-.02.03-.03.05-.06.02-.02.04-.03.05-.05.35-.35.54-.81.54-1.3v-2.72h2.72c.49,0,.95-.19,1.3-.54.02-.02.04-.04.04-.04.02-.02.04-.03.07-.06.35-.35.54-.81.54-1.3v-2.72h2.72c.49,0,.95-.19,1.3-.54.02-.02.03-.03.05-.05.02-.01.04-.03.05-.05.35-.35.54-.81.54-1.3v-2.72h2.72c.49,0,.95-.19,1.3-.54.02-.02.03-.04.05-.06.02-.02.04-.03.05-.05.35-.35.54-.81.54-1.3v-2.72h2.72c.49,0,.95-.19,1.3-.54.02-.02.03-.03.05-.05.02-.02.04-.03.05-.05.35-.35.54-.81.54-1.3v-2.72h2.72c.49,0,.95-.19,1.3-.54.35-.35.54-.81.54-1.3,0-.49-.19-.95-.54-1.3-.35-.35-.81-.54-1.3-.54h-2.73v-2.72s0-.07,0-.1c0-.04,0-.07,0-.11v-2.72h2.72c.49,0,.95-.19,1.3-.54.35-.35.54-.81.54-1.3,0-.49-.19-.95-.54-1.3-.35-.35-.81-.54-1.3-.54h-2.73v-2.72s0-.07,0-.1c0-.03,0-.07,0-.1v-2.72h2.72c.49,0,.95-.19,1.3-.54.35-.35.54-.81.54-1.3s-.19-.95-.54-1.3c-.35-.35-.81-.54-1.3-.54h-2.73v-2.72c0-.49-.19-.95-.54-1.3-.02-.02-.03-.03-.05-.05-.02-.02-.03-.04-.05-.06-.35-.35-.81-.54-1.3-.54h-2.73v-2.72c0-.49-.19-.95-.54-1.3-.02-.02-.03-.03-.06-.05-.01-.02-.03-.04-.05-.05-.35-.35-.81-.54-1.3-.54h-2.73v-2.72c0-.49-.19-.95-.54-1.3-.35-.35-.81-.54-1.3-.54h0c-.98,0-1.84.86-1.84,1.84v2.72h-2.72s-.07,0-.09,0c-.04,0-.07,0-.11,0h-2.72v-2.72c0-.49-.19-.95-.54-1.3-.02-.02-.03-.03-.05-.05-.02-.02-.03-.04-.05-.05-.35-.35-.81-.54-1.3-.54h-2.73v-2.72c0-.49-.19-.95-.54-1.3-.35-.35-.81-.54-1.3-.54h0c-1.01,0-1.84.82-1.84,1.84v2.72h-2.72s-.07,0-.09,0c-.04,0-.07,0-.11,0h-2.72s0-2.73,0-2.73c0-1.01-.83-1.84-1.84-1.84-1.01,0-1.84.83-1.84,1.84v2.72h-2.72s-.07,0-.09,0c-.04,0-.06,0-.11,0h-2.72v-2.72c0-.49-.19-.95-.54-1.3-.35-.35-.81-.54-1.3-.54h0c-.98,0-1.84.86-1.84,1.84v2.72h-2.72s-.07,0-.09,0c-.04,0-.07,0-.11,0h-2.72v-2.72c0-.49-.19-.95-.54-1.3s-.81-.54-1.3-.54h0c-.98,0-1.84.86-1.84,1.84v2.72h-2.72c-.41,0-.82.15-1.13.42-.51.34-.81.91-.81,1.52v2.72h-2.73c-.5,0-.99.22-1.32.59-.39.36-.62.85-.62,1.35v2.72h-2.72c-.5,0-.99.22-1.32.59-.39.36-.62.85-.62,1.35v2.72h-2.72c-.41,0-.82.15-1.13.41-.51.34-.81.91-.81,1.52v2.72h-2.72c-.41,0-.82.15-1.13.42-.51.34-.81.91-.81,1.52v2.72h-2.72c-.61,0-1.18.3-1.5.78-.28.34-.44.75-.44,1.16v2.72h-2.72c-.98,0-1.84.86-1.84,1.84,0,.49.19.95.54,1.3.35.35.81.54,1.3.54h2.73v2.72s0,.07,0,.09c0,.04,0,.07,0,.11v2.72h-2.72c-.98,0-1.84.86-1.84,1.84,0,.49.19.95.54,1.3.35.35.81.54,1.3.54h2.73v2.72s0,.06,0,.11c0,.03,0,.06,0,.1v2.72h-2.72c-.98,0-1.84.86-1.84,1.84,0,.49.19.95.54,1.3.35.35.81.54,1.3.54h2.72v2.72s0,.07,0,.09c0,.04,0,.07,0,.11v2.72h-2.72c-.98,0-1.84.86-1.84,1.84,0,.49.19.95.54,1.3.35.35.81.54,1.3.54h2.73v2.72s0,.07,0,.09c0,.04,0,.07,0,.11v2.72h-2.72c-.98,0-1.84.86-1.84,1.84,0,.49.19.95.54,1.3.35.35.81.54,1.3.54h2.72v2.72c0,.49.19.95.54,1.3.02.02.05.04.05.04.02.02.04.05.06.07.35.35.81.54,1.3.54h2.73v2.72c0,.49.19.95.54,1.3.02.02.03.03.05.05.02.02.03.04.05.05.35.35.81.54,1.3.54h2.73v2.72c0,.49.19.95.54,1.3.02.02.04.04.05.04.02.02.04.05.06.07.35.35.81.54,1.3.54h2.73v2.72c0,.49.19.95.54,1.3.02.02.04.04.05.04.02.02.04.05.06.07.35.35.81.54,1.3.54h2.73v2.72c0,.49.19.95.54,1.3.02.02.03.03.05.04.02.02.03.04.05.05.35.35.81.54,1.3.54h2.73v2.72c0,.49.19.95.54,1.3.02.02.04.03.06.05.35.37.83.59,1.34.59h2.72v2.73c0,1.01.83,1.84,1.84,1.84.49,0,.95-.19,1.3-.54.35-.35.54-.81.54-1.3v-2.72h2.72s.07,0,.1,0c.04,0,.07,0,.11,0h2.72v2.72c0,.49.19.95.54,1.3.35.35.81.54,1.3.54h0c.49,0,.95-.19,1.3-.54.35-.35.54-.81.54-1.3v-2.72h2.72s.07,0,.1,0c.03,0,.07,0,.1,0h2.72v2.72c0,.49.19.95.54,1.3.35.35.81.54,1.3.54h0c.49,0,.95-.19,1.3-.54.35-.35.54-.81.54-1.3v-2.72h2.72s.07,0,.1,0c.04,0,.07,0,.11,0h2.72v2.73c0,.49.19.95.54,1.3.35.35.81.54,1.3.54h0c.49,0,.95-.19,1.3-.54.35-.35.54-.81.54-1.3v-2.72h2.72s.07,0,.1,0ZM385.71,91.91s-.02.02-.04.05c-.35.35-.81.54-1.3.54h-2.72v2.72c0,.49-.19.95-.54,1.3-.02.02-.04.03-.05.05-.01.02-.03.04-.04.05-.35.35-.81.54-1.3.54h-2.72v2.72c0,.49-.19.95-.54,1.3-.02.02-.04.04-.07.06,0,0-.01.02-.03.04-.35.35-.81.54-1.3.54h-2.72v2.72c0,.49-.19.95-.54,1.3-.02.02-.04.04-.06.06,0,0-.02.03-.04.05-.35.35-.81.54-1.3.54h-2.72v2.72c0,.49-.19.95-.54,1.3-.02.02-.04.03-.05.05-.02.02-.03.04-.05.06-.34.34-.81.54-1.3.54h-2.72v2.72c0,.49-.19.95-.54,1.3-.01.02-.03.03-.05.05-.02.02-.03.04-.05.05-.35.35-.81.54-1.3.54h-2.72v2.72c0,.49-.19.95-.54,1.3l-1.3.54c-.49,0-.95-.19-1.3-.54-.35-.35-.54-.81-.54-1.3v-2.72h-2.73c-.49,0-.95-.19-1.3-.54-.02-.02-.03-.04-.05-.05-.02-.02-.04-.03-.05-.05-.35-.35-.54-.81-.54-1.3v-2.72h-2.73c-.49,0-.95-.19-1.3-.54-.35-.35-.54-.81-.54-1.3,0-.98.86-1.84,1.84-1.84h2.72v-2.72s0-.07,0-.1c0-.04,0-.07,0-.1v-2.72h-2.73c-.49,0-.95-.19-1.3-.54-.35-.35-.54-.81-.54-1.3,0-1.01.82-1.84,1.84-1.84h2.72v-2.72s0-.07,0-.11c0-.02,0-.06,0-.09v-2.72h-2.72c-1.01,0-1.84-.83-1.84-1.84s.86-1.84,1.84-1.84h2.72v-2.72c0-.61.3-1.18.81-1.52.31-.26.72-.42,1.13-.42h2.72v-2.72c0-.5.22-.99.62-1.35.34-.37.83-.59,1.32-.59h2.72v-2.72c0-.98.86-1.84,1.84-1.84s1.84.82,1.84,1.84v2.73h2.72s.07,0,.11,0c.02,0,.06,0,.09,0h2.72v-2.72c0-.61.3-1.18.81-1.52.31-.26.72-.42,1.13-.42h2.72v-2.72c0-.98.86-1.84,1.84-1.84h0c.49,0,.95.19,1.3.54.35.35.54.81.54,1.3v2.72h2.72s.07,0,.11,0c.02,0,.06,0,.09,0h2.72v-2.72c0-.98.86-1.84,1.84-1.84h0c.49,0,.95.19,1.3.54.35.35.54.81.54,1.3v2.72h2.72c.49,0,.95.19,1.3.54.02.02.03.04.05.05.02.02.04.03.05.05.35.35.54.81.54,1.3v2.72h2.73c.49,0,.95.19,1.3.54.35.35.54.81.54,1.3,0,.49-.19.95-.54,1.3-.35.35-.81.54-1.3.54h-2.72v2.72c0,.49-.19.95-.54,1.3-.02.02-.04.04-.07.06,0,0-.01.02-.03.04-.35.35-.81.54-1.3.54h-2.72v2.72c0,.49-.19.95-.54,1.3-.02.02-.04.04-.07.06Z"/>
      <path d="M397.5,197.93c3.15,0,5.76,2.29,6.26,5.3,10.5-1.53,32.34-4.26,43.22-2.25,14.65,2.71,32.65,3.08,32.65,3.08l-1.27-28.82s-25.21-3.66-48.73-7.44c-23.52-3.78-37.59,7.95-37.59,7.95l4.56,22.25c.3-.04.59-.07.9-.07Z"/>
      <path d="M440.88,250.84l-18.31-4.18h-23.77c0,3.32-2.54,6.04-5.79,6.32l2.51,28.05,95.71-.8-16.79-29.82-33.56.42Z"/>
      <path d="M397.5,210.64c-.13,0-.25-.01-.38-.02l-3.95,29.73c2.88.33,5.16,2.57,5.56,5.42h38.15l26.27-19.49v-14.66l-48.47-8.92-10.83,1.51s0,.05,0,.08c0,3.51-2.84,6.35-6.35,6.35Z"/>
      <polygon points="498.74 81.89 498.74 81.89 498.74 81.88 498.74 81.88 498.74 81.89"/>
      <polygon points="476.6 123.33 476.6 123.33 476.6 123.33 476.6 123.33 476.6 123.33"/>
      <polygon points="476.16 122.5 476.17 122.5 476.17 122.5 476.16 122.5 476.16 122.5"/>
      <path d="M480.25,117.94c1.02.09,1.92-.67,2.01-1.69.09-1.02-.67-1.92-1.69-2.01-1.02-.09-1.92.67-2.01,1.69-.09,1.02.67,1.92,1.69,2.01Z"/>
      <path d="M525.94,91.28c-.24-.13-.65-.35-.69-.42.05-.1.48-.29.73-.41.54-.24.97-.43.97-.76,0-.33-.44-.52-.99-.75-.25-.11-.68-.29-.73-.35.04-.11.44-.34.68-.48.52-.29.92-.53.89-.86-.04-.33-.49-.47-1.06-.65-.26-.08-.7-.22-.76-.28.03-.11.41-.38.63-.54.48-.34.87-.62.8-.94-.07-.33-.53-.42-1.11-.54-.27-.06-.72-.15-.78-.2.02-.11.37-.42.58-.6.45-.39.8-.7.7-1.02-.1-.32-.57-.37-1.16-.43-.27-.03-.73-.08-.8-.12,0-.11.33-.45.52-.65.41-.43.73-.77.6-1.08-.13-.31-.6-.31-1.2-.31-.28,0-.74,0-.81-.04,0-.11.28-.48.45-.7.36-.47.65-.84.49-1.13-.16-.29-.63-.25-1.22-.19-.27.03-.73.07-.81.04-.02-.11.23-.51.38-.74.32-.5.57-.9.38-1.18-.19-.27-.65-.19-1.23-.07-.27.05-.72.14-.8.12-.03-.11.18-.53.3-.77.27-.53.48-.95.26-1.21-.21-.26-.67-.12-1.24.05-.27.08-.71.21-.79.19-.04-.11.13-.54.23-.8.21-.56.38-1,.14-1.23-.24-.23-.67-.06-1.22.17-.26.1-.68.28-.76.27h0c-.05-.1.07-.55.15-.82.16-.57.28-1.03.02-1.24-.26-.21-.67,0-1.2.29-.24.13-.65.34-.74.34-.06-.1.02-.55.07-.83.1-.59.18-1.05-.1-1.23-.28-.18-.67.08-1.17.4-.23.15-.62.41-.7.41-.07-.09-.03-.55-.01-.83.04-.59.07-1.06-.22-1.22-.29-.15-.66.14-1.12.52-.22.17-.58.47-.66.48-.07-.09-.09-.55-.1-.82-.02-.6-.03-1.07-.34-1.19-.31-.12-.64.21-1.06.62-.2.19-.53.52-.6.54-.08-.08-.14-.54-.18-.81-.08-.59-.14-1.06-.46-1.15-.32-.09-.62.27-1,.73-.18.21-.47.57-.55.6-.09-.07-.19-.52-.26-.79-.13-.58-.24-1.04-.57-1.1-.33-.07-.59.33-.92.82-.16.23-.42.61-.49.65-.1-.06-.24-.5-.33-.76-.05-.16-.1-.31-.16-.44l.15-1.75-2.2-2.29-44.73-3.91-2.43,1.89c-1.11,12.72-.95,10.91-.98,11.19-.13,1.53-.27,3.06-.4,4.59-.06.67-.18,1.34-.21,2.01-.03.84-.16,1.68-.22,2.51-.05.79-.1,1.59-.18,2.38-.12,1.19-.2,2.39-.3,3.58-.22,2.49-.44,4.97-.66,7.46-.4,4.62-.81,9.24-1.21,13.86-.23,2.68-.45,5.37-.72,8.05-.15,1.5-.28,3-.42,4.5-.09,1.01-.19,2.01-.26,3.02-.32,4.61-.79,9.21-1.17,13.81-.02.22-.02.45-.17.64-.08.1-.06.22,0,.34.14.29.06.72-.17.96-.06.06-.12.12-.17.19-.09.14-.08.29.05.4.1.09.23.17.21.34-.02.21,0,.44-.18.6-.05.04-.09.09-.14.14-.2.22-.19.34.04.53.11.09.16.2.14.34-.03.27,0,.56-.21.8-.08.1-.1.26-.01.37.11.14.1.3.08.45-.14,1.64-.29,3.28-.43,4.92-.18,2.07-.33,4.14-.56,6.21-.21,1.92-.35,3.84-.54,5.75-.03.35.02.63.24.91.31.38.58.78.85,1.18.14.21.31.29.56.31,2,.17,4.01.35,6.01.52,6.92.61,13.83,1.21,20.75,1.82,6.12.54,12.25,1.07,18.37,1.61l2.66-1.52.78-8.87c-.84-.88-1.81-1.92-3.09-3.16-5.34-5.12-17.95-25.35-19.99-29.55-2.04-4.19-3.73-8.96,1.14-13.05,4.87-4.09,9.77-2.66,15.11,3.93,2.42,2.98,5.91,8.9,9.01,14.49l1.22-13.95c.13-.16.25-.39.38-.63.13-.24.35-.65.42-.69.1.05.29.48.41.73.24.54.43.98.76.97.33,0,.52-.44.75-.99.11-.25.29-.68.35-.73.11.04.34.44.48.68.29.52.53.92.86.89.33-.04.47-.49.65-1.06.08-.26.22-.7.28-.76.11.03.38.41.54.63.34.48.62.87.94.8.33-.07.42-.53.54-1.11.06-.27.15-.72.2-.78.11.02.42.37.6.58.39.45.7.8,1.02.7.32-.1.37-.57.43-1.16.03-.27.08-.73.12-.8,0,0,0,0,0,0,.12.01.45.33.65.52.43.41.78.73,1.08.6.31-.13.31-.6.31-1.2,0-.28,0-.74.04-.81.12,0,.48.28.7.45.47.36.84.65,1.13.49.29-.16.25-.63.19-1.22-.03-.28-.07-.74-.04-.81.12-.01.51.23.74.38.5.32.9.57,1.18.38.27-.19.19-.65.07-1.23-.05-.27-.14-.73-.12-.8.11-.02.53.18.77.3.53.27.95.47,1.21.26.26-.21.12-.66-.05-1.24-.08-.27-.21-.71-.19-.79.11-.04.54.13.8.23.56.21,1,.38,1.23.14.23-.24.06-.67-.17-1.22-.1-.26-.28-.68-.27-.77.11-.05.55.08.82.15.57.16,1.03.28,1.24.02.21-.26,0-.68-.29-1.2-.13-.24-.34-.65-.34-.74.1-.06.55.02.83.07.59.1,1.05.18,1.23-.1.18-.28-.08-.67-.4-1.17-.15-.23-.41-.62-.41-.7.09-.07.55-.03.83-.01.59.04,1.06.07,1.22-.22.15-.29-.14-.66-.52-1.12-.17-.22-.47-.58-.48-.66.09-.08.55-.09.82-.1.6-.02,1.07-.03,1.19-.34.12-.31-.21-.64-.62-1.06-.19-.2-.52-.53-.54-.6.08-.08.54-.14.81-.18.59-.08,1.06-.14,1.15-.46.09-.32-.27-.62-.73-1-.21-.18-.57-.47-.6-.55.07-.09.52-.19.79-.26.58-.13,1.04-.24,1.1-.57.06-.33-.33-.59-.82-.92-.23-.16-.61-.42-.65-.49.06-.1.5-.24.76-.33.57-.19,1.01-.34,1.04-.67s-.39-.56-.91-.84ZM511.16,91.32c-.6-.4-1.29-.68-2-.81-.66-.12-1.35-.12-1.99-.33-.17-.05-.34-.13-.45-.27-.04-.05-.06-.1-.08-.16.02-.11.04-.22.05-.33.06-.68-.08-1.33-.36-1.89-.02-.12-.03-.24-.05-.36.98-.62,1.96-1.25,2.94-1.87.4-.25.79-.51,1.16-.8.16.25.3.5.43.78.11.23.07.48.18.69.45.91.52,1.91.57,2.9M503.53,92.82c0-.05,0-.11.04-.16,0,0,0,0,.01-.01.02,0,.05,0,.07,0-.05.06-.08.11-.11.17ZM498.74,81.88s0,0,0,0c.6-.28,1.15-.65,1.78-.87.26-.09.51-.21.78-.24.03,0,.05.01.08.02.06.02.11,0,.16-.03.09,0,.19.03.28.07.07.03.15,0,.21-.06.2-.21.46-.21.71-.22,1.09-.05,2.16.03,3.19.42.31.12.62.23.93.34.07.03.14.05.21.09,1.13.68,2.14,1.49,2.92,2.52-.14.08-.28.16-.42.24,0-.01-.01-.02-.02-.03-.12-.14-.26-.05-.36.04-.48.44-1.11.67-1.59,1.14-.11.11-.23.22-.36.32-.46.33-.91.67-1.35,1.02-.06.02-.11.02-.16,0-.58-.62-1.39-1.04-2.3-1.12-.04,0-.07,0-.11,0-.04-.14-.06-.29-.07-.43-.05-.59.05-1.17.03-1.76s-.16-1.21-.6-1.61c-.04-.04-.09-.07-.14-.1-.02-.1-.08-.19-.2-.18-.11,0-.16.08-.19.16-.02,0-.03.01-.05.02,0,0,0-.02,0-.03-.02-.11-.07-.2-.21-.2-.13,0-.19.1-.2.21-.02.13-.02.27,0,.4,0,.03,0,.05,0,.08-.14.34-.14.76-.06,1.13.12.56.36,1.12.27,1.68-.04.27-.16.51-.32.73-.71.22-1.34.66-1.78,1.25-.11-.01-.22-.04-.32-.08-.96-.32-1.86-.81-2.65-1.45-.08-.07-.17-.15-.19-.26-.02-.11.04-.22.11-.31.59-.88,1.44-1.7,1.65-2.7.1-.08.2-.16.31-.23,0,0,0,0,0,0h0ZM501.26,97.14c-1.63-.41-3.03-1.23-4.2-2.43-.15-.15-.28-.31-.39-.49-.16-.26-.35-.48-.57-.69-.12-.4-.35-.76-.52-1.14-.41-.92-.58-1.89-.64-2.89-.05-.86.03-1.7.23-2.52.19.02.39.04.58.06,1.15.13,2.28.48,3.29,1.03.06.03.12.07.18.11-.05.18-.08.37-.1.57-.16,1.83,1.09,3.46,2.84,3.82,0,0,0,0,0,0h0c.13.03.27.05.41.06.02,0,.04,0,.06,0,.14.69.07,1.48-.02,2.19-.09.66-.17,1.32-.26,1.98-.02.17-.04.35.02.5-.3-.04-.6-.09-.9-.17ZM509.11,94.75c-.85.86-1.76,1.64-2.94,2.04-.33.11-.65.23-.98.32-.19.05-.38.08-.58.06-.21-.02-.33-.13-.36-.34,0-.04-.01-.09,0-.13.08-.61-.07-1.21-.15-1.81-.07-.6-.15-1.19-.23-1.79-.02-.15-.02-.31-.15-.46.94-.16,1.77-.69,2.32-1.44.14-.04.27-.07.42-.08.31,0,.62.1.91.2,1.09.38,2.18.77,3.28,1.15,0,0,.02,0,.03.01-.4.83-.9,1.6-1.56,2.27Z"/>
      <path d="M500.96,133.79h0c-4.66-7.82-11.64-17.8-13.93-20.44-.06-.07-.12-.13-.18-.2,0,.01,0,.02-.02.03-.02-.03-.03-.05-.03-.08-.1-.1-.19-.21-.29-.31-.16.06-.24.02-.3-.06-.04-.05-.08-.11-.07-.18,0-.05,0-.09,0-.14-.6-.57-1.22-1.04-1.86-1.42-.03.01-.05.02-.08.04-.06.03-.13.05-.18-.02-.04-.06,0-.1.04-.14-.07-.04-.13-.07-.2-.11-.12.18-.16.39-.2.59-.02.13.09.2.23.15.12-.04.21-.13.29-.21.07-.06.14-.14.24-.08.1.06.09.16.07.25-.02.1-.07.19-.1.29-.02.07-.09.13-.05.21.06.03.11-.03.16-.04.05,0,.17-.12.15.07,0,.03.04.03.07.02.06-.03.12-.05.18-.08.06-.03.09-.15.18-.07.07.06.11.15.08.25-.02.07-.06.14-.09.2-.03.06-.07.11-.1.17-.07.17,0,.28.19.27.13,0,.26-.04.38-.1.12-.06.15.01.17.1.04.17-.09.28-.17.39-.07.09-.18.14-.15.32.14-.11.28-.13.44-.11.27.04.37.28.2.49-.07.09-.15.16-.24.25.11.09.23.06.33.08.12.02.23.05.25.19.02.14.06.27-.08.39-.09.07-.19.11-.25.21.05.11.16.11.24.13.13.03.24.07.25.22,0,.16-.02.3-.17.38-.07.04-.15.07-.23.11-.08.04-.13.11-.12.2.01.09.08.12.16.14.09.02.18.05.26.1.17.11.17.25,0,.34-.11.06-.23.09-.34.13-.08.02-.14.05-.16.14-.02.1.04.15.12.2.09.05.18.1.26.16.14.12.11.24-.06.28-.11.03-.22.03-.33.04-.1,0-.19.03-.22.13-.04.1.02.18.09.25.08.07.18.14.25.22.1.11.06.21-.09.24-.11.02-.22,0-.33-.01-.1-.02-.19-.01-.25.08-.06.11-.03.19.04.28.07.1.15.19.21.3.07.12.03.19-.12.19-.12,0-.24-.03-.36-.07-.09-.03-.18-.05-.25.05-.06.09-.04.18.01.26.05.08.1.16.15.24.03.07.08.14.02.21-.06.08-.15.06-.23.03-.1-.03-.19-.07-.29-.11-.08-.04-.16-.04-.23.03-.06.07-.08.15-.04.23.05.11.11.22.14.34.04.15-.05.23-.21.18-.12-.04-.22-.11-.31-.18-.07-.06-.15-.08-.23-.02-.08.06-.1.13-.08.22.03.12.08.23.07.36,0,.18-.11.24-.26.15-.07-.04-.13-.1-.19-.16-.08-.08-.15-.14-.27-.09-.11.05-.12.16-.11.26,0,.07.01.13.01.2,0,.09,0,.2-.09.25-.11.05-.17-.04-.24-.1-.05-.05-.1-.11-.15-.17-.06-.07-.12-.15-.23-.12-.12.03-.12.13-.13.22-.02.11-.04.22-.07.33-.07.19-.17.21-.29.04-.06-.07-.1-.16-.15-.24-.05-.09-.13-.14-.23-.12-.1.02-.13.1-.15.18-.02.08-.04.16-.07.24-.03.08-.06.16-.17.16-.1,0-.15-.06-.19-.14-.03-.08-.06-.16-.1-.23-.09-.19-.24-.2-.36-.02-.04.06-.06.14-.1.2-.05.1-.09.23-.22.22-.15-.02-.15-.17-.18-.28-.02-.06-.02-.13-.04-.19-.06-.19-.21-.22-.33-.07-.06.07-.1.16-.15.23-.05.08-.12.15-.23.13-.13-.02-.15-.13-.17-.23,0-.06,0-.11,0-.17,0-.09,0-.2-.11-.24-.11-.04-.17.03-.23.11-.07.09-.14.18-.24.24-.14.08-.23.04-.27-.11-.03-.11,0-.22.01-.33.01-.1,0-.19-.11-.24-.1-.04-.16.02-.22.08-.06.06-.13.11-.2.16-.07.05-.15.09-.23.04-.09-.06-.1-.15-.09-.25,0-.06.03-.13.04-.19.02-.1.05-.21-.06-.28-.1-.06-.18,0-.25.06-.06.03-.11.07-.17.1-.1.05-.2.07-.29-.01-.08-.07-.08-.17-.06-.26.02-.1.07-.19.08-.29.03-.18-.03-.22-.2-.16-.1.03-.19.08-.29.1-.18.04-.27-.06-.21-.24.04-.1.1-.2.15-.3.04-.08.08-.15.01-.23-.06-.07-.13-.06-.21-.04-.09.02-.18.04-.27.07-.1.02-.16.08-.2.18-.01.04-.03.07-.04.1-.02.07-.07.13-.1.19.02.07.05.13.07.2.06.02.13.02.19.04.13.05.19.15.17.29,0,.05-.02.09-.03.14-.01.06-.05.13-.07.19.03.07.06.15.09.22.06.02.13.02.19.04.11.04.16.12.17.24,0,.11-.03.22-.05.33,0,.02,0,.04,0,.06.03.05.05.11.08.16.03.01.06.02.1.03.28.07.35.19.27.47-.01.05-.03.1-.05.15.04.08.09.17.13.25.26,0,.38.13.32.48,0,.03-.01.06-.02.09.05.1.11.2.16.3.04,0,.08,0,.12,0,.11,0,.16.05.13.16-.02.06-.04.13-.06.19,0,0,0,0,0,0,.09.16.19.32.28.49.02,0,.03,0,.05,0,.06.02.05.07.04.12,0,0,0,.02,0,.02.13.23.27.45.41.68,0,0,0-.01.01-.02.04-.05.14-.03.2.02.04.03.06.07.04.14-.02.05-.05.11-.08.16.1.16.2.32.3.49,0,0,0,0,.01,0,.09-.02.19-.02.26.07.07.09.03.18-.03.26,0,.01-.01.02-.02.03.1.16.2.31.29.46.04-.01.08-.01.12,0,.08.02.11.09.09.15-.01.04-.02.09-.02.13.11.17.22.35.33.52.02,0,.04,0,.07,0,.13.03.1.15.09.25.6.94,1.17,1.82,1.67,2.68.54.92,1.33,2.22,2.29,3.75,0-.03,0-.05.01-.08.04.07.06.14.06.2.15.23.3.47.45.72.01-.07.03-.13.06-.21.1.11.06.21.06.3,0,.04,0,.07,0,.11.14.22.28.44.43.67,0-.1.02-.21.07-.33.11.2.1.36.06.51,0,0,0,0,0,.01.06.09.12.18.17.27.04.02.06.06.07.11.07.11.14.21.21.32.01-.07.03-.15.07-.22,0,.06.01.11,0,.17,0,.06-.01.11,0,.16.04.06.08.13.13.19.02.01.05.03.09.04.12.04.13.14.11.26.06.09.28.43.33.5.24.05.29.12.23.35.1.15.2.3.3.45.15.03.24.13.25.29,0,.02,0,.05,0,.07.09.13.18.27.27.4.28.09.29.11.27.39.08.12.17.25.25.37.05.01.09.02.14.03.19.06.23.14.21.33,0,.04-.02.07-.02.11,0,0,0,0,0,.01.06.09.13.19.19.28.02,0,.03,0,.05.01.06,0,.11,0,.17,0,.19.03.27.16.21.34-.02.06-.05.11-.06.17.07.1.14.2.21.31.07,0,.13,0,.19.02.24.04.26.07.19.29-.02.08-.04.14-.04.19.05.07.09.13.14.2.04.02.1.03.17.05.02,0,.04,0,.05.01.24.07.3.17.21.4-.02.05-.02.09-.03.12.05.07.1.14.15.22.08-.07,0-.21.13-.26,0,.2.07.33.25.42.12.06.14.17.06.28-.03.04-.04.07-.05.11.06.09.13.18.19.26,0,0,0,0,0,0,.05-.07.11-.05.18-.02.17.07.3.19.42.32.1.1.05.22.02.34-.09-.03-.06-.09-.08-.14-.01-.04-.01-.11-.07-.1-.07,0-.1.05-.11.11.07.1.15.2.22.3.03,0,.06.01.09.01.13,0,.24.02.34.1.18.13.22.26.15.51-.06-.01-.05-.07-.06-.11-.02-.06-.02-.15-.11-.13-.04,0-.07.03-.09.06.08.1.15.21.23.31.01,0,.03,0,.04,0,.07,0,.29.2.59.5l-.03.04,10.97,14.3c2.18,2.84,6.23,3.41,9.1,1.28,2.79-2.07,3.48-5.95,1.58-8.86l-12.5-19.1Z"/>
    </g>
    <circle class="cls-1" cx="502.89" cy="89.03" r="10.01"/>
    <ellipse cx="481.37" cy="117.29" rx="6.97" ry="7.46" transform="translate(39.44 341.28) rotate(-40.57)"/>
    <path d="M346.16,281.66c-.19-.15-.41-.2-.63-.08-.24.12-.38.32-.36.6,0,.09.03.18.04.27.02.17-.05.31-.17.42-.36.33-.72.32-1.08-.02-.25-.24-.4-.55-.55-.85-.16-.33-.15-.4.15-.63.4-.3.54-.67.36-1.13-.2-.49-.13-.92.14-1.35.19-.32.25-.68.3-1.03.03-.26,0-.57-.23-.66-.32-.12-.38-.31-.4-.6,0-.12-.14-.23-.22-.34-.11-.15-.23-.28-.33-.43-.15-.21-.13-.42.03-.62.19-.25.38-.51.55-.77.16-.26.13-.36-.12-.57-.15-.13-.32-.25-.46-.4-.2-.21-.19-.38-.02-.6.08-.11.19-.2.27-.3.12-.17.08-.38-.12-.44-.3-.1-.58-.23-.82-.45-.09-.08-.21-.06-.32-.05-.32.02-.33.02-.41-.28-.05-.18-.09-.35-.27-.45-.43-.26-.88-.23-1.25.1-.08.07-.15.17-.23.25-.13.12-.3.09-.4-.07-.15-.26-.22-.54-.28-.83-.2-.93-.39-1.86-.72-2.75-.18-.49-.3-.99-.42-1.5-.12-.53-.24-1.06-.35-1.59-.02-.11-.06-.22-.07-.33-.03-.25.07-.39.32-.43.13-.02.27-.02.4-.04.64-.13,1.07-.9.84-1.51-.08-.22-.13-.43-.13-.66,0-.24-.09-.44-.26-.6-.1-.09-.19-.09-.29.02-.29.31-.3.33-.57.09-.36-.32-.75-.57-1.24-.66-.34-.06-.55-.26-.65-.61-.13-.48-.32-.94-.47-1.42-.15-.46-.36-.88-.69-1.23-.19-.2-.34-.43-.42-.69-.13-.39-.14-.76.22-1.05.09-.07.16-.16.24-.24.56-.64.66-1.31.25-2.06-.26-.46-.34-.92-.23-1.43.03-.16.06-.31.02-.47-.04-.16-.21-.27-.36-.2-.16.07-.32.17-.47.26-.22.12-.42.27-.65.37-.27.12-.48.06-.64-.19-.15-.23-.27-.47-.41-.7-.35-.62-.58-1.27-.57-2,0-.27,0-.55-.13-.8-.25-.51-.38-1.06-.51-1.61-.08-.33-.21-.64-.32-.96-.09-.26-.18-.51-.25-.77-.14-.5-.24-1.01-.39-1.51-.13-.39,0-.7.2-1.02.2-.32.47-.47.85-.44.04,0,.09,0,.14,0,.4-.02.67-.25.85-.59.28-.53.14-1.21-.33-1.6-.34-.28-.74-.44-1.19-.43-.39.01-.69-.14-.95-.44-.22-.26-.49-.46-.76-.67-.77-.59-1.37-1.3-1.68-2.24-.26-.82-.5-1.64-.64-2.49-.22-1.39-.54-2.75-1.06-4.06-.15-.38-.27-.77-.4-1.15-.08-.23-.06-.45.14-.62.14-.12.27-.25.29-.44.04-.3.13-.57.35-.78.09-.09.09-.21.04-.32-.35-.74-.72-1.47-1.4-1.97-.38-.28-.65-.61-.81-1.05-.16-.43-.42-.8-.83-1.05-.24-.15-.39-.37-.52-.61-.23-.42-.35-.88-.42-1.35-.13-.83-.3-1.64-.74-2.38-.07-.12-.1-.25-.15-.38-.43-1.1-.88-2.17-1.52-3.17-.35-.55-.61-1.17-.46-1.86.02-.09,0-.18-.01-.27-.05-.29.04-.53.25-.74.26-.26.44-.57.62-.88.2-.32.25-.66.18-1.04-.09-.42-.18-.84-.35-1.24-.11-.27-.12-.52.02-.78.06-.12.11-.25.15-.38.04-.14-.08-.29-.22-.26-.18.04-.35.08-.52.15-.41.16-.83.19-1.26.23-.43.04-.68-.14-.85-.51-.14-.29-.24-.59-.3-.9-.15-.69-.44-1.33-.83-1.92-.2-.3-.38-.62-.5-.96-.22-.64-.44-1.28-.62-1.94-.11-.39-.24-.78-.39-1.15-.26-.67-.51-1.35-.68-2.06-.09-.36.03-.61.31-.82.19-.14.38-.24.61-.26.34-.04.67-.09,1.01-.14.18-.03.36-.07.53-.12.23-.08.35-.24.31-.39-.06-.19-.23-.21-.39-.2-.47.03-.71-.23-.83-.64-.08-.27-.21-.49-.41-.69-.35-.35-.54-.78-.6-1.26-.06-.41-.18-.79-.33-1.17-.21-.53-.5-1.02-.97-1.36-.28-.2-.42-.46-.49-.78-.14-.57-.28-1.14-.42-1.71-.38-1.49-.8-2.97-.94-4.51-.02-.18-.06-.36-.11-.53-.19-.64-.45-1.23-.96-1.68-.47-.42-.8-.47-1.35-.2-.06.03-.12.07-.18.1-.18.09-.36.09-.5-.05-.31-.31-.67-.52-1.08-.68-.16-.06-.23-.22-.19-.39.04-.2.11-.39.14-.59.12-.76-.29-1.29-1.05-1.35-.47-.04-.95-.02-1.39.2-.26.13-.54.23-.82.33-.47.16-.95.3-1.42.47-.36.13-.61,0-.81-.29-.04-.06-.07-.11-.11-.17-.63-.81-1.48-1.08-2.46-.93-.65.1-1.27.34-1.84.66-.31.17-.61.27-.96.28-.25,0-.54.02-.7.2-.29.33-.63.38-1.02.38-.15,0-.31.06-.46.11-.36.11-.71.11-1.06-.02-.33-.13-.66-.13-.99-.02-.13.04-.27.05-.4.06-.32.02-.45-.07-.57-.37-.1-.25-.18-.52-.31-.75-.55-.94-1.6-1.25-2.51-.78-.39.2-.57.49-.51.93.01.09.03.18.03.27.02.33-.08.44-.41.5-.51.09-1.03.15-1.54.25-.45.09-.89.14-1.34.15-.36,0-.73.02-1.08.08-.36.06-.72.07-1.08.09-.38.03-.69-.07-.98-.35-.48-.46-1.05-.78-1.67-1-.37-.13-.69-.33-.95-.63-.13-.15-.28-.3-.43-.43-.4-.32-.88-.55-1.38-.46-.68.13-1.3.48-1.65,1.09-.32.55-.74,1.1-.62,1.82.02.12-.11.2-.23.18-.31-.06-.61-.15-.89-.3-.58-.32-1.15-.36-1.72.06-.22.16-.47.27-.75.29-.68.05-1.34.19-2,.36-.45.11-.89.13-1.34.05-.29-.06-.58-.07-.88-.08-.23,0-.45-.02-.68-.04-.94-.11-1.89-.1-2.84-.06-.86.03-1.7.23-2.56.2-.09,0-.18,0-.27.03-.38.11-.75.08-1.14.01-.67-.12-1.31-.04-1.83.46-.05.05-.11.08-.16.12-.34.23-.7.41-1.14.29-.2-.06-.41-.03-.59.09-.05.03-.09.1-.11.16-.02.07.03.13.1.16.42.17.85.3,1.31.29.25,0,.5,0,.74.02.26.03.39.2.41.46.01.21-.05.4-.2.56-.16.17-.35.29-.58.34-.5.12-.85.45-1.06.88-.43.87-.68,1.78-.26,2.74.08.19.1.39.03.59-.15.45-.25.92-.46,1.34-.57,1.15-.73,2.37-.71,3.62.01.91-.07,1.8-.29,2.69-.04.15-.07.31-.1.46-.15,1.06-.44,2.08-.83,3.07-.37.94-.77,1.88-1.12,2.83-.11.29-.25.5-.51.68-.61.43-.71.77-.42,1.44.14.33.16.65.06.99-.08.28-.14.57-.21.86-.11.48-.23.96-.42,1.43-.26.63-.42,1.29-.48,1.97-.04.43-.06.88-.27,1.25-.33.58-.47,1.22-.74,1.82-.05.1-.07.22-.12.32-.08.18-.23.28-.43.27-.18-.01-.36-.04-.54-.05-.3-.02-.59.01-.85.16-.69.39-1.15.94-1.17,1.78,0,.23-.02.45,0,.68.03.4-.05.74-.32,1.07-.3.36-.26.61.05.96.21.24.48.41.75.57.16.09.2.24.14.41-.04.13-.1.25-.14.38-.24.73-.33,1.46.02,2.18.15.3.13.61.02.92-.21.58-.47,1.13-.78,1.65-.72,1.23-1.18,2.54-1.19,3.98,0,.38-.12.7-.35,1-.21.29-.43.58-.63.88-.15.22-.35.28-.59.22-.17-.04-.34-.12-.51-.17-.39-.11-.7,0-.95.32-.24.31-.34.63-.13,1,.1.18.24.34.3.53.11.36.3.65.63.85.17.1.22.28.22.47-.01.45-.02.9-.05,1.35-.05.71-.4,1.29-.82,1.83-.34.43-.65.87-.91,1.35-.18.33-.39.52-.77.57-.5.07-.9.42-1.33.65-.26.14-.35.41-.32.7.03.29.26.41.51.47.13.04.26.07.39.1.28.06.49.21.61.49.09.21.2.41.32.6.13.2.16.41.11.64-.14.62-.2,1.25-.16,1.88.02.3-.04.59-.15.86-.3.7-.42,1.44-.47,2.18-.04.52-.19.97-.44,1.41-.15.26-.31.5-.46.75-.4.63-.62,1.31-.54,2.06.03.25.05.49.1.74.07.4.16.8.25,1.19.06.28.01.54-.16.77-.09.13-.19.25-.27.39-.23.4-.38.82-.34,1.29.03.36.07.72.14,1.08.21,1.06-.03,2.07-.32,3.07-.04.15-.13.29-.22.42-.22.35-.51.58-.96.44-.06-.02-.13-.02-.2-.02-.7-.01-1.21.41-1.34,1.09-.08.4,0,.78.27,1.08.23.27.3.54.24.87-.02.11-.02.23,0,.34.06.69-.12,1.34-.36,1.98-.39,1.01-.76,2.03-1.14,3.05-.13.34-.22.7-.39,1.01-.29.54-.38,1.1-.35,1.7.02.36.04.72-.07,1.08-.16.48-.18.97-.18,1.47,0,.74-.2.87-.91.58-.21-.09-.42-.19-.65-.14-.25.04-.49.04-.74,0-.44-.08-.75.23-.87.5-.14.33-.03.72.28.97.12.1.26.18.4.25.23.13.36.32.43.58.18.64.45,1.23.89,1.73.17.19.2.4.15.63-.02.11-.06.22-.09.33-.25.79-.3,1.59-.14,2.41.14.68.07,1.34-.32,1.96-.21.32-.35.69-.4,1.07-.09.72-.24,1.42-.37,2.13-.16.84-.37,1.68-.52,2.52-.08.47-.15.52-.6.6-.62.11-1.25.16-1.89.17-.81.01-1.04.29-.97,1.09.03.28-.03.54-.1.8-.04.14-.14.24-.28.26-.16.02-.31.04-.47.04-.82,0-1.62-.16-2.41-.35-.59-.14-1.07-.46-1.43-.97-.1-.15-.23-.28-.37-.39-.15-.13-.35-.11-.5.03-.08.08-.16.17-.21.26-.22.46-.59.8-.94,1.14-.46.45-.82.45-1.31.06-.19-.16-.39-.3-.58-.46-.43-.37-.9-.37-1.39-.14-.41.19-.8.42-1.15.72-.29.24-.61.39-.99.38-.41-.01-.81.09-1.21.15-.26.04-.5.1-.59.38-.08.26.11.42.27.58.42.41.85.81,1.26,1.24.34.35.73.6,1.18.78.21.08.42.16.64.23.46.15.85.42,1.21.73.29.25.46.55.44.95,0,.2.01.41,0,.61,0,.43.15.79.47,1.08.23.22.45.45.68.66.27.25.5.52.6.89.1.35.34.58.63.77.34.23.71.4,1.11.48.49.1.98.18,1.48.15.34-.02.67.02,1.01.07.72.1,1.43.22,2.16.16.27-.02.54-.06.81-.08.29-.03.41.05.49.34.02.06.04.13.04.2.04.41.19.79.35,1.17.08.21.19.42.23.64.06.36.2.69.35,1.02.16.35.26.72.38,1.09.02.06,0,.14-.07.17-.07.03-.13-.01-.18-.07-.04-.05-.09-.11-.12-.17-.08-.16-.15-.33-.24-.49-.11-.19-.29-.22-.45-.08-.23.21-.46.44-.68.66-.23.23-.24.39-.08.66.11.18.25.32.43.43.19.12.39.23.59.34.42.22.71.55.89.99.1.23.06.38-.13.54-.05.04-.11.07-.17.1-.17.09-.2.23-.15.4.18.57.47,1.03,1.15,1.07.16,0,.31.06.46.1.13.04.26.08.37.16.27.18.27.5,0,.67-.15.1-.32.17-.48.24-.08.04-.18.04-.26.07-.13.04-.25.11-.26.27,0,.14.11.22.35.24.23.01.45,0,.68.03.25.03.49.04.7-.14.11-.1.25-.09.38,0,.31.23.67.24,1.04.23.61-.02,1.22,0,1.82.16.21.06.45.04.67.04.09,0,.18-.03.26-.06.11-.04.18-.13.19-.26,0-.09-.04-.18-.12-.23-.1-.05-.2-.09-.31-.13-.34-.11-.69-.21-1.03-.32-.05-.02-.1-.1-.1-.16,0-.05.04-.13.09-.17.27-.19.57-.15.84-.04.64.24,1.19.04,1.72-.33.06-.04.11-.08.16-.12.31-.25.68-.36,1.07-.37.34,0,.68-.03,1.01-.11.11-.02.23-.02.34-.01.67.07,1.31-.04,1.91-.32.31-.14.64-.21.98-.27.22-.04.45-.07.66-.14.46-.16.93-.18,1.4-.19.36,0,.67.06.92.34.23.25.52.34.86.32.36-.02.72.03,1.08.05.51.03,1-.04,1.3-.54.07-.11.18-.21.29-.28.35-.23.42-.57.37-.95-.03-.22-.07-.45-.1-.67-.06-.43.07-.8.35-1.12.15-.17.3-.26.53-.23.43.06.85.03,1.26-.16.12-.06.26-.08.39-.09.56-.01,1.13-.02,1.69-.01.27,0,.54.07.75.27.22.2.47.2.75.2.46,0,.88-.2,1.33-.24.56-.05,1.12-.1,1.68-.15.09,0,.2-.03.25.06.05.11-.05.16-.13.21-.17.11-.37.18-.48.37-.04.07,0,.22.08.22.09,0,.18,0,.27-.02.74-.12,1.45-.34,2.15-.6.41-.15.79-.16,1.18.01.29.13.59.22.92.21.44-.01.79.16,1.08.47.08.08.16.16.25.23.26.22.42.21.63-.05.42-.52.55-1.12.53-1.77,0-.2-.05-.4,0-.61.04-.19.12-.33.34-.37.27-.05.53-.13.78-.21.41-.13.8-.3,1.25-.21.14.03.32-.03.46-.09.32-.13.65-.18.99-.18.44,0,.85-.1,1.26-.23.13-.04.26-.09.37-.16.21-.12.27-.3.2-.52-.02-.06-.06-.12-.08-.19-.13-.38-.08-.53.26-.73.4-.22.82-.38,1.28-.39.71-.01,1.39.08,2.04.4.24.12.5.22.76.29.33.09.64.2.9.45.2.2.47.27.75.28.52.02,1.04.05,1.55.09.59.05,1.05-.25,1.31-.78.13-.27.26-.52.5-.71.11-.08.17-.21.21-.34.11-.44.33-.84.54-1.24.12-.24.22-.49.28-.76.06-.28.02-.55-.15-.77-.43-.57-.93-1.05-1.72-1.05-.16,0-.31-.03-.46-.07-.12-.03-.16-.24-.07-.34.12-.15.3-.19.46-.27.39-.17.58-.49.62-.9.02-.2.03-.41,0-.61-.08-.53.12-.96.43-1.38.66-.89,1.29-1.8,1.93-2.7.18-.26.33-.54.47-.82.4-.86.78-1.73,1.19-2.58.32-.66.5-1.35.48-2.09-.01-.31,0-.63.03-.95.09-.86.07-1.72-.01-2.57-.08-.79-.12-1.58-.14-2.37,0-.2,0-.41,0-.61-.07-1.12.11-2.21.48-3.26.24-.68.43-1.38.55-2.09.18-1.07.47-2.12.83-3.14.3-.85.51-1.73.62-2.63.06-.42.14-.85.27-1.26.2-.62.41-1.24.9-1.73.83-.83,1.6-1.72,2.35-2.63.16-.19.35-.28.59-.26.23.01.45.06.66.16.14.07.28.15.42.21.48.22.96.25,1.42-.05.04-.02.07-.05.11-.07.23-.12.36-.1.54.09.06.07.12.14.16.22.22.37.43.74.65,1.11.17.28.24.58.23.91-.01.25-.03.5-.08.74-.06.36-.07.72-.02,1.08.07.47.13.94.24,1.4.32,1.34.92,2.5,2.13,3.26.38.24.55.58.63,1,.05.27.05.54,0,.81-.07.43-.07.85-.07,1.28,0,.27,0,.54-.04.81-.03.25-.04.49.01.74.07.32.03.63-.08.93-.12.32-.24.63-.37.95-.32.79-.44,1.62-.35,2.46.12,1.12.3,2.24.45,3.36,0,.07.02.14.02.2,0,.08-.08.11-.15.09-.08-.03-.17-.07-.24-.12-.61-.4-1.29-.64-1.96-.93-.12-.05-.26-.09-.39-.11-.15-.02-.27.04-.34.17-.05.11-.03.22.05.32.14.17.3.33.44.51.1.13.15.28.07.44-.09.18-.25.28-.44.25-.54-.07-1.08-.02-1.62-.1-.72-.11-1.45-.11-2.16.02-.48.09-.88.03-1.29-.22-.29-.17-.61-.31-.92-.41-.27-.09-.49.17-.41.44.04.14.12.24.23.33.35.3.61.66.85,1.05.21.35.51.65.86.85.91.5,1.85.94,2.87,1.2.39.1.75.06,1.08-.21.55-.46,1.22-.56,1.91-.56.31,0,.42.13.37.43-.08.45-.07.9-.04,1.35.04.52.17,1.03.45,1.48.3.47.72.68,1.27.56.26-.05.52-.14.78-.22.04-.01.09-.03.13-.04.63.41,1.39.66,2.05,1.04.75.44,1.42,1.28,1.34,2.09-.17,0-.34,0-.52.01-.16,0-.31.02-.47.04-.07,0-.13.05-.11.14.01.03.07.07.11.07.31.02.61.03.92.04-.02.05-.04.11-.07.16-.17.33-.5.65-.73.97-.09-.03-.17-.05-.26-.09-.37-.16-.75-.32-1.12-.49-.23-.1-.47-.19-.61-.41-.27-.4-.67-.5-1.12-.52-.2,0-.41,0-.6-.05-.38-.1-.47-.33-.31-.7.16-.37.05-.54-.36-.58-.48-.06-.88.16-1.27.4-.16.1-.15.29.02.38.4.21.77.46,1.18.66,1.1.52,2.19,1.08,3.27,1.62.25.12.45.3.6.53.12.18.02.38-.2.39-.13,0-.27-.01-.4-.04-.31-.05-.63-.06-.95-.02-.06,0-.13.05-.15.1-.03.07.04.12.11.13.51.09,1,.27,1.5.43.28.09.57.18.86.19.9.03,1.81.07,2.71-.08.51-.08,1.02-.19,1.54-.18.78.03,1.46-.24,2.01-.8.08-.08.16-.16.25-.23.2-.15.41-.28.66-.34.35-.08.71-.16,1.06-.19,1.15-.11,2.28-.31,3.41-.56,1.23-.27,2.43-.68,3.67-.94.87-.18,1.72-.32,2.62-.16.46.08.94.2,1.41.13.45-.06.89-.07,1.35,0,.34.04.67,0,.91-.32.24-.32.59-.4.97-.37.25.02.49.1.74.09,1.06-.04,2.12-.11,3.17-.28.16-.02.31-.07.43-.18.11-.1.15-.23.09-.37-.16-.34-.58-.58-.95-.52-.31.05-.63.11-.81.42-.14.24-.37.34-.62.35-.47.03-.95.04-1.42.03-.25,0-.36-.12-.4-.38-.04-.24-.06-.48-.2-.7-.31-.48-.13-.94.38-1.13.11-.04.22-.06.33-.09.92-.25,1.83-.51,2.74-.76.13-.04.26-.06.4-.08.2-.04.36.05.45.22.09.18.15.38.23.56.29.66.6.86,1.31.84.16,0,.32-.01.47-.04.89-.15,1.79-.28,2.67-.47.99-.21,1.97-.19,2.96-.08.57.07,1.12.05,1.69.04.72-.02,1.44-.02,2.15.14.81.19,1.65.29,2.49.24.16,0,.32-.03.46-.07.14-.04.22-.16.21-.31,0-.46-.36-.88-.81-.95-.16-.02-.32-.03-.47-.02-.54.03-1.08-.04-1.62-.1-.84-.09-1.47-.56-2.09-1.04-.26-.2-.32-.49-.19-.79.1-.23.22-.45.33-.67.18-.34.12-.53-.22-.7-.1-.05-.21-.08-.31-.12-.16-.08-.33-.15-.48-.24-.16-.09-.18-.26-.08-.41.3-.43.62-.53,1.11-.36.06.02.12.06.19.08.38.14.71.06.98-.24.06-.07.12-.14.18-.2.44-.43.97-.39,1.31.13.21.32.49.52.82.67.27.13.55.19.84.24.42.08.51.19.44.6-.11.6.14,1,.65,1.28.21.12.41.16.64.05.32-.16.66-.29.93-.54.18-.18.39-.3.64-.37.88-.25,1.32-.85,1.46-1.75.11-.74.05-1.49.19-2.22.08-.42-.13-.8-.48-1.06ZM321.95,274.51c-.68.12-1.27.44-1.91.67-.58.21-1.15.4-1.66.75-.27.18-.51.15-.74-.04-.14-.12-.27-.24-.4-.36-1.02-.96-1.96-2-2.83-3.1-.61-.78-1.31-1.5-1.96-2.25-1.03-1.2-2.05-2.41-3.09-3.6-.37-.42-.79-.81-1.18-1.21-.24-.24-.48-.47-.72-.72-.29-.3-.46-.66-.52-1.08-.05-.36-.11-.71-.19-1.07-.08-.41-.26-.77-.59-1.04-.25-.2-.42-.47-.61-.73-.14-.2-.32-.3-.58-.22-.36.12-.61-.03-.79-.34-.01-.02-.02-.04-.03-.06-.19-.4-.37-.57-.85-.35-.19.09-.4.07-.6.02-.48-.13-.96-.27-1.43-.41-.25-.07-.43-.24-.61-.42-.76-.77-1.68-1.2-2.76-1.3-.39-.04-.48-.12-.51-.5-.05-.55-.2-1.06-.36-1.58-.1-.32-.17-.66-.25-.98-.08-.33-.1-.66-.05-1.01.04-.24.04-.5.02-.74-.05-.49-.24-.92-.73-1.14-.26-.12-.42-.33-.58-.55-.57-.75-1.36-.95-2.22-.55-.12.06-.25.11-.36.19-.44.33-.93.45-1.47.42-.55-.03-1.07.12-1.6.26-1.42.39-2.83.81-4.26,1.11-1.22.26-2.43.52-3.64.81-.36.09-.71.15-.88.55-.03.08-.12.16-.19.18-.41.09-.8.35-1.24.1-.19-.11-.4-.07-.59,0-.3.11-.61.16-.93.15-.51-.01-.97.22-1.45.32-.2.04-.25.23-.34.39-.13.26-.27.3-.47.12-.19-.18-.37-.16-.61-.15-.96.05-1.87.33-2.75.67-1.15.43-1.99,1.24-2.53,2.33-.3.6-.29,1.22.05,1.82.03.06.07.12.11.17.38.51.41,1.05.29,1.67-.22,1.18-.59,2.32-.85,3.49-.07.3-.24.58-.34.88-.73,2.16-1.44,4.33-2.19,6.49-.56,1.62-1.19,3.22-2.04,4.72-.4.71-.79,1.42-1.2,2.12-.42.73-.95,1.37-1.44,2.04-.29.4-.56.81-.94,1.15-.36.32-.75.43-1.18.28-.47-.16-.88-.08-1.29.15-.35.2-.73.35-1.1.52-.08.04-.16.09-.25.11-.35.07-.48.55-.82.52-.35-.03-.67.03-1,.11-.04.01-.09.02-.13.03-.59.09-.75-.06-.66-.65.15-.96.4-1.9.62-2.85.41-1.74.81-3.48,1.22-5.21.45-1.94.93-3.87,1.42-5.79.43-1.69.92-3.36,1.38-5.03.12-.41.25-.82.41-1.22.52-1.33.88-2.7,1.15-4.11.2-1.06.49-2.11.73-3.17.43-1.9.85-3.79,1.27-5.69.11-.48.23-.97.34-1.45.45-2.05.9-4.1,1.36-6.15.45-2.03.88-4.06,1.38-6.08.39-1.58.82-3.15,1.32-4.7.35-1.1.67-2.2.97-3.32.23-.88.55-1.72.82-2.58.64-2,1.29-4,1.84-6.03.32-1.2.71-2.38,1.07-3.57.48-1.6.96-3.2,1.44-4.8.06-.22.15-.43.24-.63,0-.02.03-.03.04-.04.17-.47.34-1.13.33-1.82-.49-.24-.84-.52-1.05-.71-.07-.05-.13-.13-.19-.2-.04-.04-.06-.07-.06-.07-.25-.28-.27-.62-.19-.96.05-.22.15-.42.24-.63.14-.33.29-.66.37-1.01.18-.75.13-1.48-.19-2.18-.1-.21-.13-.43-.14-.66-.02-.74-.2-1.45-.66-2.03-.77-.97-.9-2.15-1.2-3.28-.03-.13-.04-.28,0-.4.1-.41.08-.8-.06-1.19-.02-.06-.03-.13-.03-.2-.06-.56.1-.85.62-1.06l2.23-.11c-.04.13-.09.25-.15.37-.14.28-.26.57-.33.89-.11.49-.37.82-.93.79-.13,0-.28,0-.35.14-.05.1.04.22.29.32.36.14.7.31,1.02.53.26.18.55.17.85.15.45-.04.88.06,1.31.18.4,0,.82-.04,1.17-.2.96-.45,1.86-.12,1.86-.12.81.16,1.54.5,2.17,1.05.6.53,1.09,1.13,1.5,1.82.57.98,1.03,2.01,1.43,3.06.36.95.87,1.84,1.34,2.73.16.3.31.6.34.95.05.57-.08.78-.61.98-.17.07-.34.12-.5.2-.29.14-.6.18-1.06.17-.07,0-.27-.04-.47-.06-.68-.07-1.35-.09-2.02.08-.29.07-.56.17-.77.4-.28.3-.58.33-.98.2-.76-.25-1.53-.2-2.26.11-.43.37-1.1,1.15-1.22,2.49.04.23.03.47-.02.69-.21.9-.36,1.82-.79,2.66-.11.22-.22.44-.35.66-.38.62-.7,1.27-.95,1.95-.22.58-.32,1.17-.35,1.79-.02.27-.05.54-.07.81-.03.46-.16.88-.31,1.31-.24.68-.42,1.38-.5,2.11-.07.61-.3,1.18-.58,1.73-.25.49-.39,1.01-.52,1.53-.06.22-.05.44,0,.67.09.47.18.93.35,1.38.17.46.18.93.1,1.4-.09.58-.25,1.15-.1,1.75,0,.02,0,.05,0,.07-.09.58-.1,1.17-.09,1.76,0,.22-.18.32-.38.22-.22-.11-.43-.25-.66-.35-.32-.14-.62-.08-.86.19-.28.31-.37.69.1.95.2.11.38.24.52.42.17.22.22.44.06.68-.1.15-.2.3-.3.45-.1.15-.2.3-.28.46-.25.5-.06,1.07.44,1.31.3.15.57.08.83-.1.35-.25.7-.5,1.03-.77.24-.19.5-.3.8-.31.89-.05,1.54-.47,1.96-1.25.15-.27.37-.46.63-.6.57-.33,1.08-.73,1.61-1.12.33-.24.67-.46,1.05-.62.73-.31,1.5-.3,2.27-.2.42.06.84.19,1.27.23.11.01.22.06.32.09.22.08.33.24.33.46,0,.13-.01.27-.04.4-.04.22-.08.45-.12.67-.17.76-.16,1.52,0,2.28.03.13.06.27.07.4.05.4,0,.75-.37,1.01-.38.26-.51.68-.54,1.12-.04.6.1,1.16.41,1.68.35.57.77,1.03,1.35,1.39.53.33.9.83.76,1.53-.06.28.04.49.26.65.15.11.3.21.43.33.41.38.9.38,1.4.3.32-.05.46-.25.44-.58-.03-.47-.06-.95-.1-1.42-.02-.18-.05-.36-.11-.53-.12-.34-.22-.69-.28-1.05-.05-.32-.22-.59-.39-.86-.31-.49-.11-.95.45-1.07.22-.05.44-.08.67-.11.43-.07.83-.2,1.22-.39.93-.44,1.93-.63,2.95-.67.75-.02,1.49-.02,2.24-.03.99-.02,1.99.02,2.98.07.77.04,1.54.01,2.3.04.98.04,1.94-.01,2.89-.23.36-.08.67,0,.96.21.3.21.53.48.75.77.16.21.34.2.52.02.02-.02.03-.03.04-.05.27-.47.66-.51,1.1-.29.36.17.75.16,1.12.23.35.07.72.09,1.08.11.18,0,.36-.01.53-.06.41-.12.57-.43.45-.84-.09-.32-.26-.58-.62-.64-.09-.01-.19,0-.25.08-.07.07-.05.17-.01.25,0,.02.02.04.04.06.07.11.22.19.15.35-.09.19-.27.24-.45.24-.76-.01-1.48-.15-2.05-.72-.16-.16-.17-.33,0-.46.39-.31.82-.56,1.27-.77.27-.13.51-.28.68-.54.3-.47.34-.93-.07-1.3-.43-.4-.69-.87-.91-1.39-.11-.26-.32-.49-.51-.71-.17-.2-.28-.4-.3-.67-.05-.98-.43-1.85-.91-2.67-.44-.75-.76-1.54-1.11-2.32-.2-.46-.26-.96-.35-1.45-.06-.36-.16-.7-.26-1.05-.23-.85-.51-1.68-.81-2.51-.28-.77-.65-1.49-.98-2.23-.29-.64-.6-1.27-.88-1.91-.28-.65-.38-1.35-.43-2.05-.06-.84-.21-1.66-.42-2.47-.13-.5-.22-1.02-.19-1.54.03-.57-.12-1.12-.21-1.68-.06-.33.03-.57.29-.77.31-.25.61-.19.75.18.18.44.36.88.5,1.33.32.97.77,1.88,1.31,2.75.19.3.3.6.31.95.01.24.07.49.14.73.26.82.57,1.62.98,2.38.64,1.2,1.23,2.42,1.89,3.6,1.01,1.82,1.94,3.67,2.9,5.52.34.66.64,1.35.9,2.04.34.91.72,1.81,1.13,2.69.89,1.88,1.65,3.81,2.34,5.78.59,1.71,1.21,3.41,1.71,5.15.2.69.48,1.36.71,2.05.58,1.76,1.03,3.56,1.58,5.33.57,1.83,1.1,3.68,1.64,5.52.57,1.95,1.13,3.9,1.71,5.85.3,1,.63,1.98.93,2.97.51,1.71,1.11,3.39,1.57,5.12.25.94.59,1.85.89,2.77.08.24.17.47.16.72,0,.3-.11.5-.4.55Z"/>
    <g>
      <path d="M384.27,181.03c.02-.46,0-.92-.06-1.37-.07-.45.02-.93-.23-1.35-.01-.02,0-.05-.01-.07-.02-.1-.07-.18-.1-.27-.1-.27-.3-.48-.42-.74-.18-.39-.48-.67-.89-.83-.27-.11-.54-.22-.82-.32-.15-.05-.28-.14-.43-.17-.27-.07-.5-.24-.79-.24-.03,0-.06-.03-.09-.04-.11-.07-.22-.1-.35-.12-.31-.04-.61-.12-.89-.24-.26-.11-.53-.19-.8-.28-.16-.06-.32-.08-.5-.09-.22,0-.42-.12-.62-.2-.33-.14-.65-.27-1.02-.21-.16.02-.28-.05-.39-.16-.11-.12-.22-.2-.41-.11-.14.07-.31.05-.41-.14-.07-.13-.2-.21-.38-.24-.19-.03-.36-.1-.51-.26-.1-.11-.17-.26-.29-.35-.27-.2-.56-.33-.88-.42-.37-.1-.78-.06-1.11-.31-.02-.01-.05-.02-.07-.02-.07-.02-.12-.09-.22-.01-.07.05-.15-.06-.19-.15-.03-.08.05-.06.1-.1-.08-.05-.15-.1-.22-.14-.06-.04-.13-.05-.19,0-.21.16-.45.13-.68.1-.21-.02-.39.02-.56.14-.04.03-.08.06-.13.07-.29.01-.56.11-.85.11-.25,0-.44.1-.62.24-.06.05-.12.09-.2.08-.4-.02-.79.07-1.17.18-.35.1-.7.19-1.08.18-.29-.01-.59-.1-.89.01-.11.04-.22.02-.34,0-.19-.02-.39-.03-.59.01-.38.08-.76.08-1.14.1-.19.01-.38.03-.54.13-.22.13-.45.17-.71.18-.5.03-1,.11-1.51.11-.02,0-.03,0-.05,0-.18-.01-.34.12-.5.1-.21-.03-.38,0-.56.11-.04.03-.13.06-.15,0-.06-.12-.2-.17-.24-.3-.05-.17-.18-.22-.34-.23-.16,0-.33,0-.49,0-.31,0-.62.05-.93,0-.36-.05-.67.1-.95.31-.14.11-.31.2-.46.2-.24-.01-.45.08-.67.12-.04,0-.08.01-.12.01-.36.02-.69.18-1.03.26-.02,0-.03.01-.04.02-.19.16-.41.26-.64.37-.32.15-.62.34-.96.43-.36.1-.68.28-1.02.41-.08.03-.13.1-.18.16-.38.41-.76.82-1.29,1.06-.41.19-.77.48-1.19.66-.04.02-.08.06-.12.09-.07.06-.16.09-.23.15-.21.16-.48.2-.69.36-.07.05-.13.05-.2,0-.09-.06-.19-.07-.28-.04-.15.06-.32.09-.45.18-.2.14-.44.2-.64.34-.1.07-.22.1-.35.1-.08,0-.16.02-.21.1-.1.17-.25.27-.39.4-.12.11-.29.13-.39.24-.29.31-.75.25-1.06.52-.01.01-.05,0-.07,0-.4.08-.67.35-.93.63-.01.01-.02.03-.02.04-.03.14-.14.22-.21.32-.1.14-.25.2-.36.33-.11.13-.23.26-.41.29-.06,0-.09.07-.13.11-.06.07-.12.14-.19.18-.18.1-.31.24-.45.38-.13.12-.22.29-.4.35-.03.01-.06.05-.08.09-.07.14-.17.26-.21.41-.02.06-.04.12-.1.17-.22.17-.37.41-.6.57-.08.05-.07.12-.06.19.01.06.05.1.09.14.03.02.03.06,0,.09-.05.05-.07,0-.09-.03-.16-.18-.22-.19-.4-.05-.05.04-.1.09-.17.1-.21.02-.35.25-.58.23-.02,0-.06.03-.07.06-.04.09-.12.13-.19.18-.1.07-.2.16-.23.28-.08.25-.12.51-.25.74-.02.04.02.11.02.17,0,.2.03.41-.21.52-.03.02-.06.05-.08.09-.13.22-.28.44-.52.56-.03.02-.07.05-.09.08-.24.36-.61.56-.97.76-.11.06-.21.12-.28.23-.04.07-.1.11-.16.15-.17.11-.29.27-.37.45-.15.33-.38.59-.64.83-.08.08-.14.16-.16.27-.04.22-.08.43-.1.65-.02.19-.08.37-.17.53-.13.21-.23.45-.4.64-.05.05-.08.13-.09.2-.02.13-.09.23-.18.31-.09.09-.18.16-.26.26-.21.23-.41.48-.44.8-.02.2-.04.4-.08.6-.04.2-.13.35-.27.5-.2.2-.33.44-.35.73-.01.26-.07.49-.17.73-.27.63-.7,1.17-.95,1.81-.12.31-.37.57-.52.88-.09.19-.21.37-.19.6,0,.07,0,.13-.05.18-.1.11-.1.24-.1.37,0,.15,0,.29-.06.43-.1.21-.11.43-.05.65.03.13,0,.2-.1.27-.08.06-.15.14-.17.23-.06.25-.04.52-.12.77-.01.03.02.08.03.12.05.2.05.4-.04.6-.09.2-.09.41-.02.62.06.18.06.36.03.53-.09.42,0,.81.17,1.19.06.14.1.27.1.42,0,.32.11.59.33.82.14.14.2.32.16.49-.05.19-.04.35.03.49l.26.15c.11.06.19.1.21.17,0,0,.01.02.02.03.11.03.15.05.17.06.02,0,.06.01.07.02,0,0,.02,0,.08.01.04,0,.13.03.2.04.05-.1.14-.11.17-.11.05,0,.1.02.13.05.05.06.05.13.05.18.06.02.09.06.11.1l.07.02.21.08s.01,0,.02,0c0-.01,0-.03,0-.05.02-.06.07-.06.12-.05.07.03.17.01.18.09,0,.01,0,.02,0,.03,0,0,.01,0,.02,0,0,0,0,0,0-.01.05-.05.11-.08.18-.06.07.02.12.09.14.21l.04-.04s.11-.12.23-.16c.03-.01.06-.02.09-.02l.1-.1.19.23c.06.02.13.05.18.06.1.02.18.09.26.17.03.03.09.09.12.1.14,0,.21.12.25.21l.11.08c.19.06.32.08.4.08.09,0,.25,0,.28.18t.06.03s.07.02.11.03c.14.05.21.14.28.23v.02c.1-.05.18-.04.28-.03,0,0,0,0,0,0,.04,0,.23-.04.36-.08h.04s.26,0,.26,0l.15.05h.3s.04.04.04.04c.09.09.22.18.26.18.13,0,.29.06.46.14.03.01.06.03.08.03.1.04.12.11.13.14,0,.05-.01.09-.04.13.1.02.16.09.2.14.03.04.05.06.08.07.11.05.17.11.21.14h0c.06.04.11.13.14.21l.14.05.36-.12.13.26s.07.04.1.06c.21.04.44.08.51.08,0,0,0,0,0,0,.02-.03.1-.11.22-.07.07.02.12.08.16.12,0,0,0,0,0,0,.08.01.19.05.28.11.08.05.11.12.13.17l.21.14.03.03s.07,0,.08,0c.01,0,.04,0,.13.03.07-.02.21-.06.28-.07.11-.02.24.05.32.11l.18.05c.07.02.16.04.19.03.03-.01.06-.02.09-.03.04-.01.06-.02.1-.05.01,0,.02-.02.03-.02.08-.07.12-.07.23-.06.03,0,.08,0,.14,0,.1,0,.13,0,.14,0h.07s.03.02.03.02c0,0,.02,0,.03,0,.17.04.24.14.22.3h0s0,.05.06.12c.02.03.03.04.07.04.11,0,.17.03.22.1,0,0,.01.01.02.02.01,0,.03-.01.04-.01.02,0,.04-.01.05-.02.04,0,.08,0,.18.01.05,0,.13.02.17.02.08-.02.15.02.2.05.01,0,.03.02.04.02.03,0,.05,0,.08.02,0-.05.02-.1.06-.14.1-.1.24-.04.3-.02h.01c.06.01.19.05.62.18.03-.01.07-.03.12-.04.12-.03.23.05.33.12.05.03.1.07.14.09.08.03.12.06.15.1.13.02.23.11.25.14l.22.22.25.21.46.54s.12.02.2,0c.23-.08.53.16.64.26l.37.12.16.18h.22s.25.23.25.23l.2-.04.22.08h.18s.26,0,.26,0l.12-.06h.18s.31.08.31.08l.26.11c.08-.03.25-.09.39-.14.23-.07.38.09.44.22l.22.13s.08.02.11.03c0,0,0,0,0,0,.03-.02.07-.04.11-.05.09-.03.15,0,.19,0,.02,0,.04.01.07.01.14,0,.35.1.43.14l.25.06c.05,0,.12,0,.15,0,.05-.05.11-.06.15-.07.02,0,.04-.01.06-.02.04-.03.1-.04.15-.05.04,0,.11-.03.12-.04.04-.06.08-.1.14-.1.03,0,.05,0,.07,0,0,0,0-.01.01-.02.05-.09.13-.1.16-.1.04,0,.07.01.1.03.03-.02.07-.03.11-.03.03,0,.12,0,.29.18h.13c.06,0,.12-.03.14-.04.03-.02.08-.03.13-.02.04,0,.07.03.09.05h.07l.09-.03.15-.09s.14-.08.24-.17c.14-.11.26-.09.32-.08,0,0,.01,0,.02-.01.04-.02.09-.05.15-.05,0,0,.04-.02.07-.03.05-.02.08-.03.11-.04h0s.11-.04.19-.04c.02-.01.04-.03.07-.05,0-.03,0-.06.01-.09l.04-.09h.1c.08,0,.12.04.15.09,0,0,.02,0,.03,0h.04s.08,0,.11.01h.02c.1,0,.12,0,.14,0,0,0,.03,0,.14.05h.03s.08.06.08.06h.08s.17-.05.17-.05v-.05s.24-.18.24-.18l.15.22h.05s.07-.02.07-.02l.09-.11.18-.04.16-.18.18.09h.09s.12-.05.12-.05l.31.04h.22s.12.04.12.04l.08.06h.09s.25-.02.25-.02l.03.03h.07s.18.18.18.18l.24.12-.13.26-.39-.2-.07-.06-.16.02h-.22s-.13-.09-.13-.09l-.37-.03-.06-.02-.08.05h-.02s0,.03,0,.03l-.25.28-.2-.15-.81.17v-.05l-.14.05h-.19s-.29.03-.29.03l-.18-.02-.18.02-.21.08-.22-.03-.31.08c-.11.07-.15.09-.17.1-.03.02-.13.1-.13.1l-.03.02-.2.09-.16.04-.18.14-.24.02h-.28v.18s.06.06.06.06v.25l-.02.07.05.09.37.14.41.05h.45s.71.21.71.21l.52.11.21.16.09.05.12.09h1.06s.46.05.46.05l.66.2.9.08.37-.03.14-.08.2.07.31.04h.14s.25-.2.25-.2l.67-.35s0-.06,0-.1c0-.03,0-.07.04-.08.02,0,.04,0,.05.01l.04-.08-.28-.38.61-.64s-.08,0-.12-.02c-.13-.04-.26-.04-.38.03-.1.05-.2.05-.27-.04-.11-.14-.25-.15-.4-.12-.16.03-.3-.02-.44-.11-.12-.07-.22-.17-.34-.25-.08-.05-.2-.03-.24-.15-.04-.12.1-.16.11-.25.02-.18.16-.21.29-.26.02,0,.05-.01.07-.02.24-.1.45-.22.56-.48.04-.1.11-.19.2-.24.23-.13.35-.34.43-.58.04-.12.09-.25.23-.31.09-.04.1-.12.08-.21-.02-.09-.02-.19.06-.25.2-.15.23-.4.29-.6.08-.27.16-.51.36-.71.07-.07.11-.14.09-.24-.03-.11.02-.21.08-.3.12-.18.16-.39.27-.58.05-.08.05-.17.04-.26,0-.06,0-.11,0-.17.05-.25.1-.49.14-.74.03-.18.13-.32.28-.41.13-.07.25-.16.29-.31.02-.08.09-.11.16-.14.2-.09.38-.22.52-.4.11-.14.25-.25.42-.33.11-.05.21-.13.27-.24.03-.05.07-.08.12-.12.31-.23.53-.55.75-.86.04-.05.06-.12.07-.18.03-.27.19-.46.4-.59.16-.1.29-.18.27-.39,0-.03.03-.05.05-.08.13-.22.33-.38.54-.48.48-.25.97-.48,1.53-.45.11,0,.2-.03.24-.13.06-.13.18-.19.26-.29.05-.06.1-.08.17-.06.16.04.31,0,.45-.06.13-.05.26-.09.39-.14.26-.11.57-.17.67-.51.04-.15.17-.2.33-.16.17.04.32,0,.43-.16.06-.09.16-.14.26-.17.14-.04.27-.12.4-.18.27-.12.55-.26.85-.3.15-.02.3,0,.44-.02.47-.07.93,0,1.39.02.04,0,.08.01.12.03.23.12.48.14.71.02.22-.12.5-.09.69-.29.18-.18.41-.27.64-.34.31-.09.6-.25.93-.31.15-.03.28-.07.43-.03.11.03.21.01.31-.04.18-.09.37-.15.58-.19.2-.03.4-.12.58-.24.16-.1.29-.23.43-.36.12-.12.2-.28.32-.39.23-.21.44-.46.75-.57.1-.03.17-.12.21-.23.02-.05.04-.11.08-.15.23-.21.31-.5.44-.76.12-.24.24-.48.45-.66.08-.07.15-.16.06-.28-.04-.05-.02-.09,0-.14.05-.08.09-.17.11-.27.03-.12.09-.2.24-.19.12,0,.23-.03.3-.14.24-.36.26-.77.16-1.17-.03-.13-.05-.23,0-.35.07-.2.1-.39.01-.6-.05-.11,0-.22.03-.33.08-.24.08-.48-.1-.69-.09-.11-.13-.24-.06-.38.05-.1.07-.22.07-.33,0-.07,0-.13.04-.19.16-.21.14-.44.1-.68-.01-.07-.03-.17,0-.21.13-.17.07-.35.07-.53,0-.06,0-.12,0-.17.08-.39.07-.78-.1-1.15-.03-.06-.02-.13-.03-.19-.02-.23,0-.47-.08-.68-.08-.24-.11-.49-.15-.74-.02-.1-.02-.19-.07-.28-.04-.08-.03-.16-.02-.24.06-.37.17-.71.36-1.04.08-.14.14-.28.16-.44.04-.31.11-.61.12-.92.03-.78.07-1.57,0-2.35,0-.05,0-.1,0-.15.03-.18.03-.36.03-.54Z"/>
      <path d="M384.16,238.47s-.02-.07,0-.09c.14-.24.09-.49.03-.74-.01-.04-.01-.08,0-.12.05-.4-.05-.78-.11-1.17-.03-.19-.07-.37,0-.55.02-.05.02-.1,0-.14-.05-.14-.04-.29-.06-.44-.02-.2-.06-.39-.16-.56-.04-.06-.06-.13-.07-.21-.04-.29-.06-.59-.13-.87-.02-.06,0-.11.02-.17.08-.28.2-.56.11-.86-.01-.05,0-.11.01-.17.03-.15.03-.31,0-.46-.04-.19-.01-.37.09-.54.07-.11.16-.22.17-.35.02-.29.03-.59.04-.88.02-.32-.03-.63-.03-.95,0-.33-.01-.66-.08-.97-.05-.24-.06-.48-.11-.72-.02-.06-.02-.13.01-.19.1-.19.06-.39.05-.6,0-.21.13-.39.14-.61,0-.53-.16-1.02-.24-1.54-.01-.07-.05-.14-.09-.2-.03-.07-.06-.13-.08-.2-.06-.2-.19-.28-.41-.27-.24.02-.37-.06-.44-.29-.04-.13-.05-.27-.21-.34-.05-.02-.06-.11-.06-.18,0-.07,0-.13,0-.2-.03-.16-.09-.26-.27-.33-.2-.07-.33-.29-.54-.37-.01,0-.02-.03-.02-.04-.06-.15-.16-.29-.2-.45-.03-.11-.08-.19-.15-.28-.23-.3-.57-.46-.88-.65-.08-.05-.12-.08-.14-.17-.03-.16-.09-.2-.25-.21-.07,0-.13.02-.19.03-.29.06-.6.07-.88.19-.04.02-.1,0-.15,0-.15,0-.29,0-.44,0-.25,0-.51.03-.74-.12-.06-.04-.16-.04-.24-.03-.38.01-.75-.07-1.11-.17-.46-.12-.93-.19-1.39-.3-.17-.04-.32-.09-.46-.21-.21-.17-.45-.28-.72-.24-.4.06-.76-.15-1.16-.12-.09,0-.19-.04-.28-.09-.18-.11-.37-.1-.57-.09-.3,0-.61.01-.91,0-.23-.01-.47-.03-.63-.21-.13-.15-.26-.23-.47-.19-.1.02-.18,0-.22-.11-.06-.2-.22-.27-.39-.34-.27-.1-.49-.28-.73-.42-.26-.16-.46-.39-.76-.48-.13-.04-.21-.14-.28-.26-.05-.1-.1-.21-.25-.2-.07,0-.11-.08-.1-.12.05-.18-.08-.2-.2-.25-.43-.18-.75-.48-.96-.9-.1-.2-.28-.3-.49-.31-.13,0-.24-.04-.35-.09-.17-.08-.33-.15-.53-.18-.17-.02-.33-.1-.49-.2-.17-.12-.38-.22-.61-.22-.28,0-.56.04-.83.1l.07.05-.39.58.22.27.04.88-.94.11-.65.29-.69-.07-.57.06-.97-.1-.62-.19-.65-.03-.94-.03-.24-.18-.25-.11-.41-.13-.11-.02-.79-.16-.19-.02h-.3s-.16-.06-.16-.06l-.43-.05-.94-.84-.33.06-.42-.04-.51-.22-.57-.03-.59-.25-.48.1-.58-.26-.36.06h-.47l-.5-.17-.67-.24-.46-.28-.84-.23-.15-.3-.46-.52-.38-.32-.56-.15-1.43-.03-.66-.1-.4-.5-.16-.08-.64.35-.58-.31h-.47l-.13-.13c-.06,0-.1,0-.14-.03-.05-.04-.21-.17-.25-.23,0-.01-.01-.03-.02-.04l-.03-.02-.34-.09-.83-.03-.13-.26s-.08,0-.11.01c-.11.01-.19.02-.27-.01-.02,0-.05-.01-.07-.02-.08-.02-.17-.05-.19-.15,0,0,0-.03-.02-.05l-.13-.06-.45-.33-.69-.16-.42-.51-.32.05-.92-.07-.42-.29-.29-.06-.36-.26s-.05-.01-.07-.02h-.02c-.08-.03-.1-.09-.12-.15l-.04-.03-.46-.16-.24-.28s0,0-.01,0c-.02,0-.04,0-.06-.02l-.42.4-.18-.14s-.02.01-.03.02c-.06.03-.12.02-.18,0-.03-.01-.04-.03-.06-.05-.01.01-.03.03-.04.04-.02.04-.03.1-.1.06-.06-.04-.02-.08,0-.12.01-.02.01-.04.03-.1-.07.02-.11.04-.15.04-.07.01-.14-.02-.14-.1,0-.02,0-.03,0-.05-.03,0-.05,0-.08,0-.11-.02-.17-.07-.21-.13l-.31-.06-.4-.13-.24.2c.03.08.01.19-.14.28-.03.17-.06.35-.13.52-.02.06-.01.13,0,.19.04.15.06.32.05.45-.03.29,0,.59-.02.88-.03.32-.02.63-.12.94-.09.26-.15.53-.08.81.03.13,0,.25-.12.35-.16.13-.23.32-.23.52,0,.32.05.63.08.95.02.19,0,.35-.06.52-.12.29-.2.59-.19.91,0,.06,0,.13-.03.19-.05.1-.03.21-.04.31,0,.16.05.33-.03.48-.08.14-.03.25.05.36.15.19.26.42.47.56.04.03.06.1.09.15.23.39.23.86.41,1.27.02.03,0,.08,0,.12.03.18,0,.37.09.53.11.2.19.4.24.61.02.07.06.13.1.2.09.16.16.32.15.51,0,.14.03.27.11.39.07.11.17.23.16.38-.03.35.08.66.25.95.03.05.06.1.06.16-.01.2.06.37.14.54.04.09.07.19.07.28,0,.18.08.3.23.37.1.05.14.12.17.22.08.3.2.57.43.79.32.3.62.61.77,1.04.01.04.04.07.06.1.13.21.25.42.43.59.05.05.1.12.11.19.02.14.11.23.22.32.25.2.47.43.7.65.09.08.14.18.16.29.05.3.15.6.08.92-.01.04,0,.1.03.14.08.16.13.33.17.51.01.07.03.17.12.16.13-.01.11.05.09.13-.01.05-.04.1-.02.14.13.33.19.69.48.94.05.04.07.1.06.18-.03.17.06.3.16.42.04.05.08.1.12.15.18.27.39.52.56.8.05.09.14.16.23.22.12.09.25.17.19.35,0,.02.02.06.03.09.17.27.39.5.66.67.26.16.3.2.23.49-.06.27.05.5.15.72.16.34.43.61.67.9.11.13.2.28.36.36.35.16.59.45.84.72.25.26.48.54.8.71.14.08.26.16.37.28.12.12.21.27.33.39.25.25.51.48.87.57.06.01.11.03.15.08.19.2.41.37.56.61.09.16.23.27.39.37.15.1.3.2.42.34.31.38.65.73,1.04,1.03.1.08.18.16.2.3.02.1.09.19.18.25.25.18.53.33.61.67,0,.03.04.05.06.08.1.16.26.28.31.47,0,.03.05.07.08.09.32.24.51.59.8.86.14.13.27.23.45.26.22.04.43.09.57.29.03.05.1.06.15.08.22.12.46.25.58.48.17.33.45.53.72.76.35.29.79.43,1.13.72.27.23.59.41.89.61.16.1.31.22.52.17.05-.01.12.01.17.04.27.14.6.08.87.24.01,0,.03,0,.05,0,.35.03.7.06,1.03.17.08.03.16.03.24,0,.18-.06.35-.01.52.07.04.02.09.06.13.05.09-.02.17-.08.26.03.06.07.17-.02.28.02.2.09.41.18.65.16.06,0,.14.01.19.05.15.11.33.13.51.16.06.01.12.02.16.05.22.14.46.22.72.28.4.09.81.18,1.18.38.07.04.14.03.22.03.4.02.77.11,1.05.44.13.15.32.23.44.39.02.02.06.04.09.04.14-.03.23.03.32.13.05.06.14.07.23.08.32.06.65.07.97.09.26.02.53-.04.77.1.02.01.05.01.07.01.43.03.86-.04,1.29,0,.02,0,.03,0,.05-.01.26-.06.53-.09.79-.16.17-.05.35-.05.53.03.1.04.22.06.33.08.1.02.2.03.27-.06.03-.04.08-.06.13-.04.19.07.28-.04.33-.19.11-.31.37-.47.65-.59.09-.04.19-.06.26-.13.22-.21.48-.3.77-.34.14-.02.31-.05.36-.21.04-.13.12-.13.22-.13.15,0,.31.01.44-.04.18-.07.35-.08.53-.08.1,0,.2,0,.29-.04.05-.02.1-.02.09-.09-.01-.11.04-.09.12-.08.28.04.43-.06.54-.31.03-.06.04-.12.07-.18.02-.04.06-.06.1-.03.06.06.04.16.1.22.1.09-.08.12-.05.22.34,0,.64-.1.89-.32.16-.14.33-.21.52-.25.07-.01.15-.02.22-.04.38-.09.76-.19,1.15-.21.11,0,.2-.04.22-.15.03-.13.12-.18.23-.24.18-.09.37-.12.57-.11.12.01.23.01.34-.02.4-.13.74-.35.99-.7.03-.04.07-.04.1-.05.11-.03.22-.07.32-.13.07-.04.15-.06.23-.06.31,0,.61-.08.92-.12.16-.02.32.02.48-.03.52-.15,1.06-.21,1.59-.3.22-.04.44-.12.67-.13.16,0,.32.01.46-.11.03-.03.11-.02.17-.02.47,0,.94-.05,1.38-.24.07-.03.14-.07.21-.06.18.03.27-.09.32-.21.13-.28.35-.51.47-.8.08-.22.16-.45.35-.61.01,0,.02-.03.02-.04.1-.35.15-.71.06-1.06-.08-.31-.12-.62-.1-.95.01-.17.04-.35.02-.51-.06-.4.04-.79.11-1.17.07-.42.09-.82-.03-1.23Z"/>
    </g>
    <polygon points="364.33 216.08 362.14 214.9 359.61 215.1 360.89 211.27 330.51 204.98 329.91 207.33 329.78 209.58 352.53 227.29 364.33 216.08"/>
  </g>
</svg>