<?xml version="1.0" encoding="UTF-8" standalone="no"?>
<!-- Created with Inkscape (http://www.inkscape.org/) -->

<svg
   version="1.1"
   id="svg270"
   width="229.75999"
   height="76.800003"
   viewBox="0 0 229.75999 76.800003"
   sodipodi:docname="oscu_logo.svg"
   inkscape:version="1.2.2 (b0a8486541, 2022-12-01)"
   xmlns:inkscape="http://www.inkscape.org/namespaces/inkscape"
   xmlns:sodipodi="http://sodipodi.sourceforge.net/DTD/sodipodi-0.dtd"
   xmlns="http://www.w3.org/2000/svg"
   xmlns:svg="http://www.w3.org/2000/svg">
  <defs
     id="defs274" />
  <sodipodi:namedview
     id="namedview272"
     pagecolor="#ffffff"
     bordercolor="#000000"
     borderopacity="0.25"
     inkscape:showpageshadow="2"
     inkscape:pageopacity="0.0"
     inkscape:pagecheckerboard="0"
     inkscape:deskcolor="#d1d1d1"
     showgrid="false"
     inkscape:zoom="3.501876"
     inkscape:cx="128.21699"
     inkscape:cy="48.117066"
     inkscape:window-width="1854"
     inkscape:window-height="1011"
     inkscape:window-x="0"
     inkscape:window-y="0"
     inkscape:window-maximized="1"
     inkscape:current-layer="g276" />
  <g
     inkscape:groupmode="layer"
     inkscape:label="Image"
     id="g276">
    <path
       style="fill:#000000;stroke-width:0.32"
       d="m 29.607723,75.301048 c -4.280925,-1.1189 -8.827604,-3.27215 -11.535045,-5.46284 -1.065007,-0.86174 -2.000431,-1.5668 -2.078719,-1.5668 -0.07829,0 -0.233703,0.487 -0.345367,1.08222 -0.285259,1.52056 -1.835754,3.53115 -3.454708,4.47986 -3.8469749,2.25432 -8.6383149,1.01368 -10.8277789,-2.80369 -1.21008995,-2.10981 -1.32839495,-5.233764 -0.2763019,-7.296037 1.3122109,-2.572147 3.4133669,-4.003753 6.3225579,-4.307824 l 1.88802,-0.197337 -0.783919,-1.958596 c -1.263895,-3.157801 -1.638712,-4.590512 -2.044643,-7.815497 -0.538256,-4.27626 -0.06137,-13.199819 0.748701,-14.009892 0.07485,-0.07485 0.555442,-0.005 1.067982,0.155341 0.512539,0.160291 1.7238899,0.527638 2.6918899,0.816332 0.967999,0.288692 1.920509,0.578199 2.116687,0.643344 0.258631,0.08588 0.241265,0.763575 -0.06317,2.465114 -1.570873,8.779984 1.385897,18.612084 7.327245,24.365169 4.709971,4.560723 9.745876,6.596683 16.859232,6.815983 l 4,0.12332 0.350842,1.3611 c 0.192963,0.7486 0.446665,1.97309 0.563782,2.72109 l 0.212941,1.36 -4.563782,-0.0131 c -3.998602,-0.0115 -5.011178,-0.12999 -8.17645,-0.9573 z m 59.219406,0.19351 c -4.10814,-1.08664 -7.15465,-2.75176 -9.76674,-5.33817 -1.188,-1.17632 -2.16,-2.28107 -2.16,-2.455 0,-0.17392 1.17917,-1.181697 2.62038,-2.239495 l 2.62038,-1.923271 0.63271,0.846394 c 2.30553,3.084212 5.33376,5.118772 8.85343,5.948332 6.72782,1.58567 13.340801,-1.01532 15.972771,-6.282351 1.70919,-3.420388 1.27105,-7.373933 -1.15207,-10.395786 -1.88489,-2.350644 -4.49546,-3.752765 -10.979361,-5.896964 -7.05449,-2.332889 -9.82807,-3.564029 -12.09361,-5.368122 -4.385,-3.491852 -6.16707,-8.796265 -5.06102,-15.064364 1.08661,-6.157929 4.80884,-10.301054 11.32834,-12.609311 2.64662,-0.937042 3.01272,-0.983443 7.73805,-0.980731 4.571611,0.0026 5.172981,0.07318 7.680001,0.901011 2.94589,0.972756 5.10663,2.249491 7.54845,4.460215 1.82903,1.655926 1.85202,1.592892 -1.4827,4.065026 l -2.18125,1.617027 -1.941,-1.899263 c -1.4105,-1.38018 -2.52706,-2.133882 -4.08533,-2.757703 -6.517741,-2.609229 -14.498221,-0.273897 -17.309431,5.065263 -0.76456,1.452086 -0.86574,1.999176 -0.86632,4.684113 -6.4e-4,2.507242 0.12046,3.26432 0.69042,4.32 1.85539,3.436519 5.44485,5.437514 15.436581,8.605322 7.53551,2.389076 12.21313,6.236583 13.65861,11.234679 0.74709,2.583251 0.74862,7.088071 0.003,9.6 -1.60133,5.396669 -6.06892,9.604709 -12.45335,11.729859 -1.4618,0.48658 -3.063511,0.6918 -6.137951,0.78642 -3.64674,0.11223 -4.52437,0.0316 -7.11326,-0.65313 z m 60.713251,0.54988 c -4.43489,-0.7751 -10.01469,-3.00772 -13.16936,-5.2694 -2.09706,-1.50344 -5.00783,-4.338384 -6.54404,-6.373555 -7.32426,-9.703194 -8.29212,-24.390103 -2.32292,-35.249534 4.61848,-8.402148 12.62,-13.876207 22.36611,-15.301276 9.24445,-1.351719 19.2933,1.787176 24.23694,7.570735 l 1.29501,1.515038 -1.81087,1.363579 c -0.99598,0.749969 -2.14994,1.630509 -2.56437,1.956756 l -0.7535,0.593178 -2.01566,-1.976369 c -2.25598,-2.212005 -4.98157,-3.839278 -8.31734,-4.965747 -1.83042,-0.618123 -2.88362,-0.754331 -5.76,-0.744926 -15.20833,0.04972 -26.06454,13.744734 -23.69641,29.892822 1.32473,9.033235 6.41349,16.176083 13.98768,19.633839 6.09393,2.78198 13.86603,2.80521 19.71616,0.0589 2.27252,-1.06682 5.93051,-4.238561 7.14409,-6.194456 l 0.46993,-0.75737 1.1105,0.75737 c 0.61077,0.41655 1.68595,1.183542 2.38927,1.704423 0.70333,0.52088 1.33617,0.986272 1.40632,1.034204 0.31188,0.213111 -1.84205,2.833229 -3.53429,4.299249 -3.60357,3.12182 -6.48847,4.61085 -11.42828,5.89868 -2.50782,0.65379 -3.67907,0.77372 -7.2,0.73723 -2.31273,-0.024 -4.56497,-0.10649 -5.00497,-0.18339 z m 53.14406,-0.12095 c -7.9172,-1.55333 -13.47459,-6.98236 -15.5591,-15.199762 l -0.78496,-3.094381 V 36.390378 15.151408 h 2.88 2.88 l 3.2e-4,19.92 c 6.4e-4,22.213534 0.0973,23.534049 2.02382,27.590645 2.44179,5.141475 7.51078,8.169355 13.67648,8.169355 5.32382,0 9.84849,-2.10498 12.55465,-5.840725 1.42314,-1.964598 2.78254,-5.736669 3.11764,-8.650883 0.16623,-1.445616 0.30333,-11.304391 0.30466,-21.908392 l 0.002,-19.28 h 2.89255 2.89255 l -0.10279,21.84 -0.10279,21.840001 -0.81835,2.72 c -1.2382,4.115521 -2.48296,6.253159 -5.31479,9.127179 -3.79106,3.84755 -8.81034,5.62743 -15.67289,5.55776 -1.89942,-0.0193 -4.09066,-0.16007 -4.86943,-0.31286 z M 47.317596,74.613478 c -0.07681,-0.23214 -0.344553,-1.46231 -0.594998,-2.73372 -0.452835,-2.29886 -0.451232,-2.31435 0.289958,-2.8 0.409924,-0.26859 0.8293,-0.48835 0.931946,-0.48835 0.579731,0 4.121245,-2.579186 5.864748,-4.271131 2.340649,-2.271444 4.230689,-4.947018 5.531969,-7.831178 2.11585,-4.689597 2.99628,-11.506122 2.09468,-16.21769 -0.82916,-4.333028 -1.15269,-5.328311 -2.83538,-8.722458 l -1.62733,-3.282456 2.16984,-1.997544 c 2.27701,-2.096203 2.71736,-2.405434 2.71736,-1.908211 0,0.166466 0.44961,0.862466 0.99913,1.546666 2.98444,3.715868 5.32868,10.85079 5.62819,17.129907 l 0.17772,3.725904 1.0672,-0.445904 c 1.50619,-0.629325 4.50518,-0.552301 6.04776,0.155325 4.90993,2.252326 6.04565,8.78585 2.19636,12.635136 -1.51716,1.517162 -3.05917,2.123635 -5.3995,2.123635 -2.36772,0 -3.38919,-0.412672 -5.30443,-2.142979 -0.69814,-0.630726 -1.30154,-1.090579 -1.34089,-1.021898 -0.0394,0.06868 -0.57554,1.118378 -1.19154,2.33266 -2.84042,5.59913 -8.32316,10.819526 -14.079999,13.406286 -2.560416,1.15049 -3.179933,1.30024 -3.342794,0.808 z M 15.140391,31.512712 c -0.264,-0.14258 -1.488,-0.517463 -2.72,-0.833075 -1.231999,-0.315612 -2.360253,-0.682031 -2.5072302,-0.814266 -0.6140017,-0.552412 2.3892082,-4.926033 5.3120432,-7.73601 2.310032,-2.220837 5.386238,-4.32839 8.456626,-5.793758 2.235744,-1.067027 2.278256,-1.108942 1.489311,-1.46841 -4.045264,-1.843145 -5.737334,-6.5692306 -3.767344,-10.5224856 3.165182,-6.351694 12.70291,-5.20214706 14.251499,1.717681 0.481968,2.153663 -0.02416,4.8068306 -1.178685,6.1789206 -0.426921,0.507367 -0.77622,0.989844 -0.77622,1.072171 0,0.08233 2.051999,0.228956 4.559999,0.325845 6.623296,0.25587 11.567622,1.781404 16.67606,5.145273 l 1.876059,1.235371 -1.866043,1.88572 c -2.006079,2.027232 -2.750601,2.267254 -4.002921,1.290482 -1.253802,-0.977926 -5.417437,-2.871794 -7.643155,-3.476558 -3.305101,-0.89805 -9.917638,-0.741607 -13.381239,0.316582 -5.067112,1.548089 -10.038308,5.276969 -12.867732,9.65205 -0.748079,1.15674 -1.376093,2.098784 -1.395586,2.093432 -0.01949,-0.0054 -0.251442,-0.126386 -0.515442,-0.268965 z"
       id="path295" />
  </g>
</svg>
