<?xml version="1.0" encoding="UTF-8" standalone="no"?>
<!-- Created with Inkscape (http://www.inkscape.org/) -->

<svg
   width="210mm"
   height="297mm"
   viewBox="0 0 210 297"
   version="1.1"
   id="svg5"
   inkscape:version="1.2.2 (b0a8486541, 2022-12-01)"
   sodipodi:docname="timeseries.svg"
   xmlns:inkscape="http://www.inkscape.org/namespaces/inkscape"
   xmlns:sodipodi="http://sodipodi.sourceforge.net/DTD/sodipodi-0.dtd"
   xmlns="http://www.w3.org/2000/svg"
   xmlns:svg="http://www.w3.org/2000/svg">
  <sodipodi:namedview
     id="namedview7"
     pagecolor="#ffffff"
     bordercolor="#000000"
     borderopacity="0.25"
     inkscape:showpageshadow="2"
     inkscape:pageopacity="0.0"
     inkscape:pagecheckerboard="0"
     inkscape:deskcolor="#d1d1d1"
     inkscape:document-units="mm"
     showgrid="false"
     inkscape:zoom="0.69931958"
     inkscape:cx="52.908572"
     inkscape:cy="562.68981"
     inkscape:window-width="1854"
     inkscape:window-height="1011"
     inkscape:window-x="0"
     inkscape:window-y="0"
     inkscape:window-maximized="1"
     inkscape:current-layer="layer1" />
  <defs
     id="defs2">
    <rect
       x="125.66903"
       y="224.48718"
       width="524.13112"
       height="71.2076"
       id="rect113" />
  </defs>
  <g
     inkscape:label="Layer 1"
     inkscape:groupmode="layer"
     id="layer1">
    <g
       aria-label="15  20  25  30  35  40"
       transform="scale(0.26458333)"
       id="text111"
       style="font-size:53.3333px;white-space:pre;shape-inside:url(#rect113)">
      <path
         d="m 144.60324,273.01298 h -4.58666 v -26.61332 q 0,-2.29333 0.0533,-3.68 0.0533,-1.38667 0.16,-2.88 -0.85333,0.85333 -1.54666,1.44 -0.69334,0.58667 -1.76,1.49333 l -4.05333,3.30667 -2.45333,-3.14667 10.29332,-7.99999 h 3.89333 z"
         id="path407" />
      <path
         d="m 170.84326,249.65299 q 5.86666,0 9.33332,2.93333 3.46667,2.93333 3.46667,8.26666 0,5.92 -3.78667,9.33333 -3.73333,3.36 -10.45332,3.36 -2.93334,0 -5.54667,-0.53333 -2.56,-0.53334 -4.31999,-1.54667 v -4.42666 q 1.91999,1.17333 4.63999,1.86666 2.77333,0.64 5.28,0.64 4.21333,0 6.77333,-1.97333 2.61333,-2.02667 2.61333,-6.24 0,-3.73333 -2.29333,-5.70666 -2.29333,-2.02667 -7.25333,-2.02667 -1.49333,0 -3.41333,0.26667 -1.92,0.26667 -3.09333,0.53333 l -2.34667,-1.49333 1.44,-17.97332 h 19.09332 v 4.26666 h -15.09332 l -0.90667,11.04 q 0.90667,-0.16 2.45333,-0.37334 1.54667,-0.21333 3.41334,-0.21333 z"
         id="path409" />
      <path
         d="m 242.14993,273.01298 h -25.17332 v -3.89334 l 9.97333,-10.07999 q 2.87999,-2.88 4.85333,-5.12 1.97333,-2.23999 2.98666,-4.37333 1.01333,-2.18666 1.01333,-4.74666 0,-3.14667 -1.86666,-4.74666 -1.86667,-1.65334 -4.85333,-1.65334 -2.77333,0 -4.90667,0.96 -2.07999,0.96 -4.26666,2.66667 l -2.50666,-3.14667 q 2.23999,-1.86666 5.11999,-3.14666 2.93333,-1.33333 6.56,-1.33333 5.33333,0 8.42666,2.71999 3.09333,2.66667 3.09333,7.41333 0,2.98667 -1.22666,5.6 -1.22667,2.61333 -3.41334,5.17333 -2.18666,2.50666 -5.11999,5.38666 l -7.94666,7.84 v 0.21333 h 19.25332 z"
         id="path411" />
      <path
         d="m 272.81661,253.91965 q 0,6.13333 -1.28,10.56 -1.28,4.37333 -4.05333,6.71999 -2.77333,2.34667 -7.35999,2.34667 -6.45333,0 -9.54667,-5.17333 -3.03999,-5.22667 -3.03999,-14.45333 0,-6.18666 1.22666,-10.55999 1.28,-4.37333 4.05333,-6.66666 2.77333,-2.34667 7.30667,-2.34667 6.39999,0 9.54666,5.17333 3.14666,5.12 3.14666,14.39999 z m -20.58665,0 q 0,7.84 1.76,11.73333 1.81333,3.89333 6.13333,3.89333 4.26666,0 6.07999,-3.84 1.86667,-3.89333 1.86667,-11.78666 0,-7.78666 -1.86667,-11.67999 -1.81333,-3.89333 -6.07999,-3.89333 -4.32,0 -6.13333,3.89333 -1.76,3.89333 -1.76,11.67999 z"
         id="path413" />
      <path
         d="M 330.89662,273.01298 H 305.7233 v -3.89334 l 9.97333,-10.07999 q 2.87999,-2.88 4.85333,-5.12 1.97333,-2.23999 2.98666,-4.37333 1.01333,-2.18666 1.01333,-4.74666 0,-3.14667 -1.86666,-4.74666 -1.86667,-1.65334 -4.85333,-1.65334 -2.77333,0 -4.90667,0.96 -2.08,0.96 -4.26666,2.66667 l -2.50667,-3.14667 q 2.24,-1.86666 5.12,-3.14666 2.93333,-1.33333 6.56,-1.33333 5.33333,0 8.42666,2.71999 3.09333,2.66667 3.09333,7.41333 0,2.98667 -1.22667,5.6 -1.22666,2.61333 -3.41333,5.17333 -2.18666,2.50666 -5.11999,5.38666 l -7.94667,7.84 v 0.21333 h 19.25333 z"
         id="path415" />
      <path
         d="m 348.33664,249.65299 q 5.86666,0 9.33333,2.93333 3.46666,2.93333 3.46666,8.26666 0,5.92 -3.78666,9.33333 -3.73333,3.36 -10.45333,3.36 -2.93333,0 -5.54666,-0.53333 -2.56,-0.53334 -4.32,-1.54667 v -4.42666 q 1.92,1.17333 4.64,1.86666 2.77333,0.64 5.27999,0.64 4.21334,0 6.77333,-1.97333 2.61334,-2.02667 2.61334,-6.24 0,-3.73333 -2.29334,-5.70666 -2.29333,-2.02667 -7.25332,-2.02667 -1.49334,0 -3.41334,0.26667 -1.92,0.26667 -3.09333,0.53333 l -2.34666,-1.49333 1.44,-17.97332 h 19.09332 v 4.26666 h -15.09333 l -0.90666,11.04 q 0.90666,-0.16 2.45333,-0.37334 1.54667,-0.21333 3.41333,-0.21333 z"
         id="path417" />
      <path
         d="m 418.20332,243.83966 q 0,3.84 -2.13333,6.13333 -2.13333,2.24 -5.76,2.98666 v 0.21334 q 4.58667,0.53333 6.82667,2.88 2.23999,2.34666 2.23999,6.13333 0,3.30666 -1.54666,5.91999 -1.54667,2.56 -4.8,4 -3.2,1.44 -8.26666,1.44 -2.98667,0 -5.54666,-0.48 -2.56,-0.42667 -4.90667,-1.6 v -4.37333 q 2.4,1.17333 5.17333,1.86666 2.77333,0.64 5.33333,0.64 5.12,0 7.36,-1.97333 2.29333,-2.02666 2.29333,-5.54666 0,-3.57333 -2.82666,-5.12 -2.77334,-1.6 -7.84,-1.6 h -3.68 v -3.99999 h 3.73333 q 4.69333,0 7.09333,-1.97334 2.45333,-1.97333 2.45333,-5.22666 0,-2.77333 -1.86666,-4.26666 -1.86667,-1.54667 -5.06667,-1.54667 -3.09333,0 -5.27999,0.90667 -2.18667,0.90666 -4.32,2.29333 l -2.34666,-3.2 q 2.02666,-1.6 5.01333,-2.77333 3.03999,-1.17333 6.87999,-1.17333 5.97333,0 8.85333,2.66666 2.93333,2.66667 2.93333,6.77333 z"
         id="path419" />
      <path
         d="m 450.31,253.91965 q 0,6.13333 -1.28,10.56 -1.27999,4.37333 -4.05333,6.71999 -2.77333,2.34667 -7.35999,2.34667 -6.45333,0 -9.54666,-5.17333 -3.04,-5.22667 -3.04,-14.45333 0,-6.18666 1.22666,-10.55999 1.28,-4.37333 4.05334,-6.66666 2.77333,-2.34667 7.30666,-2.34667 6.39999,0 9.54666,5.17333 3.14666,5.12 3.14666,14.39999 z m -20.58665,0 q 0,7.84 1.76,11.73333 1.81333,3.89333 6.13333,3.89333 4.26666,0 6.07999,-3.84 1.86667,-3.89333 1.86667,-11.78666 0,-7.78666 -1.86667,-11.67999 -1.81333,-3.89333 -6.07999,-3.89333 -4.32,0 -6.13333,3.89333 -1.76,3.89333 -1.76,11.67999 z"
         id="path421" />
      <path
         d="m 506.94999,243.83966 q 0,3.84 -2.13333,6.13333 -2.13333,2.24 -5.75999,2.98666 v 0.21334 q 4.58666,0.53333 6.82666,2.88 2.24,2.34666 2.24,6.13333 0,3.30666 -1.54667,5.91999 -1.54666,2.56 -4.8,4 -3.19999,1.44 -8.26666,1.44 -2.98666,0 -5.54666,-0.48 -2.56,-0.42667 -4.90666,-1.6 v -4.37333 q 2.39999,1.17333 5.17333,1.86666 2.77333,0.64 5.33333,0.64 5.11999,0 7.35999,-1.97333 2.29333,-2.02666 2.29333,-5.54666 0,-3.57333 -2.82666,-5.12 -2.77333,-1.6 -7.84,-1.6 h -3.67999 v -3.99999 h 3.73333 q 4.69333,0 7.09333,-1.97334 2.45333,-1.97333 2.45333,-5.22666 0,-2.77333 -1.86667,-4.26666 -1.86666,-1.54667 -5.06666,-1.54667 -3.09333,0 -5.28,0.90667 -2.18666,0.90666 -4.32,2.29333 l -2.34666,-3.2 q 2.02666,-1.6 5.01333,-2.77333 3.04,-1.17333 6.88,-1.17333 5.97333,0 8.85332,2.66666 2.93333,2.66667 2.93333,6.77333 z"
         id="path423" />
      <path
         d="m 525.83002,249.65299 q 5.86666,0 9.33333,2.93333 3.46666,2.93333 3.46666,8.26666 0,5.92 -3.78666,9.33333 -3.73333,3.36 -10.45333,3.36 -2.93333,0 -5.54666,-0.53333 -2.56,-0.53334 -4.32,-1.54667 v -4.42666 q 1.92,1.17333 4.64,1.86666 2.77333,0.64 5.27999,0.64 4.21333,0 6.77333,-1.97333 2.61333,-2.02667 2.61333,-6.24 0,-3.73333 -2.29333,-5.70666 -2.29333,-2.02667 -7.25333,-2.02667 -1.49333,0 -3.41333,0.26667 -1.92,0.26667 -3.09333,0.53333 l -2.34667,-1.49333 1.44,-17.97332 h 19.09333 v 4.26666 h -15.09333 l -0.90666,11.04 q 0.90666,-0.16 2.45333,-0.37334 1.54666,-0.21333 3.41333,-0.21333 z"
         id="path425" />
      <path
         d="m 598.84336,264.37298 h -5.54666 v 8.64 h -4.53333 v -8.64 h -18.23999 v -4 l 17.91999,-25.65331 h 4.85333 v 25.43998 h 5.54666 z m -10.07999,-16.21332 q 0,-2.77333 0.10667,-4.69333 0.10666,-1.97334 0.16,-3.73333 h -0.21334 q -0.42666,1.01333 -1.06666,2.18666 -0.64,1.17333 -1.22667,1.97333 l -11.41333,16.26666 h 13.65333 z"
         id="path427" />
      <path
         d="m 627.80338,253.91965 q 0,6.13333 -1.28,10.56 -1.28,4.37333 -4.05333,6.71999 -2.77333,2.34667 -7.35999,2.34667 -6.45333,0 -9.54667,-5.17333 -3.03999,-5.22667 -3.03999,-14.45333 0,-6.18666 1.22666,-10.55999 1.28,-4.37333 4.05333,-6.66666 2.77334,-2.34667 7.30667,-2.34667 6.39999,0 9.54666,5.17333 3.14666,5.12 3.14666,14.39999 z m -20.58665,0 q 0,7.84 1.76,11.73333 1.81333,3.89333 6.13333,3.89333 4.26666,0 6.07999,-3.84 1.86667,-3.89333 1.86667,-11.78666 0,-7.78666 -1.86667,-11.67999 -1.81333,-3.89333 -6.07999,-3.89333 -4.32,0 -6.13333,3.89333 -1.76,3.89333 -1.76,11.67999 z"
         id="path429" />
    </g>
  </g>
</svg>
