<?xml version="1.0" encoding="UTF-8" standalone="no"?>
<!-- Generator: Adobe Illustrator 21.1.0, SVG Export Plug-In . SVG Version: 6.00 Build 0)  -->

<svg
   version="1.1"
   id="Lager_1"
   x="0px"
   y="0px"
   viewBox="0 0 765.96326 787.43445"
   xml:space="preserve"
   inkscape:version="1.2.2 (b0a8486541, 2022-12-01)"
   sodipodi:docname="UMS_logo_18_lite.svg"
   width="765.96326"
   height="787.43445"
   xmlns:inkscape="http://www.inkscape.org/namespaces/inkscape"
   xmlns:sodipodi="http://sodipodi.sourceforge.net/DTD/sodipodi-0.dtd"
   xmlns="http://www.w3.org/2000/svg"
   xmlns:svg="http://www.w3.org/2000/svg"
   xmlns:rdf="http://www.w3.org/1999/02/22-rdf-syntax-ns#"
   xmlns:cc="http://creativecommons.org/ns#"
   xmlns:dc="http://purl.org/dc/elements/1.1/"><metadata
     id="metadata71"><rdf:RDF><cc:Work
         rdf:about=""><dc:format>image/svg+xml</dc:format><dc:type
           rdf:resource="http://purl.org/dc/dcmitype/StillImage" /><dc:title /></cc:Work></rdf:RDF></metadata><defs
     id="defs69" /><sodipodi:namedview
     pagecolor="#ffffff"
     bordercolor="#666666"
     borderopacity="1"
     objecttolerance="10"
     gridtolerance="10"
     guidetolerance="10"
     inkscape:pageopacity="0"
     inkscape:pageshadow="2"
     inkscape:window-width="1854"
     inkscape:window-height="1011"
     id="namedview67"
     showgrid="false"
     fit-margin-top="0"
     fit-margin-left="0"
     fit-margin-right="0"
     fit-margin-bottom="0"
     inkscape:zoom="0.69103214"
     inkscape:cx="629.49315"
     inkscape:cy="772.03355"
     inkscape:window-x="66"
     inkscape:window-y="32"
     inkscape:window-maximized="1"
     inkscape:current-layer="Lager_1"
     inkscape:showpageshadow="2"
     inkscape:pagecheckerboard="0"
     inkscape:deskcolor="#d1d1d1" /><path
     d="M 737.29902,271.10252 C 724.8039,220.60548 700.77367,176.7055 674.55284,156.66933 l 1.5509,-1.94029 C 652.682,134.62128 591.27755,80.473484 575.33495,67.276768 559.39234,54.080053 568.30146,26.943407 564.23066,32.049152 c -0.29223,0.307572 -6.98033,8.681301 -14.63742,18.280205 0,0 -4.19581,-3.693935 -10.72922,-8.828576 -1.63527,-1.358636 -3.37051,-2.714715 -5.30824,-4.165648 -1.93773,-1.450933 -3.87801,-3.001833 -5.91827,-4.550177 -2.04025,-1.548344 -4.28299,-3.191542 -6.42577,-4.837296 -2.14278,-1.645754 -4.48549,-3.286395 -6.72823,-4.929593 -2.24275,-1.643198 -4.48549,-3.286396 -6.72823,-4.929593 -2.24019,-1.543231 -4.48294,-3.186429 -6.52063,-4.634805 -1.02013,-0.774172 -2.13767,-1.44582 -3.15779,-2.219992 l -0.81508,-0.57935 c -0.10252,-0.09741 -0.20505,-0.194822 -0.50495,-0.187152 -0.19993,0.0051 -0.49472,0.212718 -0.89204,0.322912 -0.29478,0.207605 -0.68954,0.417766 -0.98689,0.525404 -0.29734,0.107637 -0.59469,0.215274 -0.79206,0.320355 -0.19994,0.0051 -0.30246,-0.0923 -0.40499,-0.189708 l -0.40754,-0.289675 C 491.23817,9.8080528 489.50294,8.4519738 487.77026,7.1958618 484.40742,4.7810493 481.35982,2.9583703 479.22983,1.8124524 478.11485,1.2407718 477.30233,0.7613886 476.69485,0.4768266 476.08738,0.1922647 475.78236,0 475.78236,0 c 0,0 0.20761,0.2947886 0.62026,0.7843985 0.41265,0.48961 1.03291,1.2740085 1.85822,2.2532283 1.64805,1.8584723 4.01377,4.398819 7.1869,7.2186152 1.5353,1.361192 3.2731,2.817239 5.01601,4.47322 l 0.30757,0.292232 c 0.10252,0.09741 0.20505,0.194821 0.21016,0.394756 0.005,0.199934 0.0128,0.499836 -0.077,0.902262 -0.0923,0.302459 -0.18204,0.704884 -0.27178,1.10731 -0.0897,0.402426 -0.18204,0.704885 -0.17692,0.90482 0.005,0.199934 0.10764,0.297345 0.21016,0.394755 l 0.71511,0.581908 c 0.92272,0.876696 1.84543,1.753391 2.86811,2.627531 1.9454,1.750835 3.99077,3.499113 5.93873,5.349915 2.04792,1.848246 4.19581,3.693935 6.24117,5.442213 2.14789,1.845689 4.19582,3.693935 6.24118,5.442213 2.04537,1.748279 4.09074,3.496557 6.1361,5.244836 1.9454,1.750835 3.98565,3.299178 5.82597,4.852635 1.84032,1.553458 3.57811,3.009504 5.21083,4.268172 6.436,5.237166 10.92149,8.523561 10.92149,8.523561 -7.65709,9.598904 -14.34519,17.972633 -14.63742,18.280205 -4.0708,5.105745 20.36316,-9.523731 36.79282,3.160365 16.32969,12.686652 82.57911,60.708579 107.35949,79.181069 l 2.6173,-3.26799 -1.54834,2.04026 c 25.40319,19.35685 48.70553,62.17508 60.97515,111.67757 13.93787,56.06198 12.38081,112.52025 -4.24242,158.76036 l 4.74448,1.67925 c 17.00265,-47.05008 18.5367,-104.40805 4.47329,-161.46715 z"
     id="path3"
     inkscape:connector-curvature="0" /><g
     id="g5"
     transform="matrix(0.96699701,-0.07327444,0.07327444,0.96699701,-19.300199,57.961888)"><g
       id="g7"><path
         d="m 762.4,613.9 c 5.6,-16.5 5.7,-34.6 5.6,-39.7 l -0.2,-9.4 -21.8,28.9 -20.3,2.2 -55.4,-34.9 -1.5,3.5 c -0.2,0.4 -17.8,40.8 -29.2,53.4 -5.4,6 -42.6,27.4 -82,50 -44.4,25.5 -94.6,54.4 -119.3,72.5 -4.1,3 -6.6,7.3 -7.4,12.6 -1.1,7.5 1.6,16.5 7,23.6 v 0 c 9,11.7 22.2,14.7 33.7,7.5 20.7,-12.9 155.5,-105.4 181.1,-124.9 13.2,-10.1 19.8,-10.4 37.3,-11.2 9.3,-0.4 22,-1 40.1,-3.4 14.9,-1.9 26,-12.5 32.3,-30.7 z"
         id="path9"
         inkscape:connector-curvature="0"
         sodipodi:nodetypes="cccccccccccssccccc" /></g><g
       id="g11"><path
         d="m 705.9,566 22.7,-30.5 -5.3,-0.9 c -1.3,-0.2 -31.5,-4.9 -48.4,18.3 l -2.1,2.8 37.6,23.9 z"
         id="path13"
         inkscape:connector-curvature="0"
         sodipodi:nodetypes="ccccccc" /></g><g
       id="g15" /><g
       id="g19" /></g><g
     id="g23"
     transform="matrix(0.99710038,-0.07609747,0.07609747,0.99710038,-30.592046,24.493287)"><path
       d="m 6.2,526.7 147.4,126.8 -6,10.8 v 0.2 l 0.6,8.8 v 0 c 0,0.1 0,0.2 0.1,0.2 l 7.1,6.3 c 0.1,0.1 0.1,0.1 0.2,0.1 16.2,0.3 29.4,11.8 40.5,35.2 l 0.1,0.1 84.8,71.3 c 0.1,0 0.1,0.1 0.2,0.1 6.9,0.9 16.2,-3.1 23.3,-9.9 6.8,-6.5 10.2,-14.5 9.5,-21.9 -0.3,-3 -1.2,-5.9 -2.8,-8.6 0,0 0,-0.1 -0.1,-0.1 l -84.1,-72.4 -0.1,-0.1 c -21.3,-5.2 -34.1,-16 -39.1,-33.1 0,-0.1 0,-0.1 -0.1,-0.1 l -6.5,-6.7 c -0.1,-0.1 -0.2,-0.1 -0.3,-0.1 l -8.1,2 c 0,0 -0.1,0 -0.1,0.1 l -10.4,8 v 0 L 14.8,515.4 3.6,511.1 l -2.7,2 -0.9,2.4 z m 13.1,-4.6 c -0.1,0 -0.3,0 -0.4,0.1 -0.1,0.1 -0.1,0.3 0,0.4 -0.180538,-0.11385 0.608053,-0.45236 0.4,-0.5 z"
       id="path25"
       inkscape:connector-curvature="0"
       sodipodi:nodetypes="cccccscccccccccccccccccccccccccccscc" /></g><g
     id="g27"
     transform="translate(-1.079729,8.641344)"><path
       d="M 678,257.7 C 662.4,220.7 640,187.5 611.5,159 583,130.5 549.8,108.1 512.8,92.5 474.5,76.3 433.9,68.1 392,68.1 c -41.9,0 -82.6,8.2 -120.8,24.4 -37,15.6 -70.2,38 -98.7,66.5 -28.5,28.5 -50.9,61.7 -66.5,98.7 -16.3,38.3 -24.5,78.9 -24.5,120.8 0,41.9 8.2,82.6 24.4,120.8 15.6,37 38,70.2 66.5,98.7 28.5,28.5 61.7,50.9 98.7,66.5 38.3,16.3 79,24.5 120.9,24.5 41.9,0 82.6,-8.2 120.8,-24.4 37,-15.6 70.2,-38 98.7,-66.5 28.5,-28.5 50.9,-61.7 66.5,-98.7 16.2,-38.3 24.4,-78.9 24.4,-120.8 0,-42 -8.2,-82.6 -24.4,-120.9 z m -28.5,265.8 h -50.4 l 0.2,-35.4 -7.4,-50.6 -7.5,50.6 v 35.4 h -51.2 v -32.6 l -5.6,-4.7 -13,-106.4 -11.6,106.4 h -6.5 l -13.8,-106.4 -10.6,106.4 -6.2,4.7 0.3,51.5 H 408 c 0,-7.5 0.1,-34.1 0,-49.2 -0.1,-17.7 -20.4,-20 -20.4,-20 v -7.3 h -3.8 v 7.3 c -18.5,1.6 -18.2,20.4 -18.2,20.4 l -9.2,0.1 -0.3,-7.3 h -5.5 v 3.7 h -3.9 v -3.7 h -9.2 l -7.4,7.3 h -3.8 V 490 h -3.6 v 3.7 h -3.8 V 490 h -3.6 v 3.7 H 303.9 V 490 h -3.3 v 3.7 h -16.1 v -12.1 c -0.2,-11.2 -15.7,-12.1 -15.7,-12.1 v -5.3 h -4.2 v 5.3 c -11.9,1.4 -14.9,14.4 -14.9,14.4 h -25.8 v -6.1 h -5.7 v 6.1 l -40,0.4 -31.7,8.4 -12.1,12.6 v 13 5 C 110.3,480.5 96.6,431.2 96.6,378.6 96.5,215.3 228.8,83.1 392,83.1 c 163.2,0 295.5,132.3 295.5,295.5 -0.1,52.6 -13.9,102.1 -38,144.9 z"
       id="path29"
       inkscape:connector-curvature="0" /></g><path
     d="m 320.03917,4.5426095 c -0.002,-0.1033119 -0.1075,-0.2045268 -0.1075,-0.2045268 0,0 -0.84326,-0.809727 -1.35772,-0.6959369 -0.40906,0.215005 -1.12385,0.642922 -1.94197,1.072933 -1.63411,0.963335 -4.08635,2.356681 -7.25547,4.074632 -3.06372,1.8191662 -6.94764,3.9650332 -11.23643,6.5325282 -4.28879,2.567495 -9.19116,5.457498 -14.50258,8.562508 -2.65466,1.604161 -5.41264,3.210417 -8.27182,4.92208 -2.85921,1.711663 -5.8217,3.425423 -8.88752,5.141278 -6.12952,3.535021 -12.56481,7.282951 -19.20461,11.138385 -13.38292,7.712964 -27.68725,15.858036 -41.88828,24.001012 -28.50327,16.391357 -57.10985,32.784808 -78.46305,45.000328 -21.45651,12.2176 -35.760847,20.36267 -35.760847,20.36267 -0.305743,0.21292 -0.613582,0.32251 -0.919325,0.53542 -0.510271,0.32042 -0.915133,0.74204 -1.322093,1.06036 -3.16703,1.82126 -6.435276,3.74793 -9.699329,5.88123 -2.958312,1.92038 -5.815409,3.73535 -8.670408,5.65364 -1.043593,-0.49561 -2.190498,-0.9891 -3.231996,-1.38139 -6.868857,-2.34116 -14.305189,-2.08697 -20.773995,0.008 -6.468807,2.09494 -12.079687,5.7228 -16.750284,9.84835 -4.670598,4.12554 -8.398817,8.85211 -11.505072,13.6694 -3.106254,4.8173 -5.59264,9.62203 -7.562469,14.41626 -1.9698277,4.79425 -3.5306018,9.37348 -4.7856318,13.73981 -2.5079658,8.83597 -3.6917427,16.71489 -4.4916137,23.13906 -0.451591,3.21314 -0.5995346,6.11006 -0.8570771,8.69913 -0.1542313,2.58697 -0.316844,4.7607 -0.3866246,6.41579 -0.1374657,3.41347 -0.2030551,5.27517 -0.2030551,5.27517 v 0 c -0.067683,1.7584 1.3047052,3.1775 3.0610005,3.14189 1.7583918,0.0677 3.1775082,-1.30471 3.1418821,-3.06101 0,0 0.065585,-1.8617 0.099737,-5.27308 0.06978,-1.65507 0.1311789,-3.7234 0.2875048,-6.20707 0.156327,-2.48367 0.4096773,-5.27937 0.7600527,-8.38709 0.7007512,-6.21546 1.8887195,-13.88775 4.1984432,-22.30627 2.309726,-8.41854 5.739112,-17.68661 11.447639,-26.69086 2.802607,-4.50108 6.332587,-8.8102 10.492913,-12.61533 4.160327,-3.80513 9.056409,-7.00507 14.601699,-8.77122 5.441979,-1.76406 11.43195,-1.98892 17.048495,-0.24249 -5.602498,4.0411 -10.692628,7.86511 -14.753835,11.46152 -9.646937,8.46402 -12.540282,13.58705 -9.976978,17.66922 2.563304,4.08216 8.445772,3.65277 20.228098,-1.44387 6.454136,-2.81814 14.124959,-6.79783 22.194358,-11.5091 2.046746,4.09264 3.482006,8.6111 4.508211,13.34457 1.375959,6.6901 1.621777,13.71318 1.247727,20.74885 -0.374051,7.03567 -1.471282,14.08598 -3.085071,21.1468 -0.377619,1.76468 -0.85855,3.53146 -1.23617,5.29613 -0.379714,1.66137 -0.961861,3.53355 -1.444887,5.19701 -0.961862,3.53354 -2.132443,6.96797 -3.199711,10.4003 -4.361908,14.24799 -9.771601,27.79375 -15.392109,41.13707 -5.517196,13.34123 -11.141895,26.47794 -15.526855,39.5895 -2.140825,6.55473 -4.075027,13.10527 -5.595983,19.64743 -0.379715,1.66136 -0.658213,3.21733 -1.037929,4.87869 -0.379715,1.66137 -0.658214,3.21733 -0.831306,4.87451 -0.276404,1.65926 -0.451591,3.21312 -0.727995,4.87239 -0.173091,1.65718 -0.348279,3.21105 -0.523467,4.76491 -1.395215,12.74086 -0.736772,24.81991 0.830516,35.847 1.567289,11.02708 4.144641,20.89679 6.901369,29.41924 0.66388,2.15697 1.428974,4.20854 2.088661,6.15889 0.762999,1.94824 1.319375,3.90068 2.080277,5.74562 0.760903,1.84493 1.416398,3.58866 2.0698,5.22907 0.653399,1.64041 1.306799,3.28081 1.956008,4.71461 1.300513,2.97088 2.489331,5.53062 3.467336,7.88792 1.079221,2.2519 2.048843,4.19595 2.803458,5.73096 1.509232,3.07 2.268039,4.81162 2.268039,4.81162 0.430011,0.81812 1.366103,1.10919 2.0809,0.68127 0.820204,-0.3267 1.109183,-1.3661 0.784578,-2.08299 v 0 c 0,0 -0.756712,-1.63832 -2.265943,-4.70833 -0.754617,-1.53499 -1.620926,-3.48115 -2.700146,-5.73305 -0.975909,-2.25399 -2.166824,-4.91704 -3.36193,-7.78671 -0.649208,-1.43378 -1.300512,-2.97088 -1.850601,-4.61339 -0.6534,-1.6404 -1.308896,-3.38413 -1.964392,-5.12784 -0.758807,-1.74164 -1.315182,-3.69407 -1.97487,-5.64442 -0.659687,-1.95035 -1.424781,-4.00191 -1.983254,-6.05765 -2.651321,-8.42125 -5.019953,-18.19183 -6.580955,-28.90899 -1.45769,-10.71925 -2.008628,-22.59378 -0.605032,-34.92137 l 0.525563,-4.66161 c 0.278499,-1.55595 0.453687,-3.10981 0.732186,-4.66578 0.175187,-1.55386 0.556999,-3.11191 0.936713,-4.77328 0.381811,-1.55805 0.658214,-3.21733 1.040025,-4.77538 1.525148,-6.33554 3.358133,-12.78067 5.604365,-19.23419 4.389152,-12.90492 10.015946,-25.93832 15.63855,-39.17833 5.622602,-13.24002 11.236823,-26.89328 15.912858,-40.94093 1.168484,-3.53774 2.336968,-7.07548 3.29883,-10.60902 0.480931,-1.76678 1.067269,-3.43233 1.546104,-5.30242 0.480931,-1.76678 0.961862,-3.53355 1.337386,-5.40154 1.712907,-7.26952 2.909268,-14.52857 3.380341,-21.87627 0.367762,-7.34559 0.216875,-14.78402 -1.272879,-21.98859 -1.034587,-5.14671 -2.585735,-10.28294 -4.95499,-14.98916 1.429595,-0.85584 2.960407,-1.81708 4.38791,-2.77622 3.266148,-2.02998 6.426893,-4.16118 9.486425,-6.18697 0.8202,-0.3267 1.63832,-0.75671 2.45433,-1.29003 0,0 13.556,-9.37015 33.83836,-23.42431 20.28236,-14.05416 47.39648,-32.691133 74.50851,-51.431404 13.556,-9.370138 27.11411,-18.636967 39.75079,-27.471688 6.31939,-4.365704 12.43426,-8.623905 18.34877,-12.567982 2.95621,-2.023693 5.81121,-3.941979 8.56499,-5.754858 2.75379,-1.81288 5.40427,-3.623663 7.95351,-5.32904 5.09853,-3.410752 9.78799,-6.606499 13.96926,-9.378522 4.18129,-2.772022 7.74898,-5.221536 10.70311,-7.348541 2.95621,-2.023694 5.29885,-3.7248782 6.82756,-4.7894292 0.81603,-0.533323 1.4275,-0.959144 1.83445,-1.2774609 0.0907,-0.6219646 -0.34555,-1.7500085 -0.34555,-1.7500085 z"
     id="path65"
     inkscape:connector-curvature="0"
     sodipodi:nodetypes="sccccscsccccccccccsssscccccscccssscscccscccscccccccscccsccssccsccscsccccsccccccccscsccccccccssccsssccccs" /></svg>
