<?xml version="1.0" encoding="UTF-8" standalone="no"?>
<!-- Created with Inkscape (http://www.inkscape.org/) -->

<svg
   version="1.1"
   id="svg105"
   width="485"
   height="457"
   viewBox="0 0 485 457"
   sodipodi:docname="loerdagskurser_logo.svg"
   inkscape:version="1.2.2 (b0a8486541, 2022-12-01)"
   xmlns:inkscape="http://www.inkscape.org/namespaces/inkscape"
   xmlns:sodipodi="http://sodipodi.sourceforge.net/DTD/sodipodi-0.dtd"
   xmlns="http://www.w3.org/2000/svg"
   xmlns:svg="http://www.w3.org/2000/svg">
  <defs
     id="defs109" />
  <sodipodi:namedview
     id="namedview107"
     pagecolor="#ffffff"
     bordercolor="#000000"
     borderopacity="0.25"
     inkscape:showpageshadow="2"
     inkscape:pageopacity="0.0"
     inkscape:pagecheckerboard="0"
     inkscape:deskcolor="#d1d1d1"
     showgrid="false"
     inkscape:zoom="1.761488"
     inkscape:cx="242.69255"
     inkscape:cy="223.39068"
     inkscape:window-width="1854"
     inkscape:window-height="1011"
     inkscape:window-x="66"
     inkscape:window-y="32"
     inkscape:window-maximized="1"
     inkscape:current-layer="g111" />
  <g
     inkscape:groupmode="layer"
     inkscape:label="Image"
     id="g111">
    <path
       style="fill:#000000"
       d="m 241.20132,455.74257 c -0.57397,-0.69158 -1.40047,-7.32908 -1.83667,-14.75 -0.4362,-7.42091 -0.96481,-12.36757 -1.17469,-10.99257 -0.56871,3.72589 -2.22621,5.22892 -5.12914,4.65114 -1.40845,-0.28032 -50.90865,1.71959 -110.00045,4.44425 -87.042688,4.01344 -107.679315,4.71194 -108.702174,3.67927 C 13.399935,441.80721 11.513994,396.69125 6.5330734,255.58015 0.0930174,73.131268 0.00577134,69.621469 1.8597967,67.580152 2.89891,66.436068 11.690013,52.133208 21.39558,35.796018 31.101148,19.458827 39.389188,5.8775026 39.813447,5.6152959 40.237707,5.3530892 56.945398,3.9531086 76.941649,2.5042279 110.26741,0.08952269 113.43193,0.00327732 114.89924,1.4697351 c 1.44714,1.4463049 1.68355,17.0231339 2.46343,162.3150549 0.47446,88.39336 0.92446,160.76526 1,160.82644 0.48947,0.39642 113.66764,-8.30821 114.13787,-8.77844 0.3227,-0.3227 -2.4005,-59.87092 -6.05156,-132.32939 -5.55773,-110.297944 -6.41941,-131.957844 -5.29364,-133.064606 0.93445,-0.918658 9.34581,-1.896341 27.57189,-3.204777 21.29764,-1.528941 26.57524,-2.197772 28.07874,-3.558425 2.21536,-2.004873 4.55329,-2.152566 6.02393,-0.380549 0.65819,0.793071 2.64331,30.154576 5.12143,75.749997 2.22565,40.95023 4.1596,75.99259 4.29766,77.87192 0.23623,3.21571 3.80095,-1.00988 60.52852,-71.75 C 390.64267,77.948547 413.69652,50 414.7803,50 c 0.94889,0 15.59527,12.375 32.5475,27.5 21.42274,19.113655 31.52441,27.5 33.12477,27.5 6.03512,0 5.65242,7.80494 -0.55987,11.41814 C 475.95593,118.70785 339,242.67227 339,243.94589 c 0,0.43496 27.225,30.19645 60.5,66.13665 33.275,35.94021 60.5,66.05945 60.5,66.93164 0,2.11089 -1.97568,3.98582 -4.2,3.98582 -0.99,0 -1.8,0.64407 -1.8,1.43128 0,2.20407 -51.54835,45.06872 -54.19893,45.06872 -1.80823,0 -11.45531,-13.12852 -51.64555,-70.28344 -27.18208,-38.6559 -49.59982,-70.1056 -49.81719,-69.88822 -0.21737,0.21737 5.71884,35.61446 13.19157,78.6602 7.47274,43.04574 13.34574,78.89314 13.05113,79.6609 -0.81042,2.11192 -3.45544,2.75573 -5.9146,1.43963 -1.78796,-0.95689 -8.90605,-0.14116 -38.10793,4.36713 -19.7501,3.04909 -36.45026,5.5438 -37.11145,5.5438 -0.66119,0 -1.67177,-0.56584 -2.24573,-1.25743 z m 41.82918,-12.74729 c 17.77175,-2.7526 32.41935,-5.1151 32.55021,-5.25 0.13086,-0.13491 -6.34061,-38.18291 -14.38105,-84.55112 -11.04503,-63.69532 -14.35773,-84.72002 -13.55033,-86 0.58775,-0.93179 2.1279,-1.69416 3.42255,-1.69416 1.98154,0 10.70824,11.86464 55.16414,75 29.04562,41.25 53.18293,75.61203 53.63845,76.36007 0.61605,1.01163 6.82287,-3.68997 24.22688,-18.35158 12.86926,-10.84141 24.17934,-20.01086 25.13352,-20.37655 1.37374,-0.52649 -10.53749,-13.91743 -57.22174,-64.3303 C 359.58699,278.78566 331.8063,249.53994 330.27826,248.81115 325.5564,246.55911 326.13358,238 331.00731,238 332.72521,238 472,112.53292 472,110.98533 472,109.48231 415.64579,59.954209 414.84583,60.754165 414.401,61.199 386.43422,95.973791 352.69744,138.03148 c -39.62169,49.39405 -62.05355,76.57412 -63.35603,76.76678 -1.10903,0.16404 -2.52633,-0.31615 -3.14955,-1.06708 -0.73617,-0.88704 -2.63109,-28.96106 -5.4091,-80.13827 -2.35179,-43.325105 -4.50251,-79.115046 -4.77937,-79.533199 -0.50601,-0.764239 -46.57326,2.17683 -47.42413,3.027697 -0.41636,0.416358 12.26809,258.149492 12.72239,258.504002 0.10909,0.0851 5.77612,-0.27512 12.59338,-0.80055 17.6713,-1.362 15.94548,-4.39023 21.11045,37.04158 3.64743,29.25861 3.97836,33.53624 2.70765,35 -0.7962,0.91716 -8.14487,9.12474 -16.33038,18.23907 L 246.5,421.64303 l 0.65524,12.42848 c 0.36039,6.83567 0.69789,12.76599 0.75,13.17849 0.14491,1.14696 0.62734,1.08852 35.12526,-4.25472 z M 134.76914,430.56163 c 51.29802,-2.34662 93.56287,-4.5603 93.92187,-4.91931 0.359,-0.359 -0.88711,-15.16289 -2.76914,-32.89752 L 222.5,360.5 219,360.75329 c -1.925,0.13931 -35.89428,3.20654 -75.4873,6.81606 l -71.987295,6.56277 -1.836186,-2.26759 C 68.417136,370.29357 68.024483,368.6604 68.411112,366.54847 69.241803,362.01088 63.250581,73.833258 62.308509,73.013372 61.589244,72.387396 9.146333,75.520334 8.4348864,76.23178 8.2228259,76.443841 20.676155,434.15615 20.952185,435.78156 c 0.0263,0.15486 4.660315,0.004 10.297815,-0.3359 5.6375,-0.3396 52.221112,-2.53742 103.51914,-4.88403 z M 258.84399,396 c 10.10226,-11.21338 12.083,-13.92345 11.69412,-16 -0.2575,-1.375 -1.91656,-14.34073 -3.6868,-28.81273 L 263.6327,324.87455 246.89324,341.68727 230.15377,358.5 233.52024,389 c 1.85156,16.775 3.39196,30.64876 3.42312,30.83059 0.0604,0.35259 2.76709,-2.59262 21.90063,-23.83059 z m -103.88336,-37.47415 70.46063,-6.47223 14.25414,-14.22871 c 7.83978,-7.82579 14.08485,-14.39799 13.87794,-14.6049 -0.20691,-0.20691 -29.30822,1.74041 -64.66958,4.32738 l -64.29338,4.70357 -20.04519,15.50959 C 81.900132,365.28173 82.242822,365.00036 83.55,364.99904 c 0.5225,-5.2e-4 32.65728,-2.91346 71.41063,-6.47319 z m -55.126457,-17.19603 10.334177,-7.97476 -0.0746,-30.42753 c -0.041,-16.73514 -0.37471,-88.3205 -0.74155,-159.07857 L 108.68524,15.197926 89.725345,40.848963 70.765451,66.5 71.37958,91 c 0.337771,13.475 1.522563,73.775 2.632871,134 1.110308,60.225 2.282183,115.01507 2.604168,121.75572 l 0.585427,12.25571 6.148977,-4.85342 c 3.381937,-2.66939 10.799355,-8.44207 16.48315,-12.82819 z M 38.792608,65.870753 C 50.503543,65.194907 60.961603,64.160005 62.032743,63.570971 63.103882,62.981937 72.754156,50.575 83.477795,36 97.363261,17.127613 102.52502,9.4026791 101.41086,9.1618858 99.860063,8.8267237 59.275349,11.475145 49.321857,12.561038 L 44.143714,13.125957 28.071857,40.125716 C 19.232336,54.975583 12,67.357998 12,67.642192 c 0,0.284195 1.2375,0.278366 2.75,-0.01295 1.5125,-0.29132 12.331674,-1.082638 24.042608,-1.758484 z"
       id="path225" />
    <path
       style="fill:#000000"
       d="m 241.20132,455.74257 c -0.57397,-0.69158 -1.40047,-7.32908 -1.83667,-14.75 -0.4362,-7.42091 -0.96481,-12.36757 -1.17469,-10.99257 -0.56871,3.72589 -2.22621,5.22892 -5.12914,4.65114 -1.40845,-0.28032 -50.90865,1.71959 -110.00045,4.44425 -87.042688,4.01344 -107.679315,4.71194 -108.702174,3.67927 C 13.399935,441.80721 11.513994,396.69125 6.5330734,255.58015 0.0930174,73.131268 0.00577134,69.621469 1.8597967,67.580152 2.89891,66.436068 11.690013,52.133208 21.39558,35.796018 31.101148,19.458827 39.389188,5.8775026 39.813447,5.6152959 40.237707,5.3530892 56.945398,3.9531086 76.941649,2.5042279 110.26741,0.08952269 113.43193,0.00327732 114.89924,1.4697351 c 1.44714,1.4463049 1.68355,17.0231339 2.46343,162.3150549 0.47446,88.39336 0.92446,160.76526 1,160.82644 0.48947,0.39642 113.66764,-8.30821 114.13787,-8.77844 0.3227,-0.3227 -2.4005,-59.87092 -6.05156,-132.32939 -5.55773,-110.297944 -6.41941,-131.957844 -5.29364,-133.064606 0.93445,-0.918658 9.34581,-1.896341 27.57189,-3.204777 21.29764,-1.528941 26.57524,-2.197772 28.07874,-3.558425 2.21536,-2.004873 4.55329,-2.152566 6.02393,-0.380549 0.65819,0.793071 2.64331,30.154576 5.12143,75.749997 2.22565,40.95023 4.1596,75.99259 4.29766,77.87192 0.23623,3.21571 3.80095,-1.00988 60.52852,-71.75 C 390.64267,77.948547 413.69652,50 414.7803,50 c 0.94889,0 15.59527,12.375 32.5475,27.5 21.42274,19.113655 31.52441,27.5 33.12477,27.5 6.03512,0 5.65242,7.80494 -0.55987,11.41814 C 475.95593,118.70785 339,242.67227 339,243.94589 c 0,0.43496 27.225,30.19645 60.5,66.13665 33.275,35.94021 60.5,66.05945 60.5,66.93164 0,2.11089 -1.97568,3.98582 -4.2,3.98582 -0.99,0 -1.8,0.64407 -1.8,1.43128 0,2.20407 -51.54835,45.06872 -54.19893,45.06872 -1.80823,0 -11.45531,-13.12852 -51.64555,-70.28344 -27.18208,-38.6559 -49.59982,-70.1056 -49.81719,-69.88822 -0.21737,0.21737 5.71884,35.61446 13.19157,78.6602 7.47274,43.04574 13.34574,78.89314 13.05113,79.6609 -0.81042,2.11192 -3.45544,2.75573 -5.9146,1.43963 -1.78796,-0.95689 -8.90605,-0.14116 -38.10793,4.36713 -19.7501,3.04909 -36.45026,5.5438 -37.11145,5.5438 -0.66119,0 -1.67177,-0.56584 -2.24573,-1.25743 z m 41.82918,-12.74729 c 17.77175,-2.7526 32.41935,-5.1151 32.55021,-5.25 0.13086,-0.13491 -6.34061,-38.18291 -14.38105,-84.55112 -11.04503,-63.69532 -14.35773,-84.72002 -13.55033,-86 0.58775,-0.93179 2.1279,-1.69416 3.42255,-1.69416 1.98154,0 10.70824,11.86464 55.16414,75 29.04562,41.25 53.18293,75.61203 53.63845,76.36007 0.61605,1.01163 6.82287,-3.68997 24.22688,-18.35158 12.86926,-10.84141 24.17934,-20.01086 25.13352,-20.37655 1.37374,-0.52649 -10.53749,-13.91743 -57.22174,-64.3303 C 359.58699,278.78566 331.8063,249.53994 330.27826,248.81115 325.5564,246.55911 326.13358,238 331.00731,238 332.72521,238 472,112.53292 472,110.98533 472,109.48231 415.64579,59.954209 414.84583,60.754165 414.401,61.199 386.43422,95.973791 352.69744,138.03148 c -39.62169,49.39405 -62.05355,76.57412 -63.35603,76.76678 -1.10903,0.16404 -2.52633,-0.31615 -3.14955,-1.06708 -0.73617,-0.88704 -2.63109,-28.96106 -5.4091,-80.13827 -2.35179,-43.325105 -4.50251,-79.115046 -4.77937,-79.533199 -0.50601,-0.764239 -46.57326,2.17683 -47.42413,3.027697 -0.41636,0.416358 12.26809,258.149492 12.72239,258.504002 0.10909,0.0851 5.77612,-0.27512 12.59338,-0.80055 17.6713,-1.362 15.94548,-4.39023 21.11045,37.04158 3.64743,29.25861 3.97836,33.53624 2.70765,35 -0.7962,0.91716 -8.14487,9.12474 -16.33038,18.23907 L 246.5,421.64303 l 0.65524,12.42848 c 0.36039,6.83567 0.69789,12.76599 0.75,13.17849 0.14491,1.14696 0.62734,1.08852 35.12526,-4.25472 z M 134.76914,430.56163 c 51.29802,-2.34662 93.56287,-4.5603 93.92187,-4.91931 0.359,-0.359 -0.88711,-15.16289 -2.76914,-32.89752 L 222.5,360.5 219,360.75329 c -1.925,0.13931 -35.89428,3.20654 -75.4873,6.81606 l -71.987295,6.56277 -1.836186,-2.26759 C 68.417136,370.29357 68.024483,368.6604 68.411112,366.54847 69.241803,362.01088 63.250581,73.833258 62.308509,73.013372 61.589244,72.387396 9.146333,75.520334 8.4348864,76.23178 8.2228259,76.443841 20.676155,434.15615 20.952185,435.78156 c 0.0263,0.15486 4.660315,0.004 10.297815,-0.3359 5.6375,-0.3396 52.221112,-2.53742 103.51914,-4.88403 z M 258.84399,396 c 10.10226,-11.21338 12.083,-13.92345 11.69412,-16 -0.2575,-1.375 -1.91656,-14.34073 -3.6868,-28.81273 L 263.6327,324.87455 246.89324,341.68727 230.15377,358.5 233.52024,389 c 1.85156,16.775 3.39196,30.64876 3.42312,30.83059 0.0604,0.35259 2.76709,-2.59262 21.90063,-23.83059 z m -103.88336,-37.47415 70.46063,-6.47223 14.25414,-14.22871 c 7.83978,-7.82579 14.08485,-14.39799 13.87794,-14.6049 -0.20691,-0.20691 -29.30822,1.74041 -64.66958,4.32738 l -64.29338,4.70357 -20.04519,15.50959 C 81.900132,365.28173 82.242822,365.00036 83.55,364.99904 c 0.5225,-5.2e-4 32.65728,-2.91346 71.41063,-6.47319 z m -55.126457,-17.19603 10.334177,-7.97476 -0.0746,-30.42753 c -0.041,-16.73514 -0.37471,-88.3205 -0.74155,-159.07857 L 108.68524,15.197926 89.725345,40.848963 70.765451,66.5 71.37958,91 c 0.337771,13.475 1.522563,73.775 2.632871,134 1.110308,60.225 2.282183,115.01507 2.604168,121.75572 l 0.585427,12.25571 6.148977,-4.85342 c 3.381937,-2.66939 10.799355,-8.44207 16.48315,-12.82819 z M 38.792608,65.870753 C 50.503543,65.194907 60.961603,64.160005 62.032743,63.570971 63.103882,62.981937 72.754156,50.575 83.477795,36 97.363261,17.127613 102.52502,9.4026791 101.41086,9.1618858 99.860063,8.8267237 59.275349,11.475145 49.321857,12.561038 L 44.143714,13.125957 28.071857,40.125716 C 19.232336,54.975583 12,67.357998 12,67.642192 c 0,0.284195 1.2375,0.278366 2.75,-0.01295 1.5125,-0.29132 12.331674,-1.082638 24.042608,-1.758484 z"
       id="path223" />
  </g>
</svg>
